<svg width="172" height="43" xmlns="http://www.w3.org/2000/svg"><path d="M37.4 33.575c2.048 0 3.724-1.694 3.724-3.764V10.988c0-2.07-1.676-3.765-3.725-3.765H7.603c-2.048 0-3.724 1.694-3.724 3.765V29.81c0 2.07 1.676 3.764 3.724 3.764H.155v3.765h44.693v-3.765H37.4zM7.815 11.068h30.01V29.65H7.815V11.068zm64.209-1.503c0-.266-.04-.5-.12-.703a1.402 1.402 0 0 0-.43-.559 3.423 3.423 0 0 0-.833-.476 12.16 12.16 0 0 0-1.328-.457 11.282 11.282 0 0 1-1.527-.551 5.017 5.017 0 0 1-1.164-.711 2.867 2.867 0 0 1-.738-.918 2.603 2.603 0 0 1-.258-1.18c0-.442.092-.853.277-1.23a2.94 2.94 0 0 1 .785-.985 3.735 3.735 0 0 1 1.219-.652A5.047 5.047 0 0 1 69.493.91c.64 0 1.21.096 1.71.289.5.193.921.448 1.263.765a3.265 3.265 0 0 1 1.043 2.39L72 4.355c0-.318-.051-.612-.153-.883a1.856 1.856 0 0 0-.464-.703 2.144 2.144 0 0 0-.782-.46 3.364 3.364 0 0 0-1.109-.165c-.401 0-.75.047-1.047.14a2.088 2.088 0 0 0-.734.387 1.536 1.536 0 0 0-.43.583c-.094.223-.14.468-.14.734 0 .24.05.458.152.656.101.198.259.38.472.547a3.6 3.6 0 0 0 .825.46c.336.142.738.277 1.207.407.645.182 1.203.384 1.672.606a4.57 4.57 0 0 1 1.16.754c.304.28.53.596.68.945.148.349.222.745.222 1.187 0 .464-.094.883-.281 1.258a2.751 2.751 0 0 1-.801.961c-.346.266-.763.47-1.25.613a5.764 5.764 0 0 1-1.629.215c-.349 0-.698-.032-1.047-.097a5.182 5.182 0 0 1-1.004-.293 4.446 4.446 0 0 1-.89-.485 3.441 3.441 0 0 1-.715-.672 3.007 3.007 0 0 1-.477-.859 3.066 3.066 0 0 1-.172-1.047h1.508c0 .39.077.725.23 1.004.154.279.36.51.618.691.258.183.555.317.89.403.336.086.69.129 1.06.129.79 0 1.398-.162 1.82-.485.421-.323.632-.763.632-1.32zm4.95 2.875h-1.446V3.987h1.446v8.453zM75.41 1.745c0-.235.072-.433.215-.594.143-.162.355-.242.637-.242.281 0 .495.08.64.242.146.161.22.36.22.594 0 .234-.074.43-.22.586-.145.156-.359.234-.64.234-.282 0-.494-.078-.637-.234a.834.834 0 0 1-.215-.586zm3.707 6.398c0-.646.077-1.233.23-1.762.155-.528.376-.981.665-1.359.289-.378.64-.67 1.05-.879a3.035 3.035 0 0 1 1.391-.312c.537 0 1.003.093 1.399.28.396.188.734.46 1.015.813l.07-.937h1.321v8.273c0 .558-.087 1.054-.262 1.489-.174.434-.42.802-.738 1.101a3.2 3.2 0 0 1-1.133.684 4.295 4.295 0 0 1-2.207.16c-.284-.05-.57-.13-.86-.242a3.855 3.855 0 0 1-.831-.45 2.698 2.698 0 0 1-.68-.695l.75-.867c.177.219.36.401.547.547.187.146.376.263.566.351.19.089.383.153.578.192.196.039.39.058.583.058.338 0 .645-.048.921-.144.276-.096.512-.241.707-.434.196-.192.345-.428.45-.707.104-.278.156-.603.156-.972v-.735c-.281.323-.616.57-1.004.742-.388.172-.842.258-1.363.258a2.92 2.92 0 0 1-1.371-.32 3.099 3.099 0 0 1-1.047-.895 4.25 4.25 0 0 1-.668-1.359 5.974 5.974 0 0 1-.235-1.715v-.164zm1.454.164c0 .422.042.82.128 1.192s.22.696.399.972c.18.276.41.495.691.656.282.162.617.243 1.008.243.255 0 .486-.032.691-.094a1.999 1.999 0 0 0 .988-.648 2.77 2.77 0 0 0 .329-.5v-3.86a2.899 2.899 0 0 0-.328-.48 2.011 2.011 0 0 0-.984-.64 2.4 2.4 0 0 0-.68-.09c-.396 0-.735.081-1.016.245a2.053 2.053 0 0 0-.695.668 3.045 3.045 0 0 0-.403.98c-.086.373-.128.77-.128 1.192v.164zm9.41-4.32.047 1.062A3.138 3.138 0 0 1 92.56 3.83c.411 0 .784.057 1.117.169.334.112.617.291.852.539.234.247.415.565.543.953.127.388.191.858.191 1.41v5.539h-1.445V6.885a2.82 2.82 0 0 0-.11-.84 1.386 1.386 0 0 0-.324-.566 1.278 1.278 0 0 0-.531-.32 2.391 2.391 0 0 0-.73-.102c-.47 0-.88.125-1.235.375-.354.25-.63.578-.828.985v6.023h-1.445V3.987h1.367zm16.993 7.617a2.694 2.694 0 0 1-1.008.73c-.407.175-.896.262-1.469.262-.417 0-.794-.058-1.133-.176a2.205 2.205 0 0 1-.875-.554 2.525 2.525 0 0 1-.566-.977c-.133-.398-.2-.879-.2-1.441V3.987h1.446v5.476c0 .38.044.694.133.942.088.247.205.443.351.586.146.143.313.242.5.297.188.054.38.082.578.082.589 0 1.062-.112 1.418-.336.357-.224.619-.524.785-.899V3.987h1.446v8.453h-1.375l-.031-.836zm10.918-3.297c0 .62-.073 1.192-.219 1.715a4.203 4.203 0 0 1-.637 1.36 2.965 2.965 0 0 1-1.027.894 2.95 2.95 0 0 1-1.39.32c-.532 0-.997-.083-1.395-.25a2.843 2.843 0 0 1-1.028-.726v4.07h-1.445V3.987h1.32l.07.937a2.866 2.866 0 0 1 1.04-.812c.406-.188.877-.281 1.414-.281.531 0 1.001.104 1.41.312.409.208.754.501 1.035.879.281.378.494.83.637 1.36.143.528.215 1.115.215 1.761v.164zm-1.446-.164c0-.422-.044-.819-.132-1.191a3.003 3.003 0 0 0-.414-.98 2.1 2.1 0 0 0-.711-.669c-.287-.164-.628-.246-1.024-.246a2.44 2.44 0 0 0-.668.086 2.017 2.017 0 0 0-.972.613 2.771 2.771 0 0 0-.329.465v4.04c.094.166.204.32.329.464.125.143.268.266.43.367.16.102.343.181.546.239.203.057.43.086.68.086.39 0 .728-.084 1.011-.25.284-.167.52-.391.708-.672.187-.282.325-.611.414-.989a5.24 5.24 0 0 0 .132-1.199v-.164zm7.212-.008c0-.614.09-1.183.27-1.707.179-.523.434-.978.765-1.363.33-.385.733-.687 1.207-.906a3.76 3.76 0 0 1 1.594-.328c.599 0 1.136.109 1.613.328.477.219.882.52 1.215.906.333.385.588.84.765 1.363.178.524.266 1.093.266 1.707v.172c0 .615-.088 1.184-.266 1.707a3.991 3.991 0 0 1-.765 1.36 3.523 3.523 0 0 1-1.211.898 3.817 3.817 0 0 1-1.602.324 3.817 3.817 0 0 1-1.601-.324 3.523 3.523 0 0 1-1.211-.898 4.043 4.043 0 0 1-.77-1.36 5.225 5.225 0 0 1-.27-1.707v-.172zm1.453.172c0 .422.05.82.148 1.195.1.376.249.705.45.989.2.284.45.509.75.676.299.166.65.25 1.05.25.396 0 .745-.084 1.047-.25a2.2 2.2 0 0 0 .75-.676c.198-.284.348-.613.45-.989.101-.375.152-.773.152-1.195v-.172c0-.416-.051-.813-.153-1.191a3.097 3.097 0 0 0-.453-.992c-.2-.284-.452-.51-.754-.68a2.122 2.122 0 0 0-1.054-.254 2.07 2.07 0 0 0-1.04.254c-.296.17-.545.396-.745.68-.201.284-.35.614-.45.992a4.682 4.682 0 0 0-.148 1.191v.172zm9.598-4.32.047 1.062c.302-.38.666-.678 1.093-.894a3.138 3.138 0 0 1 1.438-.324c.411 0 .784.056 1.117.168.333.112.617.291.852.539.234.247.415.565.543.953.127.388.191.858.191 1.41v5.539h-1.445V6.885a2.82 2.82 0 0 0-.11-.84 1.386 1.386 0 0 0-.324-.566 1.278 1.278 0 0 0-.531-.32 2.391 2.391 0 0 0-.73-.102c-.47 0-.88.125-1.235.375-.354.25-.63.578-.828.985v6.023h-1.445V3.987h1.367zm11.39 4.148c0-.614.09-1.183.27-1.707.18-.523.435-.978.766-1.363.33-.385.733-.687 1.207-.906a3.76 3.76 0 0 1 1.594-.328c.599 0 1.136.109 1.613.328.477.219.882.52 1.215.906.333.385.588.84.766 1.363.177.524.265 1.093.265 1.707v.172c0 .615-.088 1.184-.265 1.707a3.991 3.991 0 0 1-.766 1.36 3.523 3.523 0 0 1-1.211.898 3.817 3.817 0 0 1-1.602.324 3.817 3.817 0 0 1-1.601-.324 3.523 3.523 0 0 1-1.211-.898 4.043 4.043 0 0 1-.77-1.36 5.225 5.225 0 0 1-.27-1.707v-.172zm1.454.172c0 .422.05.82.148 1.195.1.376.25.705.45.989.2.284.45.509.75.676.3.166.65.25 1.05.25.396 0 .745-.084 1.047-.25a2.2 2.2 0 0 0 .75-.676c.198-.284.348-.613.45-.989.101-.375.152-.773.152-1.195v-.172c0-.416-.05-.813-.153-1.191a3.097 3.097 0 0 0-.453-.992c-.2-.284-.451-.51-.754-.68a2.122 2.122 0 0 0-1.054-.254 2.07 2.07 0 0 0-1.04.254c-.296.17-.545.396-.745.68-.2.284-.35.614-.45.992a4.682 4.682 0 0 0-.148 1.191v.172zm13.45 3.297a2.694 2.694 0 0 1-1.008.73c-.407.175-.896.262-1.47.262-.416 0-.793-.058-1.132-.176a2.205 2.205 0 0 1-.875-.554 2.525 2.525 0 0 1-.566-.977c-.133-.398-.2-.879-.2-1.441V3.987h1.446v5.476c0 .38.044.694.133.942.088.247.205.443.351.586.146.143.313.242.5.297.188.054.38.082.578.082.589 0 1.061-.112 1.418-.336.357-.224.619-.524.785-.899V3.987h1.446v8.453h-1.375l-.032-.836zm7.863-6.32a3.823 3.823 0 0 0-.711-.055c-.5 0-.908.11-1.223.328a2 2 0 0 0-.707.883v6h-1.445V3.987h1.406l.024.976c.218-.349.492-.625.82-.828.328-.203.727-.304 1.195-.304.104 0 .224.011.36.035.135.023.229.048.28.074v1.344zM83.185 36.705l3.22-15.755h3.608l-4.83 20.93h-3.478L77.723 26.6l-4.068 15.28H70.16l-4.83-20.93h3.609l3.248 15.726 3.997-15.726h3.047l3.953 15.755zm15.878 5.462c-1.15 0-2.185-.191-3.105-.575a6.836 6.836 0 0 1-2.343-1.58 6.92 6.92 0 0 1-1.481-2.387 8.406 8.406 0 0 1-.518-2.976v-.575c0-1.226.183-2.336.547-3.327.364-.992.862-1.836 1.495-2.53a6.588 6.588 0 0 1 2.235-1.61 6.776 6.776 0 0 1 2.767-.568c1.131 0 2.113.189 2.947.568a5.552 5.552 0 0 1 2.07 1.588c.546.68.954 1.49 1.222 2.43.268.939.402 1.969.402 3.09v1.495H95.138c.048.604.175 1.16.381 1.667.206.508.487.947.841 1.316.355.369.774.659 1.258.87.484.21 1.033.316 1.646.316.862 0 1.612-.173 2.25-.518a5.272 5.272 0 0 0 1.66-1.423l1.883 1.797a6.383 6.383 0 0 1-2.22 2.02 7.442 7.442 0 0 1-1.676.66c-.622.169-1.322.252-2.098.252zm-.417-13.325c-.958 0-1.732.335-2.322 1.006-.59.671-.965 1.605-1.128 2.803h6.655v-.259a6.373 6.373 0 0 0-.222-1.33 3.39 3.39 0 0 0-.554-1.135 2.676 2.676 0 0 0-.97-.79c-.398-.197-.884-.295-1.46-.295zm23.338 5.42c0 1.15-.132 2.208-.395 3.176-.264.968-.65 1.802-1.157 2.501a5.38 5.38 0 0 1-1.898 1.64c-.757.392-1.63.588-2.616.588-.949 0-1.773-.17-2.473-.51a4.984 4.984 0 0 1-1.782-1.459l-.173 1.682h-3.162V19.8h3.493v8.021a4.994 4.994 0 0 1 1.732-1.322c.666-.307 1.445-.46 2.336-.46 1.006 0 1.888.194 2.645.582a5.375 5.375 0 0 1 1.905 1.632c.512.7.898 1.535 1.157 2.508.259.973.388 2.039.388 3.198v.302zm-3.493-.303c0-.68-.055-1.327-.165-1.94-.11-.614-.3-1.15-.568-1.61a3.1 3.1 0 0 0-1.071-1.1c-.446-.273-1.004-.41-1.675-.41-.814 0-1.48.18-1.998.54a3.5 3.5 0 0 0-1.193 1.444v6.411a3.638 3.638 0 0 0 1.2 1.467c.523.373 1.196.56 2.02.56.642 0 1.183-.132 1.624-.395a3.08 3.08 0 0 0 1.071-1.078c.273-.455.467-.99.582-1.603.115-.613.173-1.275.173-1.984v-.302zm15.46 3.695c0-.25-.04-.482-.122-.697-.081-.216-.241-.417-.481-.604s-.577-.362-1.014-.525c-.436-.163-1.003-.316-1.703-.46a15.138 15.138 0 0 1-2.278-.647c-.686-.259-1.273-.572-1.761-.941a4.085 4.085 0 0 1-1.143-1.301c-.273-.499-.41-1.074-.41-1.725 0-.633.14-1.234.417-1.804a4.49 4.49 0 0 1 1.2-1.502c.523-.432 1.155-.774 1.898-1.028.743-.254 1.574-.381 2.494-.381.968 0 1.838.127 2.609.38.771.255 1.425.604 1.962 1.05.537.446.947.97 1.23 1.574.282.604.423 1.256.423 1.955h-3.493a2.29 2.29 0 0 0-.172-.87 2.17 2.17 0 0 0-.518-.754 2.504 2.504 0 0 0-.855-.525 3.326 3.326 0 0 0-1.186-.194c-.44 0-.824.055-1.15.165-.326.11-.597.254-.812.432a1.696 1.696 0 0 0-.482.618 1.787 1.787 0 0 0-.158.74c0 .259.048.489.144.69.096.201.266.383.51.546.244.163.573.314.985.453.412.139.93.276 1.552.41a18.3 18.3 0 0 1 2.422.675c.714.26 1.318.575 1.812.95.493.373.87.814 1.128 1.322.259.508.388 1.111.388 1.81 0 .69-.148 1.323-.445 1.898a4.373 4.373 0 0 1-1.273 1.488c-.55.417-1.214.74-1.99.97-.777.23-1.64.345-2.588.345-1.064 0-2.005-.15-2.825-.452-.819-.302-1.507-.697-2.062-1.186a4.942 4.942 0 0 1-1.258-1.66 4.502 4.502 0 0 1-.424-1.89h3.392c.029.478.14.88.33 1.207.192.325.437.589.734.79.297.202.632.348 1.006.439.374.09.757.136 1.15.136.92 0 1.62-.175 2.099-.524.48-.35.719-.808.719-1.373zm10.516 4.226h-3.493V26.326h3.493V41.88zm-3.708-19.593c0-.537.17-.982.51-1.337.34-.355.827-.532 1.459-.532.633 0 1.121.177 1.466.532.345.355.518.8.518 1.337 0 .527-.173.965-.518 1.315-.345.35-.833.525-1.466.525-.632 0-1.119-.175-1.46-.525-.34-.35-.51-.788-.51-1.315zm12.212.259v3.78h2.745v2.588h-2.745v8.682c0 .355.038.642.115.863.076.22.186.39.33.51.144.12.314.201.51.244.197.044.415.065.655.065.24 0 .472-.017.697-.05.225-.034.4-.065.524-.094v2.703c-.277.077-.6.15-.97.223a7.063 7.063 0 0 1-1.33.107 5.348 5.348 0 0 1-1.602-.23 3.182 3.182 0 0 1-1.28-.747c-.36-.345-.64-.795-.84-1.351-.202-.556-.303-1.236-.303-2.041v-8.884h-2.558v-2.588h2.558v-3.78h3.494zm12.585 19.621c-1.15 0-2.185-.191-3.105-.575a6.836 6.836 0 0 1-2.343-1.58 6.92 6.92 0 0 1-1.48-2.387 8.406 8.406 0 0 1-.518-2.976v-.575c0-1.226.182-2.336.546-3.327.364-.992.863-1.836 1.495-2.53a6.588 6.588 0 0 1 2.236-1.61 6.776 6.776 0 0 1 2.767-.568c1.13 0 2.113.189 2.947.568a5.552 5.552 0 0 1 2.07 1.588c.546.68.953 1.49 1.222 2.43.268.939.402 1.969.402 3.09v1.495h-10.163c.048.604.175 1.16.38 1.667.207.508.487.947.842 1.316.354.369.774.659 1.258.87.484.21 1.032.316 1.646.316.862 0 1.612-.173 2.25-.518a5.272 5.272 0 0 0 1.66-1.423l1.883 1.797a6.383 6.383 0 0 1-2.221 2.02 7.442 7.442 0 0 1-1.675.66c-.623.169-1.322.252-2.099.252zm-.417-13.325c-.958 0-1.732.335-2.321 1.006-.59.671-.966 1.605-1.129 2.803h6.656v-.259a6.373 6.373 0 0 0-.223-1.33 3.39 3.39 0 0 0-.553-1.135 2.676 2.676 0 0 0-.97-.79c-.398-.197-.885-.295-1.46-.295z" fill="#FFF" fill-rule="evenodd"/></svg>