<svg fill="none" xmlns="http://www.w3.org/2000/svg" viewBox="0 0 226 290"><rect x=".742" y=".339" width="225.258" height="288.681" rx="8.233" fill="#fff"/><path fill-rule="evenodd" clip-rule="evenodd" d="M61.746 179.668h103.659a4.151 4.151 0 0 1 4.146 4.132v24.795c0 2.314-1.824 4.132-4.146 4.132H61.746c-2.322 0-4.146-1.818-4.146-4.132V183.8c0-2.314 1.824-4.132 4.146-4.132Zm107.142 4.132c0-1.901-1.575-3.472-3.483-3.472H61.747c-1.908 0-3.483 1.571-3.483 3.472v24.794c0 1.901 1.575 3.471 3.483 3.471h103.658c1.908 0 3.483-1.57 3.483-3.471V183.8Z" fill="#001E87"/><path fill-rule="evenodd" clip-rule="evenodd" d="M61.746 179.668h103.659a4.151 4.151 0 0 1 4.146 4.132v24.795c0 2.314-1.824 4.132-4.146 4.132H61.746c-2.322 0-4.146-1.818-4.146-4.132V183.8c0-2.314 1.824-4.132 4.146-4.132Zm107.142 4.132c0-1.901-1.575-3.472-3.483-3.472H61.747c-1.908 0-3.483 1.571-3.483 3.472v24.794c0 1.901 1.575 3.471 3.483 3.471h103.658c1.908 0 3.483-1.57 3.483-3.471V183.8Z" fill="#001E87"/><path d="M165.405 180.33c1.908 0 3.483 1.57 3.483 3.471v24.794c0 1.901-1.575 3.472-3.483 3.472H61.747c-1.908 0-3.483-1.571-3.483-3.472v-24.794c0-1.901 1.575-3.471 3.483-3.471h103.658Z" fill="#fff"/><path d="M84.96 196.107a4.252 4.252 0 0 1 2.032-3.569 4.373 4.373 0 0 0-3.442-1.854c-1.448-.152-2.852.863-3.59.863-.752 0-1.888-.848-3.112-.823a4.587 4.587 0 0 0-3.857 2.344c-1.668 2.878-.424 7.108 1.174 9.434.8 1.139 1.733 2.411 2.956 2.366 1.196-.049 1.643-.76 3.087-.76 1.43 0 1.85.76 3.096.732 1.284-.021 2.093-1.144 2.864-2.294a9.418 9.418 0 0 0 1.31-2.658 4.11 4.11 0 0 1-2.518-3.781ZM82.606 189.152a4.177 4.177 0 0 0 .961-3 4.282 4.282 0 0 0-2.766 1.427 3.975 3.975 0 0 0-.986 2.889 3.54 3.54 0 0 0 2.791-1.316Z" fill="#001E87"/><path fill-rule="evenodd" clip-rule="evenodd" d="M95.39 202.097h3.926l.941 2.774h1.691l-3.717-10.264h-1.728l-3.718 10.264h1.663l.942-2.774Zm3.522-1.281h-3.111l1.534-4.502h.044l1.533 4.502ZM106.841 204.95c1.885 0 3.134-1.494 3.134-3.819 0-2.319-1.256-3.82-3.162-3.82a2.666 2.666 0 0 0-2.391 1.323h-.028v-1.245h-1.492v9.958h1.541v-3.706h.036a2.546 2.546 0 0 0 2.362 1.309Zm-.434-6.33c1.199 0 1.984.996 1.984 2.511 0 1.529-.785 2.518-1.984 2.518-1.177 0-1.969-1.01-1.969-2.518 0-1.494.792-2.511 1.969-2.511ZM115.103 204.95c1.885 0 3.134-1.494 3.134-3.819 0-2.319-1.257-3.82-3.162-3.82a2.665 2.665 0 0 0-2.391 1.323h-.028v-1.245h-1.492v9.958h1.541v-3.706h.036a2.546 2.546 0 0 0 2.362 1.309Zm-.434-6.33c1.198 0 1.984.996 1.984 2.511 0 1.528-.786 2.517-1.984 2.517-1.178 0-1.97-1.01-1.97-2.517 0-1.494.792-2.511 1.97-2.511Z" fill="#001E87"/><path d="M123.699 202.012c.114 1.018 1.106 1.686 2.462 1.686 1.299 0 2.233-.668 2.233-1.586 0-.797-.564-1.274-1.898-1.601l-1.335-.32c-1.891-.455-2.769-1.337-2.769-2.767 0-1.771 1.549-2.987 3.747-2.987 2.177 0 3.668 1.216 3.718 2.987h-1.555c-.093-1.024-.943-1.642-2.184-1.642-1.242 0-2.091.625-2.091 1.536 0 .725.542 1.152 1.87 1.479l1.134.278c2.113.498 2.99 1.344 2.99 2.845 0 1.92-1.534 3.122-3.975 3.122-2.283 0-3.825-1.174-3.925-3.03h1.578ZM133.351 195.618v1.771h1.428v1.216h-1.428v4.125c0 .641.286.94.913.94.17-.003.339-.015.507-.036v1.209a4.236 4.236 0 0 1-.856.072c-1.52 0-2.112-.57-2.112-2.021v-4.289h-1.092v-1.216h1.092v-1.771h1.548Z" fill="#001E87"/><path fill-rule="evenodd" clip-rule="evenodd" d="M139.158 197.297c-2.169 0-3.56 1.479-3.56 3.834 0 2.36 1.377 3.833 3.56 3.833 2.185 0 3.562-1.473 3.562-3.833 0-2.355-1.385-3.834-3.562-3.834Zm.004 1.265c1.249 0 1.992.953 1.992 2.568 0 1.622-.743 2.568-1.992 2.568-1.248 0-1.991-.946-1.991-2.568 0-1.607.743-2.568 1.991-2.568Z" fill="#001E87"/><path d="M143.996 197.39h1.47v1.273h.036a1.79 1.79 0 0 1 1.806-1.352c.177 0 .354.019.528.058v1.436a2.17 2.17 0 0 0-.693-.092 1.552 1.552 0 0 0-1.606 1.721v4.438h-1.541v-7.482Z" fill="#001E87"/><path fill-rule="evenodd" clip-rule="evenodd" d="M151.704 204.964c1.698 0 3.025-.932 3.233-2.291h-1.464a1.699 1.699 0 0 1-1.734 1.053c-.56.02-1.103-.2-1.489-.606a1.94 1.94 0 0 1-.53-1.514v-.092h5.303v-.527c0-2.268-1.307-3.691-3.384-3.691-2.112 0-3.475 1.523-3.475 3.87 0 2.34 1.356 3.798 3.54 3.798Zm1.776-4.524h-3.753a1.903 1.903 0 0 1 1.912-1.899c.503-.011.987.188 1.337.549.349.36.532.85.504 1.35ZM97.338 187.559a2.194 2.194 0 0 0-1.746-.675h-1.787v4.931h1.787c1.474 0 2.328-.906 2.328-2.481a2.178 2.178 0 0 0-.582-1.775Zm-1.835 3.558h-.933v-3.537h.933a1.553 1.553 0 0 1 1.632 1.764c.068.461-.076.929-.392 1.273a1.558 1.558 0 0 1-1.24.5ZM99.624 188.287a1.762 1.762 0 0 0-.828 1.666 1.762 1.762 0 0 0 .827 1.669 1.774 1.774 0 0 0 1.867 0 1.76 1.76 0 0 0 .827-1.669 1.76 1.76 0 0 0-.828-1.666 1.775 1.775 0 0 0-1.865 0Zm.938.388c.638 0 1.002.472 1.002 1.279 0 .81-.364 1.281-1.002 1.281-.64 0-1-.468-1-1.281 0-.807.36-1.279 1-1.279Z" fill="#001E87"/><path d="M106.997 191.816h-.764l-.772-2.741h-.058l-.769 2.741h-.757l-1.029-3.722h.747l.669 2.84h.055l.768-2.84h.707l.768 2.84h.058l.666-2.84h.736l-1.025 3.722ZM108.891 188.094h.709v.591h.055a1.12 1.12 0 0 1 1.114-.663 1.22 1.22 0 0 1 .981.383c.251.269.366.638.312 1.001v2.41h-.737v-2.225c0-.598-.261-.896-.806-.896a.858.858 0 0 0-.891.943v2.178h-.737v-3.722ZM113.228 186.641h.737v5.175h-.737v-5.175Z" fill="#001E87"/><path fill-rule="evenodd" clip-rule="evenodd" d="M115.825 188.287a1.763 1.763 0 0 0-.828 1.667 1.76 1.76 0 0 0 .827 1.668 1.776 1.776 0 0 0 1.868 0 1.763 1.763 0 0 0 .827-1.668 1.763 1.763 0 0 0-.828-1.667 1.776 1.776 0 0 0-1.866 0Zm.938.389c.638 0 1.002.471 1.002 1.278 0 .81-.364 1.281-1.002 1.281-.64 0-1.001-.468-1.001-1.281 0-.807.361-1.278 1.001-1.278ZM120.684 189.652c-.889.055-1.389.441-1.389 1.111.001.318.137.62.374.832.237.212.554.315.871.282.452.021.88-.203 1.121-.585h.059v.523h.709v-2.542c0-.787-.528-1.251-1.464-1.251-.847 0-1.451.41-1.526 1.049h.714c.081-.263.366-.413.778-.413.504 0 .764.222.764.615v.321l-1.011.058Zm1.013.482v.311a.882.882 0 0 1-.967.813c-.401 0-.693-.195-.693-.53 0-.328.234-.502.748-.536l.912-.058ZM124.948 188.033c-.943 0-1.55.745-1.55 1.921 0 1.178.601 1.923 1.55 1.923.482.018.934-.232 1.173-.649h.058v.588h.707v-5.174h-.737v2.044h-.055a1.231 1.231 0 0 0-1.146-.653Zm.207 3.184c-.624 0-.997-.475-.997-1.264 0-.783.377-1.261.997-1.261.617 0 1.005.489 1.005 1.264 0 .78-.383 1.261-1.005 1.261ZM130.762 188.287a1.761 1.761 0 0 0-.828 1.666 1.763 1.763 0 0 0 .827 1.669 1.776 1.776 0 0 0 1.868 0 1.762 1.762 0 0 0 .827-1.669 1.761 1.761 0 0 0-.828-1.666 1.776 1.776 0 0 0-1.866 0Zm.932.388c.639 0 1.002.472 1.002 1.278 0 .81-.363 1.282-1.002 1.282-.64 0-1-.469-1-1.282 0-.806.36-1.278 1-1.278Z" fill="#001E87"/><path d="M134.443 188.094h.71v.591h.055a1.119 1.119 0 0 1 1.114-.663 1.216 1.216 0 0 1 1.293 1.384v2.41h-.737v-2.225c0-.598-.261-.896-.806-.896a.857.857 0 0 0-.892.943v2.178h-.737v-3.722ZM141.776 187.168v.943h.809v.619h-.809v1.914c0 .39.161.56.528.56.094 0 .188-.006.281-.017v.612a2.452 2.452 0 0 1-.401.038c-.82 0-1.146-.288-1.146-1.005v-2.102h-.593v-.619h.593v-.943h.738ZM143.592 186.641h.73v2.051h.059a1.15 1.15 0 0 1 1.138-.667c.366-.02.722.124.971.393.248.268.364.633.315.995v2.403h-.738v-2.222c0-.594-.277-.896-.798-.896a.873.873 0 0 0-.94.944v2.174h-.737v-5.175Z" fill="#001E87"/><path fill-rule="evenodd" clip-rule="evenodd" d="M149.487 191.887a1.516 1.516 0 0 0 1.618-1.077h-.709a.897.897 0 0 1-.889.451.99.99 0 0 1-.734-.314.98.98 0 0 1-.26-.752v-.041h2.637v-.256c0-1.169-.627-1.876-1.666-1.876a1.722 1.722 0 0 0-1.722 1.944c-.068.492.084.988.416 1.358.333.37.811.576 1.309.563Zm.911-2.276h-1.886a.95.95 0 0 1 .967-.964.898.898 0 0 1 .919.964Z" fill="#001E87"/><path d="M165.393 225.849H61.734c-2.322 0-4.146 1.818-4.146 4.132v24.795c0 2.314 1.824 4.132 4.146 4.132h103.659c2.322 0 4.146-1.818 4.146-4.132v-24.795a4.151 4.151 0 0 0-4.146-4.132Z" fill="#fff"/><path fill-rule="evenodd" clip-rule="evenodd" d="M61.726 225.848h103.659a4.151 4.151 0 0 1 4.146 4.133v24.794c0 2.314-1.824 4.133-4.146 4.133H61.726c-2.322 0-4.146-1.819-4.146-4.133v-24.794c0-2.315 1.825-4.133 4.146-4.133Zm107.143 4.132c0-1.901-1.576-3.471-3.483-3.471H61.727c-1.907 0-3.483 1.57-3.483 3.471v24.795c0 1.901 1.576 3.471 3.483 3.471h103.659c1.907 0 3.483-1.57 3.483-3.471V229.98Z" fill="#001E87"/><path d="M96.895 234.28c0 .661-.165 1.239-.58 1.653-.498.496-1.078.743-1.824.743-.747 0-1.327-.247-1.825-.743-.497-.496-.746-1.075-.746-1.819 0-.743.249-1.322.746-1.818.498-.496 1.078-.744 1.825-.744.331 0 .663.083.995.248.331.165.58.331.746.579l-.415.413c-.331-.413-.746-.579-1.326-.579-.498 0-.995.166-1.327.579-.415.331-.58.826-.58 1.405 0 .579.165 1.074.58 1.405.415.331.83.579 1.327.579.58 0 .995-.166 1.41-.579.248-.248.414-.579.414-.992h-1.824v-.578h2.404v.248ZM100.711 232.214h-2.239v1.57h2.073v.579h-2.073v1.57h2.239v.661h-2.902v-4.959h2.902v.579ZM103.448 236.594h-.663v-4.38h-1.41v-.579h3.483v.579h-1.41v4.38ZM107.261 236.594v-4.959h.663v4.959h-.663ZM110.743 236.594h-.663v-4.38h-1.41v-.579h3.4v.579h-1.41v4.38h.083Z" fill="#001E87" stroke="#001E87" stroke-width=".15"/><path fill-rule="evenodd" clip-rule="evenodd" d="M116.801 236.677c.747 0 1.327-.248 1.825-.744.497-.496.746-1.074.746-1.818s-.249-1.323-.746-1.818c-.498-.496-1.078-.744-1.825-.744-.746 0-1.327.248-1.824.744-.498.495-.747 1.074-.747 1.818s.249 1.322.747 1.818c.497.496 1.078.744 1.824.744Zm.001-.579c-.497 0-.995-.248-1.327-.578-.414-.331-.58-.827-.58-1.405 0-.579.249-1.075.58-1.405.332-.414.83-.579 1.327-.579.498 0 .995.248 1.327.579.415.33.58.826.58 1.405a1.99 1.99 0 0 1-.58 1.405c-.332.413-.829.578-1.327.578Z" fill="#001E87"/><path d="m118.626 235.933-.053-.053.053.053Zm0-3.636.053-.054-.053.054Zm-3.649 0-.053-.054.053.054Zm0 3.636.053-.053-.053.053Zm.498-.413.054-.054-.007-.005-.047.059Zm0-2.81.054.053.005-.006-.059-.047Zm2.654 0-.053.053.006.005.047-.058Zm0 2.81-.053-.054-.006.007.059.047Zm.444.36c-.484.482-1.045.722-1.772.722v.15c.766 0 1.366-.256 1.878-.766l-.106-.106Zm.724-1.765c0 .724-.241 1.283-.724 1.765l.106.106c.511-.51.768-1.107.768-1.871h-.15Zm-.724-1.765c.483.482.724 1.041.724 1.765h.15c0-.764-.257-1.362-.768-1.872l-.106.107Zm-1.772-.722c.727 0 1.288.24 1.772.722l.106-.107c-.512-.51-1.112-.765-1.878-.765v.15Zm-1.771.722c.483-.482 1.045-.722 1.771-.722v-.15c-.766 0-1.366.255-1.877.765l.106.107Zm-.724 1.765c0-.724.24-1.283.724-1.765l-.106-.107c-.512.51-.769 1.108-.769 1.872h.151Zm.724 1.765c-.484-.482-.724-1.041-.724-1.765h-.151c0 .764.257 1.361.769 1.871l.106-.106Zm1.771.722c-.726 0-1.288-.24-1.771-.722l-.106.106c.511.51 1.111.766 1.877.766v-.15Zm-1.379-1.029c.343.342.859.6 1.38.6v-.15c-.474 0-.953-.237-1.274-.557l-.106.107Zm-.602-1.458c0 .592.17 1.114.608 1.463l.094-.117c-.391-.312-.552-.782-.552-1.346h-.15Zm.602-1.459a2.07 2.07 0 0 0-.602 1.459h.15c0-.557.239-1.034.558-1.352l-.106-.107Zm1.38-.6c-.513 0-1.035.171-1.385.607l.117.094c.313-.391.786-.551 1.268-.551v-.15Zm1.38.6c-.343-.342-.859-.6-1.38-.6v.15c.474 0 .954.238 1.274.557l.106-.107Zm.603 1.459c0-.593-.171-1.114-.609-1.464l-.094.117c.391.312.552.782.552 1.347h.151Zm-.603 1.458c.344-.343.603-.858.603-1.458h-.151c0 .556-.239 1.034-.558 1.351l.106.107Zm-1.38.6c.513 0 1.036-.17 1.386-.606l-.118-.094c-.313.39-.786.55-1.268.55v.15Z" fill="#001E87"/><path d="M120.283 236.594v-4.959h.747l2.404 3.885v-3.885h.664v4.959h-.664l-2.57-4.05v4.05h-.581Z" fill="#001E87" stroke="#001E87" stroke-width=".15"/><path fill-rule="evenodd" clip-rule="evenodd" d="M97.149 244.941v1.488h3.566c-.083.827-.415 1.488-.83 1.901-.497.496-1.326 1.074-2.736 1.074-2.24 0-3.898-1.735-3.898-3.967 0-2.231 1.742-3.967 3.898-3.967 1.16 0 2.073.496 2.737 1.075l1.078-1.075c-.913-.826-2.074-1.488-3.732-1.488-2.986 0-5.556 2.48-5.556 5.455 0 2.976 2.57 5.455 5.556 5.455 1.658 0 2.819-.496 3.815-1.57.995-.992 1.326-2.397 1.326-3.472 0-.33 0-.661-.083-.909h-5.141Zm9.204-1.075c-1.99 0-3.565 1.488-3.565 3.554a3.533 3.533 0 0 0 3.565 3.554c1.991 0 3.566-1.487 3.566-3.554 0-2.149-1.575-3.554-3.566-3.554Zm4.147 3.554c0-2.066 1.575-3.554 3.566-3.554 1.99 0 3.565 1.405 3.565 3.554 0 2.067-1.575 3.554-3.565 3.554a3.533 3.533 0 0 1-3.566-3.554Zm1.573-.081c0 1.239.912 2.149 1.99 2.149 1.078 0 1.99-.91 1.99-2.149 0-1.323-.912-2.149-1.99-2.149-1.078 0-1.99.909-1.99 2.149Zm-7.706 0c0 1.239.912 2.149 1.99 2.149 1.078 0 1.991-.91 1.991-2.149 0-1.323-.913-2.149-1.991-2.149s-1.99.909-1.99 2.149Zm27.443-3.473c1.824 0 2.653 1.405 2.985 2.232l.166.413-4.727 1.984c.415.744.912 1.074 1.742 1.074.829 0 1.327-.413 1.741-.992l1.161.827c-.332.578-1.327 1.57-2.902 1.57-1.991 0-3.483-1.57-3.483-3.554 0-2.149 1.492-3.554 3.317-3.554Zm-1.824 3.39c0-1.322 1.078-2.066 1.824-2.066.581 0 1.161.33 1.327.744l-3.151 1.322Zm-2.32 3.388h-1.575v-10.331h1.575v10.331Zm-4.062-6.034c-.415-.413-1.078-.826-1.908-.826-1.741 0-3.4 1.57-3.4 3.554 0 1.983 1.576 3.471 3.4 3.471.83 0 1.493-.413 1.825-.827h.083v.496c0 1.323-.747 2.066-1.908 2.066-.912 0-1.575-.661-1.741-1.239l-1.327.578c.415.909 1.41 2.066 3.151 2.066 1.825 0 3.317-1.074 3.317-3.636v-6.281h-1.492v.578Zm-3.817 2.729c0 1.239.912 2.149 1.991 2.149 1.078 0 1.907-.91 1.907-2.149 0-1.24-.829-2.149-1.907-2.149-1.079 0-1.991.909-1.991 2.149Zm22.227-7.026h-3.732v10.331h1.576v-3.884h2.156c1.741 0 3.4-1.24 3.4-3.224 0-1.983-1.659-3.223-3.4-3.223Zm-2.161 4.959h2.239c1.078 0 1.742-.909 1.825-1.818 0-.744-.664-1.736-1.825-1.736h-2.239v3.554Zm11.776-1.488c-1.161 0-2.322.496-2.736 1.57l1.409.579c.332-.579.83-.744 1.41-.744.829 0 1.576.496 1.659 1.322v.083c-.249-.166-.912-.413-1.576-.413-1.493 0-2.985.826-2.985 2.314 0 1.405 1.244 2.314 2.571 2.314 1.078 0 1.575-.496 1.99-.992h.083v.827h1.492v-3.968c-.165-1.818-1.575-2.892-3.317-2.892Zm-1.404 4.794c0 .661.746.909 1.244.909.829 0 1.658-.661 1.824-1.653l-.123-.05c-.362-.147-.69-.281-1.287-.281-.746 0-1.658.248-1.658 1.075Zm9.949-4.546-1.742 4.463h-.083l-1.824-4.463h-1.659l2.737 6.281-1.576 3.472h1.576l4.229-9.753h-1.658Zm-12.359 6.612h-1.576v-10.331h1.576v10.331Z" fill="#001E87"/><path d="M66.212 232.049c-.25.248-.415.662-.415 1.157v18.266c0 .496.166.909.415 1.157l.082.082 10.283-10.248v-.165l-10.365-10.249Z" fill="url(#a)"/><path d="m79.978 245.934-3.4-3.388v-.248l3.4-3.389.083.083 4.063 2.314c1.162.661 1.162 1.736 0 2.397l-4.146 2.231Z" fill="url(#b)"/><path d="m80.064 245.852-3.483-3.472-10.366 10.331c.414.414.995.414 1.741.083l12.108-6.942" fill="url(#c)"/><path d="m80.064 238.908-12.108-6.86c-.746-.413-1.327-.331-1.741.083l10.366 10.248 3.483-3.471Z" fill="url(#d)"/><path opacity=".2" d="m79.979 245.769-12.025 6.777c-.663.413-1.243.331-1.658 0l-.083.083.083.083c.414.33.995.413 1.658 0l12.025-6.943Z" fill="#000"/><path opacity=".12" d="M66.213 252.546c-.249-.248-.332-.661-.332-1.157v.083c0 .496.166.909.415 1.157v-.083h-.083ZM84.125 243.455l-4.147 2.314.083.083 4.064-2.315c.58-.33.83-.743.83-1.157 0 .414-.333.744-.83 1.075Z" fill="#000"/><path opacity=".25" d="m67.954 232.132 16.17 9.174c.498.33.83.661.83 1.074 0-.413-.249-.826-.83-1.157l-16.17-9.174c-1.16-.661-2.073-.083-2.073 1.24v.083c0-1.323.912-1.901 2.073-1.24Z" fill="#001E87"/><path d="M78.562 30.543H75.55v3.014h3.013v-3.014Z" fill="#000"/><path d="M81.574 30.543h-3.013v3.014h3.013v-3.014ZM96.644 30.543h-3.013v3.014h3.013v-3.014ZM102.668 30.543h-3.014v3.014h3.014v-3.014ZM114.732 30.543h-3.013v3.014h3.013v-3.014Z" fill="#000"/><path d="M117.736 30.543h-3.013v3.014h3.013v-3.014ZM126.789 30.543h-3.014v3.014h3.014v-3.014ZM132.801 30.543h-3.014v3.014h3.014v-3.014ZM141.85 30.543h-3.014v3.014h3.014v-3.014ZM150.885 30.543h-3.014v3.014h3.014v-3.014ZM78.562 33.557H75.55v3.013h3.013v-3.013ZM84.598 33.557h-3.014v3.013h3.014v-3.013ZM87.613 33.557H84.6v3.013h3.013v-3.013Z" fill="#000"/><path d="M90.617 33.557h-3.014v3.014h3.014v-3.014Z" fill="#000"/><path d="M93.629 33.557h-3.014v3.013h3.014v-3.013ZM96.644 33.557h-3.013v3.013h3.013v-3.013ZM99.658 33.557h-3.014v3.013h3.014v-3.013ZM105.682 33.557h-3.014v3.013h3.014v-3.013ZM111.717 33.557h-3.014v3.013h3.014v-3.013ZM126.789 33.557h-3.014v3.013h3.014v-3.013ZM138.836 33.557h-3.014v3.013h3.014v-3.013ZM144.855 33.557h-3.013v3.014h3.013v-3.014ZM147.871 33.557h-3.014v3.014h3.014v-3.014Z" fill="#000"/><path d="M150.885 33.557h-3.014v3.014h3.014v-3.014ZM78.562 36.57H75.55v3.013h3.013V36.57Z" fill="#000"/><path d="M81.574 36.57h-3.013v3.013h3.013v-3.014ZM87.613 36.57H84.6v3.013h3.013V36.57Z" fill="#000"/><path d="M90.617 36.57h-3.014v3.013h3.014v-3.014ZM105.682 36.57h-3.014v3.013h3.014V36.57ZM108.701 36.57h-3.013v3.013h3.013V36.57ZM111.717 36.57h-3.014v3.013h3.014V36.57ZM114.732 36.57h-3.013v3.013h3.013V36.57Z" fill="#000"/><path d="M117.736 36.57h-3.013v3.013h3.013v-3.014ZM123.766 36.57h-3.014v3.013h3.014v-3.014ZM135.82 36.57h-3.013v3.013h3.013V36.57ZM138.836 36.57h-3.014v3.013h3.014V36.57ZM84.598 39.584h-3.014v3.013h3.014v-3.014ZM90.617 39.584h-3.014v3.013h3.014v-3.014Z" fill="#000"/><path d="M93.629 39.584h-3.014v3.013h3.014v-3.014ZM99.658 39.584h-3.014v3.013h3.014v-3.014Z" fill="#000"/><path d="M102.668 39.584h-3.014v3.013h3.014v-3.014ZM120.752 39.584h-3.014v3.013h3.014v-3.014ZM135.82 39.584h-3.013v3.013h3.013v-3.014ZM141.85 39.584h-3.014v3.013h3.014v-3.014ZM78.562 42.596H75.55v3.014h3.013v-3.014Z" fill="#000"/><path d="M81.574 42.596h-3.013v3.013h3.013v-3.013ZM90.617 42.596h-3.014v3.013h3.014v-3.013Z" fill="#000"/><path d="M93.629 42.596h-3.014v3.014h3.014v-3.014ZM96.644 42.596h-3.013v3.014h3.013v-3.014ZM105.682 42.596h-3.014v3.014h3.014v-3.014ZM108.701 42.596h-3.013v3.014h3.013v-3.014ZM111.717 42.596h-3.014v3.014h3.014v-3.014ZM114.732 42.596h-3.013v3.014h3.013v-3.014ZM120.752 42.596h-3.014v3.013h3.014v-3.013ZM126.789 42.596h-3.014v3.014h3.014v-3.014ZM132.801 42.596h-3.014v3.014h3.014v-3.014ZM141.85 42.596h-3.014v3.014h3.014v-3.014Z" fill="#000"/><path d="M144.855 42.596h-3.013v3.013h3.013v-3.013ZM147.871 42.596h-3.014v3.013h3.014v-3.013Z" fill="#000"/><path d="M150.885 42.596h-3.014v3.013h3.014v-3.013ZM87.613 45.612H84.6v3.014h3.013v-3.014Z" fill="#000"/><path d="M90.617 45.612h-3.014v3.013h3.014v-3.013ZM96.644 45.612h-3.013v3.014h3.013v-3.014ZM99.658 45.612h-3.014v3.014h3.014v-3.014ZM105.682 45.612h-3.014v3.014h3.014v-3.014ZM108.701 45.612h-3.013v3.014h3.013v-3.014ZM117.736 45.612h-3.013v3.013h3.013v-3.013ZM123.766 45.612h-3.014v3.013h3.014v-3.013ZM126.789 45.612h-3.014v3.014h3.014v-3.014Z" fill="#000"/><path d="M129.795 45.612h-3.014v3.014h3.014v-3.014Z" fill="#000"/><path d="M132.801 45.612h-3.014v3.014h3.014v-3.014ZM138.836 45.612h-3.014v3.014h3.014v-3.014ZM144.855 45.612h-3.013v3.013h3.013v-3.013ZM78.562 48.627H75.55v3.013h3.013v-3.014ZM84.598 48.627h-3.014v3.013h3.014v-3.014ZM90.617 48.626h-3.014v3.014h3.014v-3.014ZM96.644 48.627h-3.013v3.013h3.013v-3.014ZM102.668 48.627h-3.014v3.013h3.014v-3.014ZM108.701 48.627h-3.013v3.013h3.013v-3.014ZM114.732 48.627h-3.013v3.013h3.013v-3.014ZM120.752 48.626h-3.014v3.014h3.014v-3.014ZM126.789 48.627h-3.014v3.013h3.014v-3.014Z" fill="#000"/><path d="M132.801 48.627h-3.014v3.013h3.014v-3.014ZM138.836 48.627h-3.014v3.013h3.014v-3.014ZM144.855 48.626h-3.013v3.014h3.013v-3.014ZM150.885 48.626h-3.014v3.014h3.014v-3.014ZM81.574 51.639h-3.013v3.013h3.013V51.64ZM84.598 51.638h-3.014v3.014h3.014v-3.014ZM90.617 51.639h-3.014v3.013h3.014V51.64ZM96.644 51.638h-3.013v3.014h3.013v-3.014ZM111.717 51.638h-3.014v3.014h3.014v-3.014ZM114.732 51.638h-3.013v3.014h3.013v-3.014Z" fill="#000"/><path d="M129.795 51.638h-3.014v3.014h3.014v-3.014ZM135.82 51.638h-3.013v3.014h3.013v-3.014ZM138.836 51.638h-3.014v3.014h3.014v-3.014ZM147.871 51.639h-3.014v3.013h3.014V51.64ZM54.455 54.65h-3.014v3.014h3.014V54.65ZM63.49 54.65h-3.013v3.014h3.013V54.65ZM66.51 54.65h-3.014v3.014h3.014V54.65ZM69.525 54.65h-3.013v3.014h3.013V54.65ZM72.539 54.65h-3.014v3.014h3.014V54.65Z" fill="#000"/><path d="M75.549 54.65h-3.014v3.014h3.014V54.65ZM78.562 54.65H75.55v3.014h3.013V54.65Z" fill="#000"/><path d="M81.574 54.65h-3.013v3.014h3.013V54.65ZM84.598 54.65h-3.014v3.014h3.014V54.65ZM87.613 54.65H84.6v3.014h3.013V54.65ZM102.668 54.65h-3.014v3.014h3.014V54.65ZM105.682 54.65h-3.014v3.014h3.014V54.65ZM126.789 54.65h-3.014v3.014h3.014V54.65ZM132.801 54.65h-3.014v3.014h3.014V54.65ZM135.82 54.65h-3.013v3.014h3.013V54.65ZM138.836 54.65h-3.014v3.014h3.014V54.65Z" fill="#000"/><path d="M141.85 54.65h-3.014v3.014h3.014V54.65Z" fill="#000"/><path d="M144.855 54.65h-3.013v3.014h3.013V54.65ZM147.871 54.65h-3.014v3.014h3.014V54.65ZM153.908 54.65h-3.013v3.014h3.013V54.65ZM162.939 54.65h-3.013v3.014h3.013V54.65ZM168.978 54.65h-3.013v3.014h3.013V54.65Z" fill="#000"/><path d="M171.984 54.65h-3.013v3.014h3.013V54.65Z" fill="#000"/><path d="M174.992 54.65h-3.013v3.014h3.013V54.65ZM60.484 57.665h-3.013v3.013h3.013v-3.013ZM66.51 57.664h-3.014v3.014h3.014v-3.014ZM69.525 57.664h-3.013v3.014h3.013v-3.014ZM81.574 57.665h-3.013v3.013h3.013v-3.013ZM90.617 57.665h-3.014v3.013h3.014v-3.013ZM96.644 57.664h-3.013v3.014h3.013v-3.014ZM99.658 57.664h-3.014v3.014h3.014v-3.014ZM105.682 57.664h-3.014v3.014h3.014v-3.014ZM111.717 57.664h-3.014v3.014h3.014v-3.014ZM120.752 57.665h-3.014v3.013h3.014v-3.013ZM123.766 57.665h-3.014v3.013h3.014v-3.013ZM126.789 57.664h-3.014v3.014h3.014v-3.014Z" fill="#000"/><path d="M129.795 57.664h-3.014v3.014h3.014v-3.014ZM135.82 57.664h-3.013v3.014h3.013v-3.014ZM141.85 57.664h-3.014v3.014h3.014v-3.014Z" fill="#000"/><path d="M144.855 57.665h-3.013v3.013h3.013v-3.013ZM147.871 57.665h-3.014v3.013h3.014v-3.013ZM159.928 57.664h-3.014v3.014h3.014v-3.014Z" fill="#000"/><path d="M162.939 57.664h-3.013v3.014h3.013v-3.014ZM171.984 57.664h-3.013v3.014h3.013v-3.014ZM66.51 60.677h-3.014v3.014h3.014v-3.014ZM69.525 60.677h-3.013v3.014h3.013v-3.014ZM72.539 60.677h-3.014v3.014h3.014v-3.014Z" fill="#000"/><path d="M75.549 60.677h-3.014v3.014h3.014v-3.014ZM78.562 60.677H75.55v3.014h3.013v-3.014Z" fill="#000"/><path d="M81.574 60.677h-3.013v3.013h3.013v-3.013ZM84.598 60.677h-3.014v3.014h3.014v-3.014ZM90.617 60.677h-3.014v3.013h3.014v-3.013ZM99.658 60.677h-3.014v3.014h3.014v-3.014Z" fill="#000"/><path d="M102.668 60.677h-3.014v3.014h3.014v-3.014ZM105.682 60.677h-3.014v3.014h3.014v-3.014ZM120.752 60.677h-3.014v3.013h3.014v-3.013ZM123.766 60.677h-3.014v3.013h3.014v-3.013ZM126.789 60.677h-3.014v3.014h3.014v-3.014ZM132.801 60.677h-3.014v3.014h3.014v-3.014ZM135.82 60.677h-3.013v3.014h3.013v-3.014ZM141.85 60.677h-3.014v3.014h3.014v-3.014ZM159.928 60.677h-3.014v3.014h3.014v-3.014ZM168.978 60.677h-3.013v3.013h3.013v-3.013Z" fill="#000"/><path d="M171.984 60.677h-3.013v3.014h3.013v-3.014ZM54.455 63.69h-3.014v3.014h3.014v-3.013ZM60.484 63.69h-3.013v3.014h3.013v-3.013ZM81.574 63.69h-3.013v3.014h3.013v-3.013ZM84.598 63.69h-3.014v3.014h3.014v-3.013ZM90.617 63.69h-3.014v3.014h3.014v-3.013Z" fill="#000"/><path d="M93.629 63.69h-3.014v3.014h3.014v-3.013ZM96.644 63.69h-3.013v3.014h3.013v-3.013ZM99.658 63.69h-3.014v3.014h3.014v-3.013Z" fill="#000"/><path d="M102.668 63.69h-3.014v3.014h3.014v-3.013ZM105.682 63.69h-3.014v3.014h3.014v-3.013ZM111.717 63.69h-3.014v3.014h3.014v-3.013ZM114.732 63.69h-3.013v3.014h3.013v-3.013ZM120.752 63.69h-3.014v3.014h3.014v-3.013ZM126.789 63.69h-3.014v3.014h3.014v-3.013ZM135.82 63.69h-3.013v3.014h3.013v-3.013ZM141.85 63.69h-3.014v3.014h3.014v-3.013ZM147.871 63.69h-3.014v3.014h3.014v-3.013Z" fill="#000"/><path d="M150.885 63.69h-3.014v3.014h3.014v-3.013ZM162.939 63.69h-3.013v3.014h3.013v-3.013ZM165.955 63.69h-3.014v3.014h3.014v-3.013ZM171.984 63.69h-3.013v3.014h3.013v-3.013ZM54.455 66.706h-3.014v3.013h3.014v-3.013ZM60.484 66.706h-3.013v3.013h3.013v-3.013ZM66.51 66.705h-3.014v3.014h3.014v-3.014ZM72.539 66.705h-3.014v3.014h3.014v-3.014Z" fill="#000"/><path d="M75.549 66.705h-3.014v3.014h3.014v-3.014ZM78.562 66.705H75.55v3.014h3.013v-3.014ZM84.598 66.705h-3.014v3.014h3.014v-3.014ZM93.629 66.705h-3.014v3.014h3.014v-3.014ZM96.644 66.705h-3.013v3.014h3.013v-3.014ZM102.668 66.705h-3.014v3.014h3.014v-3.014ZM108.701 66.705h-3.013v3.014h3.013v-3.014ZM120.752 66.706h-3.014v3.013h3.014v-3.013ZM123.766 66.706h-3.014v3.013h3.014v-3.013ZM126.789 66.705h-3.014v3.014h3.014v-3.014ZM132.801 66.705h-3.014v3.014h3.014v-3.014ZM144.855 66.706h-3.013v3.013h3.013v-3.013ZM150.885 66.706h-3.014v3.013h3.014v-3.013ZM156.924 66.705h-3.014v3.014h3.014v-3.014Z" fill="#000"/><path d="M159.928 66.705h-3.014v3.014h3.014v-3.014ZM171.984 66.705h-3.013v3.014h3.013v-3.014Z" fill="#000"/><path d="M174.992 66.705h-3.013v3.014h3.013v-3.014ZM54.455 69.72h-3.014v3.013h3.014v-3.014ZM57.469 69.72h-3.014v3.013h3.014v-3.014ZM66.51 69.72h-3.014v3.013h3.014V69.72ZM78.562 69.72H75.55v3.013h3.013V69.72Z" fill="#000"/><path d="M81.574 69.72h-3.013v3.013h3.013v-3.014ZM84.598 69.72h-3.014v3.013h3.014V69.72ZM87.613 69.72H84.6v3.013h3.013V69.72Z" fill="#000"/><path d="M90.617 69.72h-3.014v3.013h3.014v-3.014Z" fill="#000"/><path d="M93.629 69.72h-3.014v3.013h3.014V69.72ZM96.644 69.72h-3.013v3.013h3.013V69.72ZM99.658 69.72h-3.014v3.013h3.014V69.72Z" fill="#000"/><path d="M102.668 69.72h-3.014v3.013h3.014V69.72ZM111.717 69.72h-3.014v3.013h3.014V69.72ZM114.732 69.72h-3.013v3.013h3.013V69.72ZM120.752 69.72h-3.014v3.013h3.014v-3.014ZM129.795 69.72h-3.014v3.013h3.014V69.72ZM156.924 69.72h-3.014v3.013h3.014V69.72Z" fill="#000"/><path d="M159.928 69.72h-3.014v3.013h3.014V69.72Z" fill="#000"/><path d="M162.939 69.72h-3.013v3.013h3.013V69.72ZM168.978 69.72h-3.013v3.013h3.013v-3.014Z" fill="#000"/><path d="M171.984 69.72h-3.013v3.013h3.013V69.72Z" fill="#000"/><path d="M174.992 69.72h-3.013v3.013h3.013V69.72ZM54.455 72.733h-3.014v3.014h3.014v-3.014ZM60.484 72.733h-3.013v3.014h3.013v-3.014ZM66.51 72.734h-3.014v3.014h3.014v-3.014ZM72.539 72.734h-3.014v3.014h3.014v-3.014ZM84.598 72.734h-3.014v3.014h3.014v-3.014ZM90.617 72.733h-3.014v3.014h3.014v-3.014Z" fill="#000"/><path d="M93.629 72.734h-3.014v3.014h3.014v-3.014ZM96.644 72.734h-3.013v3.014h3.013v-3.014ZM102.668 72.734h-3.014v3.014h3.014v-3.014ZM111.717 72.734h-3.014v3.014h3.014v-3.014ZM114.732 72.734h-3.013v3.014h3.013v-3.014ZM123.766 72.733h-3.014v3.014h3.014v-3.014ZM126.789 72.734h-3.014v3.014h3.014v-3.014Z" fill="#000"/><path d="M129.795 72.734h-3.014v3.014h3.014v-3.014Z" fill="#000"/><path d="M132.801 72.734h-3.014v3.014h3.014v-3.014ZM135.82 72.734h-3.013v3.014h3.013v-3.014ZM141.85 72.734h-3.014v3.014h3.014v-3.014ZM147.871 72.733h-3.014v3.014h3.014v-3.014ZM153.908 72.734h-3.013v3.014h3.013v-3.014ZM156.924 72.734h-3.014v3.014h3.014v-3.014Z" fill="#000"/><path d="M159.928 72.734h-3.014v3.014h3.014v-3.014Z" fill="#000"/><path d="M162.939 72.734h-3.013v3.014h3.013v-3.014ZM165.955 72.734h-3.014v3.014h3.014v-3.014ZM168.978 72.733h-3.013v3.014h3.013v-3.014Z" fill="#000"/><path d="M171.984 72.734h-3.013v3.014h3.013v-3.014Z" fill="#000"/><path d="M174.992 72.734h-3.013v3.014h3.013v-3.014ZM57.469 75.748h-3.014v3.014h3.014v-3.014ZM60.484 75.748h-3.013v3.014h3.013v-3.014ZM66.51 75.748h-3.014v3.014h3.014v-3.014ZM78.562 75.748H75.55v3.014h3.013v-3.014Z" fill="#000"/><path d="M81.574 75.748h-3.013v3.014h3.013v-3.014ZM96.644 75.748h-3.013v3.014h3.013v-3.014ZM114.732 75.748h-3.013v3.014h3.013v-3.014ZM120.752 75.748h-3.014v3.014h3.014v-3.014ZM123.766 75.748h-3.014v3.014h3.014v-3.014ZM138.836 75.748h-3.014v3.014h3.014v-3.014ZM150.885 75.748h-3.014v3.014h3.014v-3.014ZM153.908 75.748h-3.013v3.014h3.013v-3.014ZM162.939 75.748h-3.013v3.014h3.013v-3.014ZM168.978 75.748h-3.013v3.014h3.013v-3.014Z" fill="#000"/><path d="M171.984 75.748h-3.013v3.014h3.013v-3.014ZM54.455 78.76h-3.014v3.013h3.014V78.76ZM57.469 78.76h-3.014v3.013h3.014V78.76ZM60.484 78.76h-3.013v3.013h3.013V78.76Z" fill="#000"/><path d="M63.49 78.76h-3.013v3.014h3.013V78.76ZM69.525 78.76h-3.013v3.014h3.013V78.76ZM72.539 78.76h-3.014v3.014h3.014V78.76ZM93.629 78.76h-3.014v3.014h3.014V78.76ZM99.658 78.76h-3.014v3.014h3.014V78.76Z" fill="#000"/><path d="M102.668 78.76h-3.014v3.014h3.014V78.76ZM108.701 78.76h-3.013v3.014h3.013V78.76ZM114.732 78.76h-3.013v3.014h3.013V78.76ZM120.752 78.76h-3.014v3.013h3.014V78.76ZM126.789 78.76h-3.014v3.014h3.014V78.76Z" fill="#000"/><path d="M129.795 78.76h-3.014v3.014h3.014V78.76ZM135.82 78.76h-3.013v3.014h3.013V78.76ZM138.836 78.76h-3.014v3.014h3.014V78.76ZM150.885 78.76h-3.014v3.013h3.014V78.76ZM153.908 78.76h-3.013v3.014h3.013V78.76ZM165.955 78.76h-3.014v3.014h3.014V78.76ZM171.984 78.76h-3.013v3.014h3.013V78.76ZM57.469 81.774h-3.014v3.013h3.014v-3.013ZM69.525 81.774h-3.013v3.013h3.013v-3.013ZM78.562 81.774H75.55v3.013h3.013v-3.013ZM84.598 81.774h-3.014v3.013h3.014v-3.013ZM90.617 81.774h-3.014v3.013h3.014v-3.013Z" fill="#000"/><path d="M93.629 81.774h-3.014v3.013h3.014v-3.013ZM96.644 81.774h-3.013v3.013h3.013v-3.013ZM99.658 81.774h-3.014v3.013h3.014v-3.013Z" fill="#000"/><path d="M102.668 81.774h-3.014v3.013h3.014v-3.013ZM105.682 81.774h-3.014v3.013h3.014v-3.013ZM111.717 81.774h-3.014v3.013h3.014v-3.013ZM114.732 81.774h-3.013v3.013h3.013v-3.013Z" fill="#000"/><path d="M117.736 81.774h-3.013v3.013h3.013v-3.013ZM120.752 81.774h-3.014v3.013h3.014v-3.013ZM135.82 81.774h-3.013v3.013h3.013v-3.013ZM138.836 81.774h-3.014v3.013h3.014v-3.013Z" fill="#000"/><path d="M141.85 81.774h-3.014v3.013h3.014v-3.013Z" fill="#000"/><path d="M144.855 81.774h-3.013v3.013h3.013v-3.013ZM147.871 81.774h-3.014v3.013h3.014v-3.013Z" fill="#000"/><path d="M150.885 81.774h-3.014v3.013h3.014v-3.013ZM153.908 81.774h-3.013v3.013h3.013v-3.013ZM162.939 81.774h-3.013v3.013h3.013v-3.013ZM165.955 81.774h-3.014v3.013h3.014v-3.013ZM171.984 81.774h-3.013v3.013h3.013v-3.013ZM54.455 84.787h-3.014V87.8h3.014v-3.013ZM60.484 84.787h-3.013V87.8h3.013v-3.013ZM66.51 84.786h-3.014V87.8h3.014v-3.014ZM72.539 84.786h-3.014V87.8h3.014v-3.014ZM87.613 84.786H84.6V87.8h3.013v-3.014ZM99.658 84.786h-3.014V87.8h3.014v-3.014ZM105.682 84.786h-3.014V87.8h3.014v-3.014ZM108.701 84.786h-3.013V87.8h3.013v-3.014ZM111.717 84.786h-3.014V87.8h3.014v-3.014ZM123.766 84.787h-3.014V87.8h3.014v-3.013ZM129.795 84.786h-3.014V87.8h3.014v-3.014Z" fill="#000"/><path d="M132.801 84.786h-3.014V87.8h3.014v-3.014ZM135.82 84.786h-3.013V87.8h3.013v-3.014ZM138.836 84.786h-3.014V87.8h3.014v-3.014ZM144.855 84.787h-3.013V87.8h3.013v-3.013ZM147.871 84.787h-3.014V87.8h3.014v-3.013ZM156.924 84.786h-3.014V87.8h3.014v-3.014Z" fill="#000"/><path d="M159.928 84.786h-3.014V87.8h3.014v-3.014Z" fill="#000"/><path d="M162.939 84.786h-3.013V87.8h3.013v-3.014ZM165.955 84.786h-3.014V87.8h3.014v-3.014ZM174.992 84.786h-3.013V87.8h3.013v-3.014ZM54.455 87.8h-3.014v3.014h3.014V87.8ZM60.484 87.8h-3.013v3.014h3.013V87.8ZM66.51 87.8h-3.014v3.014h3.014v-3.013ZM69.525 87.8h-3.013v3.014h3.013v-3.013ZM78.562 87.8H75.55v3.014h3.013v-3.013ZM84.598 87.8h-3.014v3.014h3.014v-3.013ZM90.617 87.8h-3.014v3.014h3.014V87.8ZM99.658 87.8h-3.014v3.014h3.014v-3.013ZM111.717 87.8h-3.014v3.014h3.014v-3.013ZM117.736 87.8h-3.013v3.014h3.013V87.8ZM126.789 87.8h-3.014v3.014h3.014v-3.013Z" fill="#000"/><path d="M129.795 87.8h-3.014v3.014h3.014v-3.013ZM138.836 87.8h-3.014v3.014h3.014v-3.013ZM147.871 87.8h-3.014v3.014h3.014V87.8Z" fill="#000"/><path d="M150.885 87.8h-3.014v3.014h3.014V87.8ZM162.939 87.8h-3.013v3.014h3.013v-3.013ZM165.955 87.8h-3.014v3.014h3.014v-3.013ZM168.978 87.8h-3.013v3.014h3.013V87.8Z" fill="#000"/><path d="M171.984 87.8h-3.013v3.014h3.013v-3.013Z" fill="#000"/><path d="M174.992 87.8h-3.013v3.014h3.013v-3.013ZM54.455 90.813h-3.014v3.014h3.014v-3.014ZM60.484 90.813h-3.013v3.014h3.013v-3.014ZM66.51 90.813h-3.014v3.013h3.014v-3.013ZM72.539 90.813h-3.014v3.013h3.014v-3.013Z" fill="#000"/><path d="M75.549 90.813h-3.014v3.013h3.014v-3.013ZM78.562 90.813H75.55v3.013h3.013v-3.013Z" fill="#000"/><path d="M81.574 90.813h-3.013v3.014h3.013v-3.014ZM84.598 90.813h-3.014v3.013h3.014v-3.013ZM87.613 90.813H84.6v3.013h3.013v-3.013Z" fill="#000"/><path d="M90.617 90.813h-3.014v3.014h3.014v-3.014Z" fill="#000"/><path d="M93.629 90.813h-3.014v3.013h3.014v-3.013ZM102.668 90.813h-3.014v3.013h3.014v-3.013ZM108.701 90.813h-3.013v3.013h3.013v-3.013ZM111.717 90.813h-3.014v3.013h3.014v-3.013ZM117.736 90.813h-3.013v3.014h3.013v-3.014ZM129.795 90.813h-3.014v3.013h3.014v-3.013ZM135.82 90.813h-3.013v3.013h3.013v-3.013ZM141.85 90.813h-3.014v3.013h3.014v-3.013ZM147.871 90.813h-3.014v3.014h3.014v-3.014Z" fill="#000"/><path d="M150.885 90.813h-3.014v3.014h3.014v-3.014ZM153.908 90.813h-3.013v3.013h3.013v-3.013ZM156.924 90.813h-3.014v3.013h3.014v-3.013Z" fill="#000"/><path d="M159.928 90.813h-3.014v3.013h3.014v-3.013ZM168.978 90.813h-3.013v3.014h3.013v-3.014ZM60.484 93.83h-3.013v3.013h3.013v-3.014ZM66.51 93.83h-3.014v3.013h3.014v-3.014ZM69.525 93.83h-3.013v3.013h3.013v-3.014ZM84.598 93.83h-3.014v3.013h3.014v-3.014ZM111.717 93.83h-3.014v3.013h3.014v-3.014ZM117.736 93.83h-3.013v3.013h3.013v-3.014ZM120.752 93.83h-3.014v3.013h3.014v-3.014ZM123.766 93.83h-3.014v3.013h3.014v-3.014ZM126.789 93.83h-3.014v3.013h3.014v-3.014ZM135.82 93.83h-3.013v3.013h3.013v-3.014ZM138.836 93.83h-3.014v3.013h3.014v-3.014Z" fill="#000"/><path d="M141.85 93.83h-3.014v3.013h3.014v-3.014Z" fill="#000"/><path d="M144.855 93.83h-3.013v3.013h3.013v-3.014ZM147.871 93.83h-3.014v3.013h3.014v-3.014ZM153.908 93.83h-3.013v3.013h3.013v-3.014ZM162.939 93.83h-3.013v3.013h3.013v-3.014ZM165.955 93.83h-3.014v3.013h3.014v-3.014ZM168.978 93.83h-3.013v3.013h3.013v-3.014ZM69.525 96.843h-3.013v3.013h3.013v-3.013ZM72.539 96.843h-3.014v3.013h3.014v-3.013ZM78.562 96.843H75.55v3.013h3.013v-3.013Z" fill="#000"/><path d="M81.574 96.843h-3.013v3.014h3.013v-3.014ZM90.617 96.843h-3.014v3.014h3.014v-3.014ZM99.658 96.843h-3.014v3.013h3.014v-3.013Z" fill="#000"/><path d="M102.668 96.843h-3.014v3.013h3.014v-3.013ZM105.682 96.843h-3.014v3.013h3.014v-3.013ZM108.701 96.843h-3.013v3.013h3.013v-3.013ZM114.732 96.843h-3.013v3.013h3.013v-3.013ZM120.752 96.843h-3.014v3.014h3.014v-3.014ZM123.766 96.843h-3.014v3.014h3.014v-3.014ZM135.82 96.843h-3.013v3.013h3.013v-3.013ZM138.836 96.843h-3.014v3.013h3.014v-3.013ZM159.928 96.843h-3.014v3.013h3.014v-3.013Z" fill="#000"/><path d="M162.939 96.843h-3.013v3.013h3.013v-3.013ZM165.955 96.843h-3.014v3.013h3.014v-3.013ZM54.455 99.856h-3.014v3.013h3.014v-3.013ZM57.469 99.856h-3.014v3.013h3.014v-3.013ZM60.484 99.856h-3.013v3.013h3.013v-3.013ZM66.51 99.856h-3.014v3.013h3.014v-3.013ZM69.525 99.856h-3.013v3.013h3.013v-3.013ZM75.549 99.856h-3.014v3.013h3.014v-3.013ZM81.574 99.856h-3.013v3.013h3.013v-3.013ZM96.644 99.856h-3.013v3.013h3.013v-3.013ZM99.658 99.856h-3.014v3.013h3.014v-3.013ZM105.682 99.856h-3.014v3.013h3.014v-3.013ZM108.701 99.856h-3.013v3.013h3.013v-3.013ZM111.717 99.856h-3.014v3.013h3.014v-3.013ZM114.732 99.856h-3.013v3.013h3.013v-3.013ZM120.752 99.856h-3.014v3.013h3.014v-3.013ZM126.789 99.856h-3.014v3.013h3.014v-3.013ZM132.801 99.856h-3.014v3.013h3.014v-3.013ZM135.82 99.856h-3.013v3.013h3.013v-3.013ZM141.85 99.856h-3.014v3.013h3.014v-3.013Z" fill="#000"/><path d="M144.855 99.856h-3.013v3.013h3.013v-3.013ZM147.871 99.856h-3.014v3.013h3.014v-3.013ZM153.908 99.856h-3.013v3.013h3.013v-3.013ZM156.924 99.856h-3.014v3.013h3.014v-3.013ZM162.939 99.856h-3.013v3.013h3.013v-3.013ZM171.984 99.856h-3.013v3.013h3.013v-3.013ZM60.484 102.867h-3.013v3.014h3.013v-3.014ZM69.525 102.868h-3.013v3.013h3.013v-3.013ZM72.539 102.868h-3.014v3.013h3.014v-3.013Z" fill="#000"/><path d="M75.549 102.868h-3.014v3.013h3.014v-3.013ZM96.644 102.868h-3.013v3.013h3.013v-3.013ZM99.658 102.868h-3.014v3.013h3.014v-3.013ZM111.717 102.868h-3.014v3.013h3.014v-3.013ZM114.732 102.868h-3.013v3.013h3.013v-3.013ZM123.766 102.867h-3.014v3.014h3.014v-3.014ZM135.82 102.868h-3.013v3.013h3.013v-3.013ZM138.836 102.868h-3.014v3.013h3.014v-3.013ZM147.871 102.867h-3.014v3.014h3.014v-3.014Z" fill="#000"/><path d="M150.885 102.867h-3.014v3.014h3.014v-3.014ZM153.908 102.868h-3.013v3.013h3.013v-3.013ZM156.924 102.868h-3.014v3.013h3.014v-3.013Z" fill="#000"/><path d="M159.928 102.868h-3.014v3.013h3.014v-3.013ZM171.984 102.868h-3.013v3.013h3.013v-3.013ZM66.51 105.882h-3.014v3.014h3.014v-3.014ZM69.525 105.882h-3.013v3.014h3.013v-3.014ZM90.617 105.882h-3.014v3.013h3.014v-3.013ZM102.668 105.882h-3.014v3.014h3.014v-3.014ZM108.701 105.882h-3.013v3.014h3.013v-3.014ZM114.732 105.882h-3.013v3.014h3.013v-3.014ZM123.766 105.882h-3.014v3.013h3.014v-3.013ZM129.795 105.882h-3.014v3.014h3.014v-3.014Z" fill="#000"/><path d="M132.801 105.882h-3.014v3.014h3.014v-3.014ZM135.82 105.882h-3.013v3.014h3.013v-3.014ZM138.836 105.882h-3.014v3.014h3.014v-3.014ZM150.885 105.882h-3.014v3.013h3.014v-3.013ZM153.908 105.882h-3.013v3.014h3.013v-3.014ZM156.924 105.882h-3.014v3.014h3.014v-3.014Z" fill="#000"/><path d="M159.928 105.882h-3.014v3.014h3.014v-3.014Z" fill="#000"/><path d="M162.939 105.882h-3.013v3.014h3.013v-3.014ZM168.978 105.882h-3.013v3.013h3.013v-3.013Z" fill="#000"/><path d="M171.984 105.882h-3.013v3.014h3.013v-3.014Z" fill="#000"/><path d="M174.992 105.882h-3.013v3.014h3.013v-3.014ZM54.455 108.894h-3.014v3.014h3.014v-3.014ZM57.469 108.894h-3.014v3.014h3.014v-3.014ZM66.51 108.894h-3.014v3.013h3.014v-3.013ZM69.525 108.894h-3.013v3.013h3.013v-3.013ZM72.539 108.894h-3.014v3.013h3.014v-3.013ZM78.562 108.894H75.55v3.013h3.013v-3.013Z" fill="#000"/><path d="M81.574 108.894h-3.013v3.014h3.013v-3.014ZM84.598 108.894h-3.014v3.013h3.014v-3.013ZM90.617 108.894h-3.014v3.014h3.014v-3.014ZM96.644 108.894h-3.013v3.013h3.013v-3.013ZM99.658 108.894h-3.014v3.013h3.014v-3.013ZM108.701 108.894h-3.013v3.013h3.013v-3.013ZM111.717 108.894h-3.014v3.013h3.014v-3.013ZM120.752 108.894h-3.014v3.014h3.014v-3.014ZM129.795 108.894h-3.014v3.013h3.014v-3.013Z" fill="#000"/><path d="M132.801 108.894h-3.014v3.013h3.014v-3.013ZM135.82 108.894h-3.013v3.013h3.013v-3.013ZM144.855 108.894h-3.013v3.014h3.013v-3.014ZM147.871 108.894h-3.014v3.014h3.014v-3.014Z" fill="#000"/><path d="M150.885 108.894h-3.014v3.014h3.014v-3.014ZM156.924 108.894h-3.014v3.013h3.014v-3.013Z" fill="#000"/><path d="M159.928 108.894h-3.014v3.013h3.014v-3.013ZM165.955 108.894h-3.014v3.013h3.014v-3.013ZM171.984 108.894h-3.013v3.013h3.013v-3.013Z" fill="#000"/><path d="M174.992 108.894h-3.013v3.013h3.013v-3.013ZM54.455 111.908h-3.014v3.014h3.014v-3.014ZM57.469 111.908h-3.014v3.013h3.014v-3.013ZM60.484 111.908h-3.013v3.013h3.013v-3.013ZM66.51 111.908h-3.014v3.014h3.014v-3.014ZM81.574 111.908h-3.013v3.013h3.013v-3.013ZM87.613 111.908H84.6v3.014h3.013v-3.014ZM93.629 111.908h-3.014v3.014h3.014v-3.014ZM99.658 111.908h-3.014v3.014h3.014v-3.014Z" fill="#000"/><path d="M102.668 111.908h-3.014v3.014h3.014v-3.014ZM108.701 111.908h-3.013v3.014h3.013v-3.014ZM120.752 111.908h-3.014v3.013h3.014v-3.013ZM126.789 111.908h-3.014v3.014h3.014v-3.014ZM132.801 111.908h-3.014v3.014h3.014v-3.014ZM138.836 111.908h-3.014v3.014h3.014v-3.014ZM147.871 111.908h-3.014v3.014h3.014v-3.014ZM156.924 111.908h-3.014v3.014h3.014v-3.014Z" fill="#000"/><path d="M159.928 111.908h-3.014v3.014h3.014v-3.014Z" fill="#000"/><path d="M162.939 111.908h-3.013v3.014h3.013v-3.014ZM165.955 111.908h-3.014v3.014h3.014v-3.014ZM168.978 111.908h-3.013v3.013h3.013v-3.013Z" fill="#000"/><path d="M171.984 111.908h-3.013v3.014h3.013v-3.014ZM57.469 114.922h-3.014v3.014h3.014v-3.014ZM60.484 114.922h-3.013v3.014h3.013v-3.014Z" fill="#000"/><path d="M63.49 114.923h-3.013v3.013h3.013v-3.013ZM66.51 114.923h-3.014v3.013h3.014v-3.013ZM72.539 114.923h-3.014v3.013h3.014v-3.013ZM81.574 114.922h-3.013v3.014h3.013v-3.014ZM93.629 114.923h-3.014v3.013h3.014v-3.013ZM96.644 114.923h-3.013v3.013h3.013v-3.013ZM102.668 114.923h-3.014v3.013h3.014v-3.013ZM114.732 114.923h-3.013v3.013h3.013v-3.013ZM123.766 114.922h-3.014v3.014h3.014v-3.014ZM129.795 114.923h-3.014v3.013h3.014v-3.013Z" fill="#000"/><path d="M132.801 114.923h-3.014v3.013h3.014v-3.013ZM144.855 114.922h-3.013v3.014h3.013v-3.014ZM147.871 114.922h-3.014v3.014h3.014v-3.014ZM153.908 114.923h-3.013v3.013h3.013v-3.013ZM159.928 114.923h-3.014v3.013h3.014v-3.013ZM165.955 114.923h-3.014v3.013h3.014v-3.013ZM171.984 114.923h-3.013v3.013h3.013v-3.013ZM54.455 117.937h-3.014v3.013h3.014v-3.013ZM57.469 117.937h-3.014v3.013h3.014v-3.013ZM60.484 117.937h-3.013v3.013h3.013v-3.013ZM69.525 117.937h-3.013v3.013h3.013v-3.013ZM75.549 117.937h-3.014v3.013h3.014v-3.013ZM96.644 117.937h-3.013v3.013h3.013v-3.013ZM99.658 117.937h-3.014v3.013h3.014v-3.013Z" fill="#000"/><path d="M102.668 117.937h-3.014v3.013h3.014v-3.013ZM105.682 117.937h-3.014v3.013h3.014v-3.013ZM108.701 117.937h-3.013v3.013h3.013v-3.013ZM114.732 117.937h-3.013v3.013h3.013v-3.013ZM123.766 117.937h-3.014v3.013h3.014v-3.013ZM126.789 117.937h-3.014v3.013h3.014v-3.013ZM132.801 117.937h-3.014v3.013h3.014v-3.013ZM141.85 117.937h-3.014v3.013h3.014v-3.013ZM147.871 117.937h-3.014v3.013h3.014v-3.013ZM153.908 117.937h-3.013v3.013h3.013v-3.013ZM162.939 117.937h-3.013v3.013h3.013v-3.013ZM171.984 117.937h-3.013v3.013h3.013v-3.013ZM54.455 120.951h-3.014v3.013h3.014v-3.013ZM57.469 120.951h-3.014v3.013h3.014v-3.013ZM60.484 120.951h-3.013v3.013h3.013v-3.013ZM66.51 120.95h-3.014v3.014h3.014v-3.014ZM69.525 120.95h-3.013v3.014h3.013v-3.014ZM72.539 120.95h-3.014v3.014h3.014v-3.014Z" fill="#000"/><path d="M75.549 120.95h-3.014v3.014h3.014v-3.014ZM90.617 120.951h-3.014v3.013h3.014v-3.013ZM102.668 120.95h-3.014v3.014h3.014v-3.014ZM108.701 120.95h-3.013v3.014h3.013v-3.014ZM114.732 120.95h-3.013v3.014h3.013v-3.014Z" fill="#000"/><path d="M117.736 120.951h-3.013v3.013h3.013v-3.013ZM123.766 120.951h-3.014v3.013h3.014v-3.013ZM132.801 120.95h-3.014v3.014h3.014v-3.014ZM138.836 120.95h-3.014v3.014h3.014v-3.014ZM144.855 120.951h-3.013v3.013h3.013v-3.013ZM147.871 120.951h-3.014v3.013h3.014v-3.013ZM153.908 120.95h-3.013v3.014h3.013v-3.014ZM168.978 120.951h-3.013v3.013h3.013v-3.013Z" fill="#000"/><path d="M171.984 120.95h-3.013v3.014h3.013v-3.014Z" fill="#000"/><path d="M174.992 120.95h-3.013v3.014h3.013v-3.014ZM54.455 123.965h-3.014v3.013h3.014v-3.013ZM57.469 123.965h-3.014v3.013h3.014v-3.013ZM60.484 123.965h-3.013v3.013h3.013v-3.013ZM75.549 123.965h-3.014v3.014h3.014v-3.014ZM81.574 123.965h-3.013v3.013h3.013v-3.013ZM84.598 123.965h-3.014v3.014h3.014v-3.014ZM87.613 123.965H84.6v3.014h3.013v-3.014ZM93.629 123.965h-3.014v3.014h3.014v-3.014ZM96.644 123.965h-3.013v3.014h3.013v-3.014ZM99.658 123.965h-3.014v3.014h3.014v-3.014Z" fill="#000"/><path d="M102.668 123.965h-3.014v3.014h3.014v-3.014ZM108.701 123.965h-3.013v3.014h3.013v-3.014ZM120.752 123.965h-3.014v3.013h3.014v-3.013ZM126.789 123.965h-3.014v3.014h3.014v-3.014Z" fill="#000"/><path d="M129.795 123.965h-3.014v3.014h3.014v-3.014Z" fill="#000"/><path d="M132.801 123.965h-3.014v3.014h3.014v-3.014ZM135.82 123.965h-3.013v3.014h3.013v-3.014ZM138.836 123.965h-3.014v3.014h3.014v-3.014ZM156.924 123.965h-3.014v3.014h3.014v-3.014Z" fill="#000"/><path d="M159.928 123.965h-3.014v3.014h3.014v-3.014ZM165.955 123.965h-3.014v3.014h3.014v-3.014ZM168.978 123.965h-3.013v3.013h3.013v-3.013Z" fill="#000"/><path d="M171.984 123.965h-3.013v3.014h3.013v-3.014ZM54.455 126.977h-3.014v3.014h3.014v-3.014ZM57.469 126.977h-3.014v3.014h3.014v-3.014ZM60.484 126.977h-3.013v3.014h3.013v-3.014Z" fill="#000"/><path d="M63.49 126.977h-3.013v3.013h3.013v-3.013ZM72.539 126.977h-3.014v3.013h3.014v-3.013ZM78.562 126.977H75.55v3.013h3.013v-3.013ZM84.598 126.977h-3.014v3.013h3.014v-3.013ZM87.613 126.977H84.6v3.013h3.013v-3.013Z" fill="#000"/><path d="M90.617 126.977h-3.014v3.014h3.014v-3.014ZM105.682 126.977h-3.014v3.013h3.014v-3.013ZM126.789 126.977h-3.014v3.013h3.014v-3.013ZM141.85 126.977h-3.014v3.013h3.014v-3.013Z" fill="#000"/><path d="M144.855 126.977h-3.013v3.014h3.013v-3.014ZM147.871 126.977h-3.014v3.014h3.014v-3.014Z" fill="#000"/><path d="M150.885 126.977h-3.014v3.014h3.014v-3.014ZM153.908 126.977h-3.013v3.013h3.013v-3.013ZM156.924 126.977h-3.014v3.013h3.014v-3.013Z" fill="#000"/><path d="M159.928 126.977h-3.014v3.013h3.014v-3.013Z" fill="#000"/><path d="M162.939 126.977h-3.013v3.013h3.013v-3.013ZM165.955 126.977h-3.014v3.013h3.014v-3.013ZM168.978 126.977h-3.013v3.014h3.013v-3.014ZM174.992 126.977h-3.013v3.013h3.013v-3.013ZM78.562 129.991H75.55v3.014h3.013v-3.014ZM87.613 129.991H84.6v3.014h3.013v-3.014Z" fill="#000"/><path d="M90.617 129.992h-3.014v3.013h3.014v-3.013ZM102.668 129.991h-3.014v3.014h3.014v-3.014ZM105.682 129.991h-3.014v3.014h3.014v-3.014ZM108.701 129.991h-3.013v3.014h3.013v-3.014ZM111.717 129.991h-3.014v3.014h3.014v-3.014ZM120.752 129.992h-3.014v3.013h3.014v-3.013ZM123.766 129.992h-3.014v3.013h3.014v-3.013ZM129.795 129.991h-3.014v3.014h3.014v-3.014ZM135.82 129.991h-3.013v3.014h3.013v-3.014ZM138.836 129.991h-3.014v3.014h3.014v-3.014ZM147.871 129.992h-3.014v3.013h3.014v-3.013Z" fill="#000"/><path d="M150.885 129.992h-3.014v3.013h3.014v-3.013ZM162.939 129.991h-3.013v3.014h3.013v-3.014ZM165.955 129.991h-3.014v3.014h3.014v-3.014ZM168.978 129.992h-3.013v3.013h3.013v-3.013ZM78.562 133.006H75.55v3.013h3.013v-3.013Z" fill="#000"/><path d="M81.574 133.005h-3.013v3.014h3.013v-3.014ZM84.598 133.006h-3.014v3.013h3.014v-3.013ZM96.644 133.006h-3.013v3.013h3.013v-3.013ZM99.658 133.006h-3.014v3.013h3.014v-3.013ZM114.732 133.006h-3.013v3.013h3.013v-3.013Z" fill="#000"/><path d="M117.736 133.005h-3.013v3.014h3.013v-3.014ZM123.766 133.005h-3.014v3.014h3.014v-3.014ZM129.795 133.006h-3.014v3.013h3.014v-3.013ZM135.82 133.006h-3.013v3.013h3.013v-3.013ZM144.855 133.005h-3.013v3.014h3.013v-3.014ZM147.871 133.005h-3.014v3.014h3.014v-3.014Z" fill="#000"/><path d="M150.885 133.005h-3.014v3.014h3.014v-3.014ZM156.924 133.006h-3.014v3.013h3.014v-3.013ZM162.939 133.006h-3.013v3.013h3.013v-3.013ZM171.984 133.006h-3.013v3.013h3.013v-3.013ZM78.562 136.018H75.55v3.014h3.013v-3.014ZM87.613 136.018H84.6v3.014h3.013v-3.014Z" fill="#000"/><path d="M90.617 136.018h-3.014v3.014h3.014v-3.014Z" fill="#000"/><path d="M93.629 136.018h-3.014v3.014h3.014v-3.014ZM102.668 136.018h-3.014v3.014h3.014v-3.014ZM108.701 136.018h-3.013v3.014h3.013v-3.014ZM111.717 136.018h-3.014v3.014h3.014v-3.014ZM123.766 136.018h-3.014v3.014h3.014v-3.014ZM126.789 136.018h-3.014v3.014h3.014v-3.014Z" fill="#000"/><path d="M129.795 136.018h-3.014v3.014h3.014v-3.014ZM138.836 136.018h-3.014v3.014h3.014v-3.014Z" fill="#000"/><path d="M141.85 136.018h-3.014v3.014h3.014v-3.014Z" fill="#000"/><path d="M144.855 136.018h-3.013v3.014h3.013v-3.014ZM150.885 136.018h-3.014v3.014h3.014v-3.014ZM162.939 136.018h-3.013v3.014h3.013v-3.014ZM171.984 136.018h-3.013v3.014h3.013v-3.014Z" fill="#000"/><path d="M174.992 136.018h-3.013v3.014h3.013v-3.014ZM78.562 139.03H75.55v3.014h3.013v-3.014Z" fill="#000"/><path d="M81.574 139.03h-3.013v3.013h3.013v-3.013ZM87.613 139.03H84.6v3.014h3.013v-3.014ZM93.629 139.03h-3.014v3.014h3.014v-3.014ZM96.644 139.03h-3.013v3.014h3.013v-3.014ZM105.682 139.03h-3.014v3.014h3.014v-3.014ZM111.717 139.03h-3.014v3.014h3.014v-3.014ZM114.732 139.03h-3.013v3.014h3.013v-3.014Z" fill="#000"/><path d="M117.736 139.03h-3.013v3.013h3.013v-3.013ZM120.752 139.03h-3.014v3.013h3.014v-3.013ZM129.795 139.03h-3.014v3.014h3.014v-3.014ZM135.82 139.03h-3.013v3.014h3.013v-3.014ZM141.85 139.03h-3.014v3.014h3.014v-3.014Z" fill="#000"/><path d="M144.855 139.03h-3.013v3.013h3.013v-3.013ZM147.871 139.03h-3.014v3.013h3.014v-3.013Z" fill="#000"/><path d="M150.885 139.03h-3.014v3.013h3.014v-3.013ZM153.908 139.03h-3.013v3.014h3.013v-3.014ZM156.924 139.03h-3.014v3.014h3.014v-3.014Z" fill="#000"/><path d="M159.928 139.03h-3.014v3.014h3.014v-3.014Z" fill="#000"/><path d="M162.939 139.03h-3.013v3.014h3.013v-3.014ZM171.984 139.03h-3.013v3.014h3.013v-3.014ZM78.562 142.046H75.55v3.014h3.013v-3.014ZM87.613 142.046H84.6v3.014h3.013v-3.014Z" fill="#000"/><path d="M90.617 142.046h-3.014v3.013h3.014v-3.013Z" fill="#000"/><path d="M93.629 142.046h-3.014v3.014h3.014v-3.014ZM96.644 142.046h-3.013v3.014h3.013v-3.014ZM108.701 142.046h-3.013v3.014h3.013v-3.014ZM114.732 142.046h-3.013v3.014h3.013v-3.014ZM120.752 142.046h-3.014v3.013h3.014v-3.013ZM123.766 142.046h-3.014v3.013h3.014v-3.013ZM126.789 142.046h-3.014v3.014h3.014v-3.014ZM132.801 142.046h-3.014v3.014h3.014v-3.014ZM135.82 142.046h-3.013v3.014h3.013v-3.014ZM144.855 142.046h-3.013v3.013h3.013v-3.013ZM147.871 142.046h-3.014v3.013h3.014v-3.013ZM159.928 142.046h-3.014v3.014h3.014v-3.014ZM165.955 142.046h-3.014v3.014h3.014v-3.014ZM168.978 142.046h-3.013v3.013h3.013v-3.013Z" fill="#000"/><path d="M171.984 142.046h-3.013v3.014h3.013v-3.014ZM81.574 145.06h-3.013v3.014h3.013v-3.014ZM87.613 145.06H84.6v3.014h3.013v-3.014ZM96.644 145.06h-3.013v3.014h3.013v-3.014ZM99.658 145.06h-3.014v3.014h3.014v-3.014Z" fill="#000"/><path d="M102.668 145.06h-3.014v3.014h3.014v-3.014ZM108.701 145.06h-3.013v3.014h3.013v-3.014ZM111.717 145.06h-3.014v3.014h3.014v-3.014ZM114.732 145.06h-3.013v3.014h3.013v-3.014Z" fill="#000"/><path d="M117.736 145.06h-3.013v3.014h3.013v-3.014ZM129.795 145.06h-3.014v3.014h3.014v-3.014Z" fill="#000"/><path d="M132.801 145.06h-3.014v3.014h3.014v-3.014ZM135.82 145.06h-3.013v3.014h3.013v-3.014ZM141.85 145.06h-3.014v3.014h3.014v-3.014Z" fill="#000"/><path d="M144.855 145.06h-3.013v3.014h3.013v-3.014ZM147.871 145.06h-3.014v3.014h3.014v-3.014ZM153.908 145.06h-3.013v3.014h3.013v-3.014ZM159.928 145.06h-3.014v3.014h3.014v-3.014Z" fill="#000"/><path d="M162.939 145.06h-3.013v3.014h3.013v-3.014ZM165.955 145.06h-3.014v3.014h3.014v-3.014ZM168.978 145.06h-3.013v3.014h3.013v-3.014ZM174.992 145.06h-3.013v3.014h3.013v-3.014ZM81.574 148.072h-3.013v3.014h3.013v-3.014ZM84.598 148.073h-3.014v3.014h3.014v-3.014ZM87.613 148.073H84.6v3.014h3.013v-3.014ZM96.644 148.073h-3.013v3.014h3.013v-3.014ZM105.682 148.073h-3.014v3.014h3.014v-3.014ZM114.732 148.073h-3.013v3.014h3.013v-3.014ZM126.789 148.073h-3.014v3.014h3.014v-3.014ZM132.801 148.073h-3.014v3.014h3.014v-3.014ZM135.82 148.073h-3.013v3.014h3.013v-3.014ZM138.836 148.073h-3.014v3.014h3.014v-3.014ZM147.871 148.072h-3.014v3.014h3.014v-3.014ZM153.908 148.073h-3.013v3.014h3.013v-3.014Z" fill="#000"/><path d="M162.939 148.073h-3.013v3.014h3.013v-3.014ZM165.955 148.073h-3.014v3.014h3.014v-3.014ZM168.978 148.072h-3.013v3.014h3.013v-3.014ZM174.992 148.073h-3.013v3.014h3.013v-3.014ZM78.562 151.084H75.55v3.014h3.013v-3.014ZM84.598 151.084h-3.014v3.014h3.014v-3.014ZM87.613 151.084H84.6v3.014h3.013v-3.014Z" fill="#000"/><path d="M90.617 151.084h-3.014v3.014h3.014v-3.014ZM96.644 151.084h-3.013v3.014h3.013v-3.014ZM102.668 151.084h-3.014v3.014h3.014v-3.014ZM105.682 151.084h-3.014v3.014h3.014v-3.014ZM120.752 151.084h-3.014v3.014h3.014v-3.014ZM123.766 151.084h-3.014v3.014h3.014v-3.014ZM126.789 151.084h-3.014v3.014h3.014v-3.014Z" fill="#000"/><path d="M129.795 151.084h-3.014v3.014h3.014v-3.014ZM135.82 151.084h-3.013v3.014h3.013v-3.014ZM147.871 151.084h-3.014v3.014h3.014v-3.014Z" fill="#000"/><path d="M150.885 151.084h-3.014v3.014h3.014v-3.014ZM156.924 151.084h-3.014v3.014h3.014v-3.014ZM162.939 151.084h-3.013v3.014h3.013v-3.014ZM69.372 30.543H51.441V51.638H72.536V30.543h-3.164Zm0 17.93H54.606V33.708h14.766v14.767ZM171.839 30.543h-17.931V51.638H175.003V30.543h-3.164Zm0 17.93h-14.767V33.708h14.767v14.767ZM69.372 133.004H51.441V154.099H72.536V133.004h-3.164Zm0 17.931H54.606v-14.767h14.766v14.767Z" fill="#000"/><path d="M66.511 36.57h-9.04v9.04h9.04v-9.04ZM168.966 36.57h-9.04v9.04h9.04v-9.04ZM66.511 139.03h-9.04v9.04h9.04v-9.04Z" fill="#000"/><defs><linearGradient id="a" x1="72.046" y1="219.712" x2="55.578" y2="224.18" gradientUnits="userSpaceOnUse"><stop stop-color="#00A0FF"/><stop offset=".007" stop-color="#00A1FF"/><stop offset=".26" stop-color="#00BEFF"/><stop offset=".512" stop-color="#00D2FF"/><stop offset=".76" stop-color="#00DFFF"/><stop offset="1" stop-color="#00E3FF"/></linearGradient><linearGradient id="b" x1="85.646" y1="234.008" x2="65.58" y2="234.008" gradientUnits="userSpaceOnUse"><stop stop-color="#FFE000"/><stop offset=".409" stop-color="#FFBD00"/><stop offset=".775" stop-color="orange"/><stop offset="1" stop-color="#FF9C00"/></linearGradient><linearGradient id="c" x1="65.952" y1="237.02" x2="52.778" y2="259.212" gradientUnits="userSpaceOnUse"><stop stop-color="#FF3A44"/><stop offset="1" stop-color="#C31162"/></linearGradient><linearGradient id="d" x1="58.157" y1="229.221" x2="63.993" y2="239.144" gradientUnits="userSpaceOnUse"><stop stop-color="#32A071"/><stop offset=".069" stop-color="#2DA771"/><stop offset=".476" stop-color="#15CF74"/><stop offset=".801" stop-color="#06E775"/><stop offset="1" stop-color="#00F076"/></linearGradient></defs></svg>
