<svg width="370" height="354" viewBox="0 0 370 354" fill="none" xmlns="http://www.w3.org/2000/svg"><rect width="369.565" height="353.064" rx="18.448" fill="#fff"/><rect x="33.261" y="275.428" width="303.043" height="44.364" rx="22.182" fill="#F2F2F2"/><path d="M166.987 303.367v-7.276h.103l4.584 7.276h2.958v-10.13h-2.189v7.276h-.103l-4.584-7.276h-2.958v10.13h2.189Zm12.579-4.451h4.451v-1.745h-4.451v-2.011h6.107v-1.923h-8.325v10.13h8.577v-1.922h-6.359v-2.529Zm9.433 4.436 2.381-3.43h.163l2.277 3.445h2.647l-3.49-5.072 3.475-5.058h-2.558l-2.351 3.579h-.148l-2.322-3.579h-2.662l3.549 5.058-3.534 5.057h2.573Zm7.513-10.115v1.923h3.623v8.207h2.204v-8.207h3.623v-1.923h-9.45Z" fill="#8C9091"/><path d="M64.066 46.223h-7.764V40.08h-2.861v15.194h2.861V48.62h7.764v6.654h2.861V40.08h-2.861v6.144Zm5.81 3.483c0 1.774.51 3.194 1.552 4.259 1.043 1.087 2.418 1.619 4.104 1.619s3.039-.532 4.082-1.62c1.042-1.064 1.575-2.484 1.575-4.258 0-1.753-.533-3.172-1.575-4.26-1.043-1.064-2.396-1.618-4.082-1.618s-3.061.554-4.104 1.619c-1.042 1.087-1.552 2.506-1.552 4.259Zm2.817 0c0-1.02.244-1.841.732-2.44.488-.6 1.175-.91 2.107-.91.865 0 1.553.289 2.063.865.51.577.776 1.398.776 2.485 0 1.042-.244 1.863-.732 2.462-.488.621-1.175.91-2.107.91-.887 0-1.575-.289-2.085-.866-.51-.576-.754-1.397-.754-2.506Zm12.399 5.567h3.06c1.132-4.57 1.753-7.076 1.864-7.497h.222l1.907 7.497h3.195l2.795-11.135h-2.75a642.651 642.651 0 0 0-1.687 7.83h-.2c-.354-1.508-.931-3.97-1.73-7.409h-3.06a314.669 314.669 0 0 0-1.775 7.41h-.2c-.4-1.82-.954-4.415-1.686-7.831h-2.75l2.795 11.135Zm23.881 0v-6.787a2.972 2.972 0 0 1 .91-1.553 2.321 2.321 0 0 1 1.553-.577c1.242 0 1.885.71 1.885 2.085v6.832h2.773v-6.81a2.814 2.814 0 0 1 .887-1.53 2.321 2.321 0 0 1 1.553-.577c.577 0 1.042.2 1.397.577.333.4.511.932.511 1.642v6.698h2.75v-7.275c0-1.265-.355-2.263-1.02-3.017-.666-.754-1.553-1.131-2.618-1.131-.843 0-1.553.221-2.174.643a2.92 2.92 0 0 0-1.197 1.774h-.289c-.244-.754-.665-1.353-1.242-1.774-.599-.422-1.331-.643-2.196-.643-.776 0-1.464.2-2.041.554-.577.377-.998.865-1.242 1.486h-.2v-1.752h-2.75v11.135h2.75Zm24.91-11.135v6.788a3.256 3.256 0 0 1-1.087 1.552c-.51.4-1.065.6-1.664.6s-1.065-.178-1.397-.577c-.355-.4-.511-.998-.511-1.797v-6.566h-2.772v7.276c0 1.308.332 2.329 1.042 3.06.688.733 1.619 1.11 2.773 1.11a3.961 3.961 0 0 0 2.107-.51 3.04 3.04 0 0 0 1.309-1.442h.2v1.641h2.772V44.138h-2.772Zm5.377 5.546c0 1.774.51 3.194 1.574 4.259 1.043 1.086 2.44 1.619 4.171 1.619 1.575 0 2.839-.422 3.815-1.309s1.464-1.996 1.464-3.327h-2.751c-.088.643-.354 1.153-.798 1.53-.466.4-1.043.577-1.753.577-.865 0-1.552-.288-2.062-.887-.511-.6-.755-1.42-.755-2.462 0-1.043.244-1.864.777-2.463.51-.576 1.22-.887 2.107-.887.665 0 1.242.2 1.708.577.444.4.71.91.776 1.53h2.751c0-1.33-.488-2.44-1.442-3.327-.976-.865-2.24-1.309-3.837-1.309-1.731 0-3.128.555-4.171 1.62-1.064 1.087-1.574 2.506-1.574 4.259Zm16.504 5.59v-6.81a3.288 3.288 0 0 1 1.087-1.531 2.554 2.554 0 0 1 1.663-.599c.599 0 1.065.2 1.42.599.333.4.51.976.51 1.775v6.565h2.751v-7.275c0-1.287-.355-2.307-1.043-3.04-.688-.731-1.597-1.108-2.75-1.13-.799 0-1.509.177-2.13.532-.643.355-1.087.843-1.309 1.42h-.199v-6.522h-2.751v16.015h2.751Zm25.328 0c1.398 0 2.529-.355 3.394-1.11.843-.732 1.287-1.73 1.287-2.972 0-.82-.244-1.553-.71-2.174-.488-.621-1.131-1.043-1.93-1.264v-.267a3.406 3.406 0 0 0 1.619-1.264c.4-.577.599-1.264.599-2.085 0-1.22-.443-2.196-1.286-2.95-.843-.732-1.974-1.11-3.35-1.11h-7.808v15.195h8.185Zm-5.323-12.755h4.436c.666 0 1.198.177 1.597.532.4.355.599.865.599 1.508 0 .622-.199 1.132-.599 1.509-.399.377-.931.554-1.597.554h-4.436V42.52Zm0 6.277h4.769c.665 0 1.22.178 1.619.533.399.355.621.82.643 1.441 0 .666-.199 1.176-.598 1.531-.4.355-.954.532-1.664.532h-4.769v-4.037Zm12.724-6.233h2.772v-3.305h-2.772v3.305Zm0 12.71h2.772V44.138h-2.772v11.135Zm7.485-8.806v5.723c0 1.087.31 1.908.976 2.485.665.576 1.641.842 2.95.842 1.02 0 1.797-.11 2.351-.377v-2.262c-.599.222-1.309.31-2.129.31-.644 0-1.109-.066-1.376-.2v-6.52h3.793v-2.33h-3.793v-4.88h-2.772v4.88h-2.884v2.33h2.884Zm7.986 3.217c0 1.774.511 3.194 1.575 4.259 1.043 1.086 2.44 1.619 4.171 1.619 1.574 0 2.839-.422 3.815-1.309s1.464-1.996 1.464-3.327h-2.751c-.088.643-.355 1.153-.798 1.53-.466.4-1.043.577-1.753.577-.865 0-1.552-.288-2.063-.887-.51-.6-.754-1.42-.754-2.462 0-1.043.244-1.864.777-2.463.51-.576 1.22-.887 2.107-.887.665 0 1.242.2 1.708.577.444.4.71.91.776 1.53h2.751c0-1.33-.488-2.44-1.442-3.327-.976-.865-2.24-1.309-3.837-1.309-1.731 0-3.128.555-4.171 1.62-1.064 1.087-1.575 2.506-1.575 4.259Zm12.911.022c0 1.774.51 3.194 1.553 4.259 1.042 1.087 2.418 1.619 4.103 1.619 1.686 0 3.039-.532 4.082-1.62 1.042-1.064 1.575-2.484 1.575-4.258 0-1.753-.533-3.172-1.575-4.26-1.043-1.064-2.396-1.618-4.082-1.618-1.685 0-3.061.554-4.103 1.619-1.043 1.087-1.553 2.506-1.553 4.259Zm2.817 0c0-1.02.244-1.841.732-2.44.488-.6 1.176-.91 2.107-.91.866 0 1.553.289 2.063.865.511.577.777 1.398.777 2.485 0 1.042-.244 1.863-.732 2.462-.488.621-1.176.91-2.108.91-.887 0-1.574-.289-2.085-.866-.51-.576-.754-1.397-.754-2.506Zm11.085-7.143h2.773v-3.305h-2.773v3.305Zm0 12.71h2.773V44.138h-2.773v11.135Zm8.949 0v-6.81a3.302 3.302 0 0 1 1.087-1.53 2.557 2.557 0 0 1 1.664-.599c.599 0 1.064.2 1.419.599.333.4.511.976.511 1.775v6.565h2.75v-7.275c0-1.287-.355-2.307-1.042-3.04-.688-.731-1.598-1.108-2.751-1.13-.799 0-1.508.177-2.129.532-.644.355-1.087.843-1.309 1.42h-.2v-1.642h-2.75v11.135h2.75Zm18.186 0h3.061c1.132-4.57 1.753-7.076 1.864-7.497h.222l1.907 7.497h3.194l2.795-11.135h-2.75a645.396 645.396 0 0 0-1.686 7.83h-.2c-.355-1.508-.931-3.97-1.73-7.409h-3.061a319.812 319.812 0 0 0-1.775 7.41h-.199c-.399-1.82-.954-4.415-1.686-7.831h-2.751l2.795 11.135Zm14.137-5.567c0 1.774.51 3.194 1.552 4.259 1.043 1.087 2.418 1.619 4.104 1.619s3.039-.532 4.081-1.62c1.043-1.064 1.575-2.484 1.575-4.258 0-1.753-.532-3.172-1.575-4.26-1.042-1.064-2.395-1.618-4.081-1.618-1.686 0-3.061.554-4.104 1.619-1.042 1.087-1.552 2.506-1.552 4.259Zm2.817 0c0-1.02.244-1.841.732-2.44.488-.6 1.175-.91 2.107-.91.865 0 1.553.289 2.063.865.51.577.776 1.398.776 2.485 0 1.042-.244 1.863-.732 2.462-.488.621-1.175.91-2.107.91-.887 0-1.575-.289-2.085-.866-.51-.576-.754-1.397-.754-2.506Zm18.493-5.568v6.788a3.243 3.243 0 0 1-1.087 1.552c-.51.4-1.064.6-1.663.6s-1.065-.178-1.398-.577c-.355-.4-.51-.998-.51-1.797v-6.566h-2.773v7.276c0 1.308.333 2.329 1.043 3.06.688.733 1.619 1.11 2.773 1.11a3.961 3.961 0 0 0 2.107-.51 3.04 3.04 0 0 0 1.309-1.442h.199v1.641h2.773V44.138h-2.773Zm8.971 11.135V39.258h-2.751v16.015h2.751Zm11.384-9.494h-.178c-.266-.576-.71-1.064-1.353-1.42-.643-.354-1.353-.532-2.152-.532-1.53 0-2.75.555-3.66 1.62-.909 1.064-1.353 2.484-1.353 4.237 0 1.774.444 3.194 1.376 4.28.931 1.088 2.151 1.62 3.66 1.62.82 0 1.575-.178 2.24-.532a3.076 3.076 0 0 0 1.42-1.53h.177v1.751h2.595V39.258h-2.772v6.521Zm0 5.191c-.222.643-.577 1.154-1.109 1.53-.533.4-1.154.577-1.864.577-.887 0-1.575-.31-2.063-.931-.51-.621-.754-1.42-.754-2.44s.244-1.841.777-2.463c.51-.598 1.197-.909 2.04-.909.666 0 1.287.2 1.819.555.533.377.91.887 1.154 1.53v2.551ZM104.648 82.251l-.865 2.196a4.977 4.977 0 0 1-1.331.156c-.71 0-1.309-.045-1.841-.178v2.218c.444.2 1.065.289 1.863.289 2.13 0 3.527-.888 4.215-2.662l5.102-13.132h-2.906l-2.706 7.697h-.244l-2.706-7.697H100.3l4.348 11.113Zm8-5.545c0 1.774.51 3.194 1.552 4.259 1.043 1.087 2.418 1.619 4.104 1.619s3.039-.532 4.081-1.62c1.043-1.064 1.575-2.484 1.575-4.258 0-1.753-.532-3.172-1.575-4.26-1.042-1.064-2.395-1.618-4.081-1.618-1.686 0-3.061.554-4.104 1.619-1.042 1.087-1.552 2.506-1.552 4.259Zm2.817 0c0-1.02.244-1.841.732-2.44.488-.6 1.175-.91 2.107-.91.865 0 1.553.289 2.063.865.51.577.776 1.398.776 2.485 0 1.042-.244 1.863-.732 2.462-.488.621-1.175.91-2.107.91-.887 0-1.575-.289-2.085-.866-.51-.576-.754-1.397-.754-2.506Zm18.493-5.568v6.788a3.248 3.248 0 0 1-1.086 1.552c-.511.4-1.065.6-1.664.6s-1.065-.178-1.398-.577c-.355-.4-.51-.999-.51-1.797v-6.566h-2.773v7.276c0 1.308.333 2.329 1.043 3.06.688.733 1.619 1.11 2.773 1.11a3.961 3.961 0 0 0 2.107-.51 3.04 3.04 0 0 0 1.309-1.442h.199v1.641h2.773V71.138h-2.773Zm14.906 11.135V66.258h-2.75v16.015h2.75Zm3.399-12.71h2.772v-3.305h-2.772v3.305Zm0 12.71h2.772V71.138h-2.772v11.135Zm13.23-7.076 4.192-4.059h-3.216l-5.235 4.969v-9.849h-2.773v16.015h2.773v-3.305l2.218-1.996 3.194 5.301h3.106l-4.259-7.076Zm4.971 1.509c0 1.774.51 3.216 1.553 4.28 1.042 1.066 2.44 1.598 4.192 1.598 1.375 0 2.529-.355 3.505-1.065.954-.71 1.486-1.619 1.597-2.773h-2.751a1.825 1.825 0 0 1-.843 1.11c-.443.266-.998.399-1.619.399-.843 0-1.53-.244-2.018-.754-.511-.51-.799-1.22-.866-2.108h7.964a6.54 6.54 0 0 0 .133-1.397c0-1.53-.488-2.773-1.464-3.727-.976-.931-2.285-1.42-3.882-1.42-1.686 0-3.017.555-4.015 1.642-.998 1.11-1.486 2.507-1.486 4.215Zm2.795-1.11c.066-.71.333-1.286.821-1.73.488-.443 1.109-.665 1.863-.665.732 0 1.331.222 1.797.665.443.444.709 1.02.776 1.73h-5.257Zm17.855-2.129v5.723c0 1.087.311 1.908.976 2.484.666.577 1.642.843 2.951.843 1.02 0 1.796-.11 2.351-.377v-2.262c-.599.222-1.309.31-2.129.31-.644 0-1.11-.066-1.376-.2v-6.52h3.793v-2.33h-3.793v-4.88h-2.773v4.88h-2.883v2.33h2.883Zm7.987 3.239c0 1.774.51 3.194 1.553 4.259 1.043 1.087 2.418 1.619 4.104 1.619 1.685 0 3.039-.532 4.081-1.62 1.043-1.064 1.575-2.484 1.575-4.258 0-1.753-.532-3.172-1.575-4.26-1.042-1.064-2.396-1.618-4.081-1.618-1.686 0-3.061.554-4.104 1.619-1.043 1.087-1.553 2.506-1.553 4.259Zm2.817 0c0-1.02.244-1.841.732-2.44.488-.6 1.176-.91 2.108-.91.865 0 1.552.289 2.063.865.51.577.776 1.398.776 2.485 0 1.042-.244 1.863-.732 2.462-.488.621-1.176.91-2.107.91-.888 0-1.575-.289-2.085-.866-.511-.576-.755-1.397-.755-2.506Zm17.154-10.448v16.015h2.573v-1.752h.177c.267.665.755 1.176 1.42 1.53.666.355 1.42.533 2.263.533 1.508 0 2.706-.532 3.637-1.62.932-1.086 1.398-2.506 1.398-4.28 0-1.753-.466-3.172-1.375-4.237-.932-1.065-2.13-1.62-3.638-1.62-.799 0-1.531.178-2.174.533-.643.355-1.087.843-1.331 1.42h-.177v-6.522h-2.773Zm2.773 9.161a3.072 3.072 0 0 1 1.153-1.53 3.202 3.202 0 0 1 1.819-.555c.843 0 1.508.31 2.041.91.51.62.776 1.441.776 2.462 0 1.02-.266 1.819-.754 2.44-.51.62-1.198.931-2.063.931-.71 0-1.331-.177-1.863-.576a2.871 2.871 0 0 1-1.109-1.53v-2.552Zm18.67-4.281v6.788a3.256 3.256 0 0 1-1.087 1.552c-.511.4-1.065.6-1.664.6s-1.065-.178-1.397-.577c-.355-.4-.511-.999-.511-1.797v-6.566h-2.772v7.276c0 1.308.332 2.329 1.042 3.06.688.733 1.619 1.11 2.773 1.11a3.961 3.961 0 0 0 2.107-.51 3.04 3.04 0 0 0 1.309-1.442h.2v1.641h2.772V71.138h-2.772Zm8.815 11.113-.865 2.196c-.4.111-.843.156-1.331.156-.71 0-1.309-.045-1.841-.178v2.218c.443.2 1.064.289 1.863.289 2.129 0 3.527-.888 4.214-2.662l5.102-13.132h-2.906l-2.706 7.697h-.244l-2.706-7.697h-2.928l4.348 11.113Zm18.702-11.512c0-1.176-.444-2.13-1.309-2.862-.887-.71-2.041-1.087-3.461-1.087-1.552 0-2.794.422-3.682 1.243-.909.843-1.331 1.996-1.286 3.46h2.728c-.044-.71.133-1.287.532-1.708.378-.421.932-.643 1.642-.643.599 0 1.087.155 1.442.466.355.31.554.754.554 1.308 0 .422-.111.777-.31 1.087-.2.31-.555.732-1.087 1.264-.865.843-1.42 1.576-1.664 2.152-.266.6-.377 1.353-.377 2.285h2.618c0-.222 0-.421.044-.621.022-.178.044-.355.089-.488.022-.133.088-.288.177-.466l.2-.4c.044-.088.155-.199.31-.376.133-.156.244-.266.311-.333l.377-.377.377-.377c1.176-1.154 1.775-2.33 1.775-3.527Zm-6.588 11.534h3.26v-3.15h-3.26v3.15Z" fill="#071278"/><rect x="33.261" y="194.094" width="303.043" height="51.758" rx="7.394" fill="#F2F2F2"/><circle cx="66.049" cy="219.488" r="18.023" fill="#fff" stroke="#E0E0E0" stroke-width=".924"/><mask id="a" style="mask-type:alpha" maskUnits="userSpaceOnUse" x="53" y="215" width="27" height="9"><path d="m66.407 215.498-1.729 8.084h-2.091l1.73-8.084h2.09Zm8.798 5.22 1.101-3.035.634 3.035h-1.735Zm2.334 2.864h1.934l-1.688-8.084H76a.953.953 0 0 0-.89.593l-3.138 7.491h2.195l.436-1.208h2.683l.253 1.208Zm-5.459-2.64c.01-2.133-2.95-2.251-2.93-3.204.007-.29.283-.598.888-.677.299-.039 1.125-.069 2.061.362l.368-1.714a5.615 5.615 0 0 0-1.957-.358c-2.066 0-3.521 1.098-3.533 2.671-.014 1.165 1.038 1.814 1.831 2.201.814.396 1.087.65 1.084 1.004-.006.543-.65.782-1.251.791-1.052.017-1.662-.284-2.148-.51l-.378 1.771c.488.224 1.39.42 2.325.429 2.197 0 3.634-1.084 3.64-2.766Zm-8.66-5.444-3.389 8.084h-2.21l-1.667-6.451c-.102-.397-.19-.543-.497-.71-.503-.273-1.333-.529-2.063-.688l.049-.235h3.559c.453 0 .86.302.964.824l.88 4.678 2.177-5.502h2.196Z" fill="#fff"/></mask><g mask="url(#a)"><path fill-rule="evenodd" clip-rule="evenodd" d="m66.407 215.498-1.729 8.084h-2.091l1.73-8.084h2.09Zm8.798 5.22 1.101-3.035.634 3.035h-1.735Zm2.334 2.864h1.934l-1.688-8.084H76a.953.953 0 0 0-.89.593l-3.138 7.491h2.195l.436-1.208h2.683l.253 1.208Zm-5.459-2.64c.01-2.133-2.95-2.251-2.93-3.204.007-.29.283-.598.888-.677.299-.039 1.125-.069 2.061.362l.368-1.714a5.615 5.615 0 0 0-1.957-.358c-2.066 0-3.521 1.098-3.533 2.671-.014 1.165 1.038 1.814 1.831 2.201.814.396 1.087.65 1.084 1.004-.006.543-.65.782-1.251.791-1.052.017-1.662-.284-2.148-.51l-.378 1.771c.488.224 1.39.42 2.325.429 2.197 0 3.634-1.084 3.64-2.766Zm-8.66-5.444-3.389 8.084h-2.21l-1.667-6.451c-.102-.397-.19-.543-.497-.71-.503-.273-1.333-.529-2.063-.688l.049-.235h3.559c.453 0 .86.302.964.824l.88 4.678 2.177-5.502h2.196Z" fill="url(#b)"/></g><path d="M100.531 220.823c0 1.583.473 2.854 1.449 3.816.976.976 2.248 1.449 3.816 1.449 1.39 0 2.543-.37 3.46-1.124.917-.739 1.42-1.701 1.509-2.869h-1.997a2.421 2.421 0 0 1-.991 1.597c-.547.414-1.212.607-1.981.607-.976 0-1.745-.311-2.337-.947-.591-.636-.887-1.479-.887-2.529 0-1.035.296-1.878.887-2.528.592-.636 1.361-.962 2.337-.962.769 0 1.434.207 1.981.607.533.414.873.946.991 1.597h1.997c-.089-1.139-.607-2.085-1.524-2.854-.916-.754-2.07-1.139-3.43-1.139-1.583 0-2.855.488-3.831 1.464s-1.449 2.248-1.449 3.815Zm11.478 3.165c0 .651.207 1.153.636 1.538.429.384 1.02.562 1.775.562.547 0 1.064-.118 1.552-.37.473-.251.799-.577.976-.976h.119l.014.237c.06.724.607 1.079 1.627 1.079.444 0 .843-.059 1.198-.177v-1.494a2.513 2.513 0 0 1-.754.104c-.222 0-.385-.015-.474-.074l.015-3.963c0-.725-.281-1.272-.843-1.642-.562-.37-1.331-.562-2.307-.562-1.035 0-1.863.237-2.454.68-.607.444-.902 1.124-.902 2.012h1.863c-.015-.385.089-.681.325-.888.222-.207.577-.325 1.065-.325.917 0 1.39.325 1.39.961v.592l-2.514.414c-.725.118-1.287.37-1.701.754-.414.385-.606.902-.606 1.538Zm1.923-.207c0-.562.34-.902 1.049-1.006l1.849-.325v1.183c-.148.34-.385.606-.725.784-.34.192-.695.281-1.064.281-.355 0-.621-.074-.814-.237-.207-.148-.295-.384-.295-.68Zm9.139 2.1v-4.274c.236-1.005.916-1.508 2.04-1.508.237 0 .474.029.71.074l-.103-1.76a2.855 2.855 0 0 0-.577-.059c-.961 0-1.627.429-2.011 1.272h-.119v-1.169h-1.789v7.424h1.849Zm9.322-6.329h-.119a2.054 2.054 0 0 0-.902-.947 2.912 2.912 0 0 0-1.434-.355c-1.021 0-1.834.37-2.44 1.08-.607.71-.902 1.656-.902 2.824 0 1.183.295 2.13.916 2.854.622.725 1.435 1.08 2.441 1.08.547 0 1.049-.118 1.493-.355.444-.237.754-.577.947-1.02h.118v1.168h1.73v-10.677h-1.848v4.348Zm0 3.46c-.148.429-.385.769-.74 1.02-.355.267-.769.385-1.242.385-.592 0-1.05-.207-1.375-.621-.34-.414-.503-.947-.503-1.627s.163-1.227.517-1.641c.341-.4.799-.607 1.361-.607.444 0 .858.133 1.213.37.354.251.606.592.769 1.02v1.701Zm8.639-5.205c.267.103.636.177 1.11.236l.014.045a5.009 5.009 0 0 0-.754.798l-.606.843.784.547.635-.813c.208-.311.385-.621.503-.932h.059c.163.37.341.68.533.932l.606.813.784-.547-.577-.843a7.622 7.622 0 0 0-.739-.798l.015-.045a6.438 6.438 0 0 0 1.094-.236l.991-.355-.326-.902-.961.31c-.414.163-.769.325-1.035.503l-.015-.03c.059-.31.089-.68.089-1.094v-1.006h-.947v1.006c0 .237.03.592.104 1.094l-.03.03c-.236-.148-.576-.311-1.02-.503l-.946-.31-.341.902.976.355Zm6.788 0c.266.103.636.177 1.109.236l.015.045a4.964 4.964 0 0 0-.754.798l-.607.843.784.547.636-.813c.207-.311.384-.621.503-.932h.059c.163.37.34.68.532.932l.607.813.783-.547-.576-.843a7.628 7.628 0 0 0-.74-.798l.015-.045a6.417 6.417 0 0 0 1.094-.236l.991-.355-.325-.902-.961.31c-.415.163-.769.325-1.036.503l-.014-.03c.059-.31.088-.68.088-1.094v-1.006h-.946v1.006c0 .237.029.592.103 1.094l-.029.03c-.237-.148-.577-.311-1.021-.503l-.946-.31-.34.902.976.355Zm6.787 0c.267.103.636.177 1.109.236l.015.045a5.009 5.009 0 0 0-.754.798l-.606.843.784.547.635-.813c.207-.311.385-.621.503-.932h.059c.163.37.34.68.533.932l.606.813.784-.547-.577-.843a7.73 7.73 0 0 0-.739-.798l.014-.045a6.43 6.43 0 0 0 1.095-.236l.991-.355-.326-.902-.961.31c-.414.163-.769.325-1.035.503l-.015-.03c.059-.31.089-.68.089-1.094v-1.006h-.947v1.006c0 .237.03.592.104 1.094l-.03.03c-.236-.148-.576-.311-1.02-.503l-.946-.31-.341.902.976.355Zm6.788 0c.266.103.636.177 1.109.236l.015.045a4.964 4.964 0 0 0-.754.798l-.607.843.784.547.636-.813c.207-.311.384-.621.503-.932h.059c.163.37.34.68.532.932l.607.813.783-.547-.576-.843a7.628 7.628 0 0 0-.74-.798l.015-.045a6.417 6.417 0 0 0 1.094-.236l.991-.355-.325-.902-.962.31c-.414.163-.768.325-1.035.503l-.014-.03c.059-.31.088-.68.088-1.094v-1.006h-.946v1.006c0 .237.029.592.103 1.094l-.029.03c-.237-.148-.577-.311-1.021-.503l-.946-.31-.34.902.976.355Zm17.976 2.721c0-1.642-.37-2.884-1.109-3.727-.74-.843-1.79-1.272-3.165-1.272-1.154 0-2.1.34-2.81 1.021-.71.68-1.065 1.508-1.065 2.499 0 .976.326 1.774.976 2.381.651.606 1.479.902 2.485.902.636 0 1.212-.119 1.73-.385.503-.266.873-.65 1.094-1.168.03 1.124-.148 2.011-.532 2.662-.399.651-1.035.976-1.922.976-.533 0-.976-.104-1.331-.34-.355-.237-.562-.547-.621-.932h-1.79c.059.947.444 1.671 1.124 2.174.68.517 1.538.769 2.603.769 1.39 0 2.455-.473 3.209-1.42.739-.946 1.124-2.321 1.124-4.14Zm-2.115-1.524c0 .562-.192 1.006-.577 1.361-.384.355-.872.532-1.479.532-.606 0-1.094-.162-1.478-.517-.385-.355-.577-.799-.577-1.346s.177-.991.562-1.331c.384-.34.858-.518 1.434-.518.621 0 1.139.178 1.523.503.385.34.592.784.592 1.316Zm3.703 1.893c0 1.627.325 2.899.991 3.816.665.916 1.641 1.375 2.942 1.375 1.257 0 2.233-.444 2.928-1.346.681-.887 1.036-2.174 1.036-3.859 0-1.657-.341-2.958-1.006-3.905-.666-.931-1.642-1.39-2.943-1.39-1.257.03-2.233.488-2.913 1.39-.695.917-1.035 2.219-1.035 3.919Zm1.937-.014c0-2.381.665-3.579 2.011-3.579 1.331 0 1.997 1.198 1.997 3.579 0 1.153-.163 2.025-.474 2.617-.325.606-.828.902-1.523.887-1.346 0-2.011-1.168-2.011-3.504Zm15.74 4.998v-1.671h-2.987v-8.489h-1.523l-3.298 2.441v1.996l2.928-2.07v6.122h-3.342v1.671h8.222Zm9.589-5.353c0-1.642-.37-2.884-1.109-3.727-.74-.843-1.79-1.272-3.165-1.272-1.154 0-2.1.34-2.81 1.021-.71.68-1.065 1.508-1.065 2.499 0 .976.326 1.774.976 2.381.651.606 1.479.902 2.485.902.636 0 1.212-.119 1.73-.385.503-.266.873-.65 1.094-1.168.03 1.124-.148 2.011-.532 2.662-.399.651-1.035.976-1.922.976-.533 0-.976-.104-1.331-.34-.355-.237-.562-.547-.621-.932h-1.79c.059.947.444 1.671 1.124 2.174.68.517 1.538.769 2.603.769 1.39 0 2.455-.473 3.209-1.42.739-.946 1.124-2.321 1.124-4.14Zm-2.115-1.524c0 .562-.192 1.006-.577 1.361-.384.355-.872.532-1.479.532-.606 0-1.094-.162-1.478-.517-.385-.355-.577-.799-.577-1.346s.177-.991.562-1.331c.384-.34.858-.518 1.434-.518.621 0 1.139.178 1.523.503.385.34.592.784.592 1.316ZM53.447 134.819h4.155v.414a3.08 3.08 0 0 1-1.154 1.967c-.65.503-1.42.754-2.336.754-1.139 0-2.056-.355-2.736-1.065-.695-.709-1.035-1.656-1.035-2.854 0-1.183.34-2.129 1.05-2.854.695-.71 1.612-1.079 2.765-1.079.828 0 1.523.177 2.1.532.562.355.961.813 1.168 1.405h1.494a3.662 3.662 0 0 0-1.597-2.381c-.858-.562-1.908-.858-3.12-.858-1.598 0-2.899.488-3.875 1.464-.99.976-1.479 2.248-1.479 3.816 0 1.552.474 2.809 1.42 3.756.947.946 2.174 1.419 3.667 1.419.843 0 1.598-.192 2.263-.576.65-.385 1.11-.888 1.36-1.523h.193v1.937h1.183v-5.442h-5.486v1.168Zm13.345 4.274c.902 0 1.641-.237 2.203-.74.562-.488.843-1.138.843-1.952a2.38 2.38 0 0 0-.473-1.464c-.31-.414-.74-.709-1.302-.887v-.133a2.426 2.426 0 0 0 1.11-.873c.266-.384.399-.857.399-1.39 0-.798-.281-1.434-.843-1.937-.562-.488-1.287-.739-2.174-.739h-4.91v10.115h5.147Zm-3.757-8.917h3.328c.532 0 .961.147 1.286.428.326.296.488.695.488 1.213 0 .503-.162.917-.488 1.213-.325.31-.769.458-1.316.458h-3.297v-3.312Zm0 4.406h3.52c.562 0 1.006.148 1.33.444.326.296.504.68.518 1.183 0 .532-.147.947-.473 1.242-.325.296-.784.429-1.375.429h-3.52v-3.298Zm10.557 4.511v-4.422h3.623c.917 0 1.656-.251 2.204-.784.532-.532.813-1.227.813-2.114 0-.858-.281-1.538-.813-2.041-.533-.503-1.257-.754-2.16-.754h-5.057v10.115h1.39Zm0-8.888h3.401c.548 0 .976.133 1.287.399.31.267.473.681.473 1.213 0 .518-.148.932-.444 1.227-.295.296-.739.444-1.316.444h-3.4v-3.283Z" fill="#071278"/><path fill-rule="evenodd" clip-rule="evenodd" d="M94.912 131.244h9.243l-4.622 4.621-4.62-4.621Z" fill="#2639F2"/><rect x="33.723" y="107.676" width="88.076" height="50.834" rx="3.235" stroke="#071278" stroke-width=".924"/><path fill="#fff" d="M40.654 100.744h56.394v14H40.654z"/><path d="M44.95 107.962c0 1.176.355 2.13 1.076 2.85.71.721 1.653 1.076 2.806 1.076.998 0 1.841-.266 2.518-.82a2.984 2.984 0 0 0 1.142-2.086h-1.086a2.231 2.231 0 0 1-.866 1.398c-.465.355-1.042.532-1.708.532-.831 0-1.497-.266-2.007-.809-.51-.533-.754-1.254-.754-2.141s.244-1.608.754-2.152c.51-.532 1.175-.809 2.007-.809.666 0 1.231.177 1.708.532.466.355.755.81.866 1.387h1.086c-.088-.832-.465-1.52-1.142-2.074-.688-.555-1.52-.832-2.507-.832-1.153 0-2.096.366-2.817 1.098-.72.732-1.076 1.674-1.076 2.85Zm12.745-1.741v3.394c-.122.41-.322.743-.61.987s-.61.366-.965.366c-.377 0-.654-.111-.854-.344-.2-.233-.288-.577-.288-1.02v-3.383h-1.01v3.627c0 .643.167 1.142.5 1.497.332.355.787.532 1.353.532.399.011.765-.088 1.098-.299.321-.2.543-.477.676-.821h.1v.987h1.01v-5.523h-1.01Zm3.892 5.523v-3.283c.21-.887.743-1.342 1.608-1.342.188 0 .355.022.51.056l-.067-.965a2.748 2.748 0 0 0-.443-.045c-.755 0-1.276.366-1.542 1.076h-.089v-1.02h-.987v5.523h1.01Zm4.289 0v-3.283c.21-.887.743-1.342 1.608-1.342.188 0 .355.022.51.056l-.067-.965a2.748 2.748 0 0 0-.443-.045c-.754 0-1.276.366-1.542 1.076h-.089v-1.02h-.987v5.523h1.01Zm2.684-2.762c0 .888.244 1.586.755 2.119.499.532 1.164.787 2.007.787.654 0 1.209-.166 1.675-.51a1.96 1.96 0 0 0 .81-1.353h-1.01a1.207 1.207 0 0 1-.521.732c-.277.177-.61.266-.987.266-.51 0-.92-.155-1.22-.488-.31-.333-.466-.776-.488-1.331h4.181c.022-.188.044-.377.044-.576 0-.755-.243-1.376-.71-1.842-.476-.465-1.097-.698-1.863-.698-.81 0-1.453.277-1.94.809-.489.533-.733 1.231-.733 2.085Zm1.032-.476c.033-.466.2-.843.488-1.121.288-.277.665-.421 1.131-.421.466 0 .832.144 1.12.421.289.289.444.655.466 1.121h-3.205Zm6.627 3.238v-3.394c.111-.399.31-.732.6-.976.288-.244.61-.366.975-.366.366 0 .644.122.843.355.2.233.3.566.3 1.009v3.372h1.009v-3.627c0-.632-.178-1.131-.51-1.486-.333-.355-.788-.532-1.342-.543-.41 0-.777.111-1.098.31-.333.211-.555.477-.677.81h-.1v-.987H75.21v5.523h1.01Zm5.122-2.773c0 .877.244 1.575.754 2.108.51.532 1.187.798 2.03.798.743 0 1.353-.199 1.819-.621.466-.41.72-.932.743-1.575h-1.02a1.381 1.381 0 0 1-.488.932c-.289.233-.633.344-1.054.344-.532 0-.943-.178-1.253-.533-.31-.355-.466-.843-.466-1.453 0-.599.155-1.087.466-1.441.31-.355.732-.533 1.264-.533.422 0 .765.122 1.054.355.277.233.432.544.477.921h1.02c-.022-.633-.277-1.154-.743-1.575-.466-.411-1.076-.621-1.82-.621-.842 0-1.518.266-2.029.798-.51.533-.754 1.231-.754 2.096Zm8.101 2.773-.543 1.387c-.178.066-.41.099-.7.099-.354 0-.642-.022-.864-.088v.809c.222.1.499.144.843.144.466 0 .843-.088 1.153-.266.3-.177.532-.488.699-.92l2.628-6.688h-1.064l-1.575 4.237h-.122l-1.586-4.237h-1.076l2.207 5.523ZM153 139.093v-1.242h-3.164v-8.903h-1.124l-3.239 2.44v1.494l2.973-2.189v7.158h-3.49v1.242H153Zm5.581.177c1.095 0 1.997-.31 2.706-.961.695-.636 1.05-1.464 1.05-2.484 0-.976-.325-1.775-.961-2.396-.651-.606-1.479-.917-2.484-.917-.459 0-.888.089-1.302.237-.414.148-.724.355-.946.621h-.118l.429-3.15h5.338v-1.272h-6.522l-.68 5.708h1.331c.207-.295.518-.547.902-.724a2.868 2.868 0 0 1 1.228-.281c.709 0 1.271.207 1.715.606.429.414.651.932.651 1.568s-.222 1.153-.651 1.567c-.429.414-.991.606-1.686.606-.71 0-1.286-.177-1.715-.561-.429-.37-.636-.888-.636-1.538h-1.405c0 1.005.34 1.818 1.035 2.44.68.621 1.597.931 2.721.931Zm7.075-.177h1.612v-1.804h-1.612v1.804Zm4.794-4.999c0 1.612.31 2.884.961 3.801.651.932 1.597 1.39 2.854 1.39 1.198 0 2.129-.444 2.81-1.331.665-.887 1.005-2.174 1.005-3.874 0-1.642-.325-2.928-.961-3.875-.651-.946-1.597-1.405-2.839-1.405-1.213.015-2.145.474-2.825 1.376-.68.902-1.005 2.203-1.005 3.918Zm1.419-.014c0-1.257.193-2.248.592-2.958.384-.71.991-1.065 1.804-1.065.769 0 1.36.34 1.775 1.006.414.68.621 1.686.621 3.017 0 1.257-.207 2.233-.592 2.928-.384.709-.991 1.05-1.804 1.035-.769 0-1.361-.326-1.775-.991-.414-.665-.621-1.656-.621-2.972Zm8.199.014c0 1.612.31 2.884.961 3.801.651.932 1.597 1.39 2.854 1.39 1.198 0 2.129-.444 2.81-1.331.665-.887 1.005-2.174 1.005-3.874 0-1.642-.325-2.928-.961-3.875-.651-.946-1.597-1.405-2.839-1.405-1.213.015-2.145.474-2.825 1.376-.68.902-1.005 2.203-1.005 3.918Zm1.419-.014c0-1.257.193-2.248.592-2.958.384-.71.991-1.065 1.804-1.065.769 0 1.36.34 1.774 1.006.415.68.622 1.686.622 3.017 0 1.257-.207 2.233-.592 2.928-.384.709-.991 1.05-1.804 1.035-.769 0-1.361-.326-1.775-.991-.414-.665-.621-1.656-.621-2.972Z" fill="#071278"/><rect x="287.234" y="122.002" width="34.394" height="22.182" rx="1.849" fill="#D8EDFF"/><path d="M293.632 137.093v-5.978h.077l2.485 5.978h1.064l2.452-5.978h.088v5.978h1.409v-7.598h-2.263l-2.185 5.357h-.088l-2.174-5.357h-2.285v7.598h1.42Zm10.291 0 .688-1.742h3.682l.699 1.742h1.552l-3.127-7.598h-1.963l-3.073 7.598h1.542Zm2.485-6.322h.077l1.353 3.36h-2.784l1.354-3.36Zm5.736 6.311 1.908-2.729h.111l1.863 2.74h1.708l-2.65-3.804 2.628-3.794h-1.652l-1.897 2.829h-.1l-1.885-2.829h-1.719l2.684 3.794-2.662 3.793h1.663Z" fill="#2639F2"/><rect x="130.308" y="108.138" width="205.184" height="49.91" rx="2.773" stroke="#2639F2" stroke-width="1.849"/><path d="M145.536 170.974c-.022-.466.133-.71.477-.71.177 0 .455.111.821.322.355.221.665.321.931.321.366 0 .655-.122.865-.388.2-.266.278-.632.233-1.12h-.632c.022.477-.144.71-.477.71-.166 0-.432-.1-.809-.322-.377-.211-.699-.322-.954-.322-.377 0-.666.134-.865.4-.2.266-.278.632-.222 1.109h.632Zm9.054 2.695c.676 0 1.231-.178 1.652-.555.422-.366.632-.854.632-1.464a1.79 1.79 0 0 0-.354-1.098c-.233-.31-.555-.532-.976-.665v-.1c.354-.144.632-.366.831-.654.2-.289.3-.644.3-1.043 0-.599-.211-1.076-.632-1.453-.422-.366-.965-.554-1.631-.554h-3.682v7.586h3.86Zm-2.817-6.688h2.495c.399 0 .721.111.965.322.244.222.366.521.366.909 0 .377-.122.688-.366.91-.244.233-.577.343-.987.343h-2.473v-2.484Zm0 3.305h2.639c.422 0 .754.111.998.333.244.222.378.51.389.887 0 .399-.111.71-.355.932-.244.222-.588.321-1.032.321h-2.639v-2.473Zm5.605-4.203v.92h2.906v6.666h1.043v-6.666h2.906v-.92h-6.855Zm7.019 3.804c0 1.176.355 2.129 1.076 2.85.709.721 1.652 1.076 2.806 1.076.998 0 1.841-.266 2.517-.821a2.98 2.98 0 0 0 1.143-2.085h-1.087a2.234 2.234 0 0 1-.865 1.398c-.466.355-1.043.532-1.708.532-.832 0-1.498-.266-2.008-.81-.51-.532-.754-1.253-.754-2.14 0-.887.244-1.608.754-2.152.51-.532 1.176-.809 2.008-.809.665 0 1.231.177 1.708.532.465.355.754.81.865 1.386h1.087c-.089-.831-.466-1.519-1.143-2.074-.687-.554-1.519-.831-2.506-.831-1.154 0-2.097.366-2.817 1.098-.721.732-1.076 1.674-1.076 2.85Zm11.917.033c0 1.209.233 2.163.721 2.851.488.698 1.198 1.042 2.141 1.042.898 0 1.597-.333 2.107-.998.499-.666.754-1.63.754-2.906 0-1.231-.244-2.196-.721-2.906-.488-.71-1.198-1.053-2.129-1.053-.91.011-1.608.355-2.119 1.031-.51.677-.754 1.653-.754 2.939Zm1.065-.011c0-.943.144-1.686.444-2.218.288-.532.743-.799 1.353-.799.576 0 1.02.255 1.331.755.31.51.465 1.264.465 2.262 0 .943-.155 1.675-.443 2.196-.289.532-.743.788-1.353.776-.577 0-1.021-.244-1.331-.743-.311-.499-.466-1.242-.466-2.229Zm7.092 3.76h1.208v-1.353h-1.208v1.353Zm3.595-3.749c0 1.209.233 2.163.721 2.851.488.698 1.198 1.042 2.14 1.042.899 0 1.598-.333 2.108-.998.499-.666.754-1.63.754-2.906 0-1.231-.244-2.196-.721-2.906-.488-.71-1.198-1.053-2.129-1.053-.91.011-1.609.355-2.119 1.031-.51.677-.754 1.653-.754 2.939Zm1.065-.011c0-.943.144-1.686.443-2.218.289-.532.743-.799 1.353-.799.577 0 1.021.255 1.331.755.311.51.466 1.264.466 2.262 0 .943-.155 1.675-.443 2.196-.289.532-.744.788-1.354.776-.576 0-1.02-.244-1.33-.743-.311-.499-.466-1.242-.466-2.229Zm7.246-1.564c0-.466.145-.832.433-1.109.288-.266.688-.41 1.187-.41.466 0 .832.133 1.12.399.288.266.433.61.433 1.032 0 .565-.311 1.12-.932 1.674l-3.228 2.817v.921h5.557v-.943h-4.181l2.584-2.218c.832-.71 1.253-1.486 1.253-2.329 0-.666-.244-1.209-.721-1.63-.488-.422-1.109-.633-1.863-.633-.81 0-1.453.222-1.941.655-.488.443-.732 1.031-.721 1.774h1.02Zm6.227 3.228c0 .665.244 1.209.754 1.608.499.41 1.176.61 2.019.61.798 0 1.453-.189 1.963-.588.51-.399.765-.92.765-1.564 0-.41-.111-.776-.333-1.087-.222-.31-.532-.51-.942-.621v-.133c.399-.111.709-.321.931-.632.222-.311.344-.677.344-1.098 0-.643-.255-1.165-.765-1.564s-1.176-.599-1.974-.599c-.843 0-1.509.211-2.008.61-.51.411-.754.943-.754 1.608h1.054c0-.388.144-.698.454-.942.311-.233.721-.355 1.242-.355.511 0 .921.122 1.232.344.31.233.465.554.465.965 0 .399-.144.72-.421.942-.288.222-.688.333-1.198.333h-.987v.887h.987c.499 0 .898.111 1.187.322.288.222.432.521.432.909 0 .422-.155.743-.465.987-.311.244-.721.355-1.232.355-.521 0-.931-.111-1.242-.355a1.13 1.13 0 0 1-.454-.942h-1.054Zm9.953 2.229c.821 0 1.497-.233 2.03-.721.521-.477.787-1.098.787-1.863 0-.732-.244-1.331-.721-1.797-.488-.455-1.109-.688-1.863-.688-.344 0-.666.067-.976.178-.311.111-.544.266-.71.466h-.089l.322-2.363h4.004v-.953h-4.891l-.511 4.281h.999a1.67 1.67 0 0 1 .676-.544 2.16 2.16 0 0 1 .921-.211c.532 0 .954.156 1.286.455.322.311.488.699.488 1.176s-.166.865-.488 1.175c-.321.311-.743.455-1.264.455-.532 0-.965-.133-1.287-.421-.321-.278-.477-.666-.477-1.154h-1.053c0 .754.255 1.364.776 1.83.51.466 1.198.699 2.041.699Z" fill="#071278"/><path fill="#fff" d="M136.777 100.744h50.394v14h-50.394z"/><path d="m141.761 111.744.81-1.952h3.948l.81 1.952h1.142l-3.194-7.586h-1.475l-3.172 7.586h1.131Zm2.74-6.654h.077l1.597 3.793h-3.26l1.586-3.793Zm6.103 6.654v-3.383c.1-.399.289-.732.555-.976.266-.244.577-.377.932-.377.366 0 .643.111.842.333.2.222.3.543.3.954v3.449h1.009v-3.394c.1-.399.289-.732.555-.976.266-.244.576-.366.931-.366.366 0 .644.122.843.355.189.233.289.555.289.965v3.416h1.009v-3.627c0-.621-.166-1.12-.499-1.475-.333-.355-.765-.543-1.309-.543-.421 0-.798.122-1.109.344a1.624 1.624 0 0 0-.643.909h-.156a1.645 1.645 0 0 0-.621-.92c-.299-.222-.665-.333-1.098-.333-.41 0-.765.111-1.075.31a1.663 1.663 0 0 0-.655.832h-.1v-1.02h-1.009v5.523h1.009Zm8.664-2.762c0 .877.244 1.575.754 2.108.51.532 1.165.798 1.985.798.821 0 1.476-.266 1.986-.798.51-.533.765-1.231.765-2.108 0-.865-.255-1.574-.765-2.107-.51-.532-1.165-.798-1.986-.798-.82 0-1.475.266-1.985.798-.51.533-.754 1.242-.754 2.107Zm1.031 0c0-.598.145-1.086.444-1.441.288-.355.71-.533 1.264-.533.522 0 .943.178 1.254.51.31.344.466.832.466 1.464 0 .61-.156 1.098-.455 1.453-.3.355-.721.533-1.265.533-.532 0-.942-.167-1.253-.51-.31-.344-.455-.832-.455-1.476Zm9.582-2.761v3.394c-.122.41-.322.743-.61.987-.289.244-.61.366-.965.366-.377 0-.655-.111-.854-.344-.2-.233-.289-.577-.289-1.02v-3.383h-1.009v3.627c0 .643.166 1.142.499 1.497.333.355.788.532 1.353.532.399.011.765-.088 1.098-.299.322-.2.544-.477.677-.821h.1v.987h1.009v-5.523h-1.009Zm3.891 5.523v-3.394c.111-.399.311-.732.599-.976s.61-.366.976-.366.643.122.843.355c.2.233.299.566.299 1.009v3.372h1.01v-3.627c0-.632-.178-1.131-.511-1.486-.332-.355-.787-.532-1.342-.543-.41 0-.776.111-1.098.31-.332.211-.554.477-.676.81h-.1v-.987h-1.009v5.523h1.009Zm6.123-4.669v3.238c0 1.021.599 1.531 1.796 1.531.466 0 .832-.055 1.087-.177v-.855a2.87 2.87 0 0 1-1.009.167c-.41 0-.699-.067-.865-.2v-3.704h2.074v-.854h-2.074v-2.485h-1.009v2.485h-1.498v.854h1.498Z" fill="#2639F2"/><defs><linearGradient id="b" x1="53.594" y1="219.529" x2="79.473" y2="219.529" gradientUnits="userSpaceOnUse"><stop stop-color="#1D1C45"/><stop offset="1" stop-color="#174489"/></linearGradient></defs></svg>