<svg width="1208" height="494" viewBox="0 0 1208 494" fill="none" xmlns="http://www.w3.org/2000/svg">
<mask id="mask0_3157_224677" style="mask-type:alpha" maskUnits="userSpaceOnUse" x="0" y="0" width="1208" height="494">
<rect width="1208" height="494" rx="16.8362" fill="#D7ECFF"/>
</mask>
<g mask="url(#mask0_3157_224677)">
<path d="M1169.02 388.102C1168.84 388.102 1168.65 388.056 1168.49 387.969C1168.32 387.881 1168.18 387.754 1168.07 387.598C1143.53 351.229 1115.54 317.302 1084.5 286.284C1021.19 222.868 945.955 172.595 863.128 138.356C780.217 103.899 691.297 86.2063 601.506 86.3018C555.913 86.2857 510.432 90.8221 465.741 99.8435C465.594 99.8736 465.442 99.8743 465.295 99.8457C465.147 99.8171 465.007 99.7595 464.881 99.6766C464.756 99.5937 464.648 99.4875 464.564 99.3629C464.479 99.2384 464.42 99.0982 464.39 98.9509C464.36 98.8037 464.36 98.6515 464.388 98.5039C464.417 98.3563 464.474 98.2158 464.557 98.0904C464.64 97.965 464.747 97.8579 464.871 97.7738C464.996 97.6897 465.136 97.6302 465.284 97.6002C510.125 88.5482 555.759 83.9968 601.506 84.0131C691.599 83.9206 780.817 101.675 864.005 136.249C947.104 170.606 1022.59 221.048 1086.11 284.674C1117.25 315.793 1145.33 349.833 1169.96 386.324C1170.13 386.577 1170.19 386.888 1170.13 387.186C1170.07 387.485 1169.9 387.748 1169.64 387.919C1169.46 388.039 1169.24 388.103 1169.02 388.102Z" fill="#B9E1FF"/>
<path d="M117.753 286.566C117.602 286.568 117.453 286.539 117.314 286.482C117.174 286.424 117.048 286.338 116.943 286.23C116.836 286.124 116.751 285.998 116.693 285.859C116.635 285.721 116.605 285.572 116.605 285.421C116.605 285.271 116.635 285.122 116.693 284.983C116.751 284.844 116.836 284.719 116.943 284.613C179.313 222.172 253.215 172.425 334.55 138.134C334.69 138.072 334.841 138.039 334.994 138.036C335.147 138.034 335.299 138.062 335.441 138.119C335.583 138.176 335.712 138.261 335.821 138.368C335.93 138.475 336.017 138.603 336.076 138.744C336.138 138.884 336.171 139.035 336.173 139.188C336.176 139.341 336.148 139.493 336.091 139.635C336.034 139.777 335.95 139.906 335.842 140.015C335.735 140.124 335.607 140.211 335.465 140.27C254.4 174.454 180.744 224.042 118.585 286.283C118.472 286.384 118.34 286.461 118.197 286.509C118.054 286.558 117.903 286.577 117.753 286.566Z" fill="#B9E1FF"/>
<path d="M-69.1183 906.119C-69.3813 906.119 -69.6362 906.028 -69.8394 905.861C-70.0426 905.694 -70.1814 905.461 -70.2326 905.204C-79.2889 860.379 -83.8426 814.762 -83.8259 769.032C-83.9133 678.984 -66.1491 589.812 -31.5595 506.666C-12.0693 459.652 12.5952 414.953 41.9783 373.393C42.1535 373.145 42.4197 372.977 42.7188 372.926C43.018 372.874 43.3254 372.944 43.5734 373.119C43.697 373.205 43.8023 373.314 43.8831 373.441C43.9639 373.568 44.0185 373.71 44.0441 373.859C44.0696 374.007 44.0658 374.159 44.0322 374.306C43.9985 374.452 43.9357 374.591 43.848 374.713C14.566 416.133 -10.0091 460.685 -29.4226 507.544C-63.8961 590.416 -81.5979 679.296 -81.5056 769.047C-81.5211 814.623 -76.9856 860.086 -67.966 904.761C-67.9338 904.908 -67.9312 905.061 -67.9589 905.21C-67.9866 905.358 -68.0437 905.499 -68.127 905.625C-68.2102 905.751 -68.3181 905.859 -68.4437 905.943C-68.5694 906.026 -68.7106 906.084 -68.8589 906.112C-68.9449 906.124 -69.0318 906.126 -69.1183 906.119Z" fill="#B9E1FF"/>
<path d="M1186.83 1076.94C1186.64 1076.93 1186.46 1076.89 1186.3 1076.8C1186.03 1076.66 1185.83 1076.42 1185.75 1076.13C1185.66 1075.85 1185.68 1075.54 1185.82 1075.27C1194.91 1057.91 1203.37 1039.87 1210.92 1021.63C1244.21 941.579 1261.3 855.725 1261.2 769.032C1261.31 680.778 1243.59 593.411 1209.1 512.167C1176.07 433.894 1128.15 362.777 1067.99 302.763C1067.89 302.656 1067.8 302.53 1067.74 302.39C1067.69 302.251 1067.66 302.101 1067.66 301.95C1067.66 301.799 1067.69 301.649 1067.74 301.51C1067.8 301.37 1067.89 301.244 1067.99 301.137C1068.21 300.925 1068.5 300.806 1068.8 300.806C1069.11 300.806 1069.4 300.925 1069.61 301.137C1129.98 361.352 1178.07 432.708 1211.23 511.243C1245.83 592.78 1263.61 680.462 1263.49 769.032C1263.58 856.022 1246.43 942.168 1213.02 1022.49C1205.42 1040.8 1196.94 1058.89 1187.83 1076.32C1187.73 1076.5 1187.59 1076.65 1187.42 1076.76C1187.24 1076.87 1187.04 1076.93 1186.83 1076.94Z" fill="#B9E1FF"/>
<path d="M-44.6242 631.157C-44.7055 631.164 -44.7871 631.164 -44.8683 631.157C-45.1653 631.091 -45.4243 630.91 -45.5887 630.655C-45.7531 630.399 -45.8096 630.088 -45.746 629.791C-37.3003 590.73 -25.3455 552.511 -10.0267 515.599C23.1753 435.349 71.9275 362.456 133.424 301.114C193.667 240.768 265.058 192.688 343.634 159.54C425.199 124.956 512.908 107.182 601.508 107.281C688.537 107.189 774.72 124.339 855.078 157.739C895.107 174.322 933.416 194.782 969.457 218.826C969.708 218.995 969.883 219.257 969.941 219.555C970 219.852 969.938 220.161 969.77 220.413C969.6 220.665 969.338 220.839 969.041 220.898C968.743 220.957 968.434 220.895 968.182 220.726C932.268 196.764 894.092 176.375 854.201 159.853C774.121 126.567 688.236 109.477 601.508 109.569C513.224 109.484 425.83 127.204 344.557 161.669C266.26 194.692 195.119 242.59 135.08 302.708C73.7989 363.84 25.2181 436.481 -7.86669 516.453C-23.1533 553.237 -35.083 591.326 -43.5099 630.257C-43.5642 630.512 -43.7043 630.74 -43.9072 630.904C-44.1101 631.068 -44.3634 631.157 -44.6242 631.157Z" fill="#B9E1FF"/>
<path d="M71.4327 415.963C71.2036 415.965 70.9799 415.895 70.7917 415.764C70.5398 415.595 70.3655 415.333 70.3068 415.036C70.2481 414.738 70.3098 414.429 70.4786 414.177C93.7451 379.458 120.356 347.099 149.932 317.562C208.056 259.352 276.932 212.974 352.739 181.001C431.438 147.63 516.066 130.481 601.553 130.581C643.436 130.56 685.22 134.648 726.304 142.787C726.602 142.846 726.863 143.02 727.032 143.272C727.201 143.524 727.263 143.832 727.205 144.13C727.142 144.427 726.966 144.687 726.713 144.855C726.461 145.024 726.152 145.087 725.854 145.03C684.92 136.907 643.287 132.818 601.553 132.824C516.378 132.727 432.059 149.813 353.647 183.061C278.111 214.912 209.48 261.119 151.565 319.119C122.103 348.547 95.5967 380.788 72.4251 415.383C72.3255 415.558 72.1812 415.705 72.0069 415.807C71.8327 415.909 71.6345 415.963 71.4327 415.963Z" fill="#B9E1FF"/>
<path d="M1229.52 880.408C1229.45 880.415 1229.39 880.415 1229.32 880.408C1229.17 880.382 1229.03 880.328 1228.9 880.247C1228.78 880.166 1228.67 880.061 1228.58 879.938C1228.49 879.814 1228.43 879.675 1228.4 879.528C1228.37 879.381 1228.36 879.229 1228.39 879.081C1234.73 842.746 1237.92 805.93 1237.91 769.046C1238.02 683.911 1220.92 599.632 1187.66 521.26C1155.79 445.749 1109.56 377.141 1051.53 319.248C992.544 260.159 922.446 213.316 845.275 181.413C845.133 181.355 845.003 181.27 844.894 181.162C844.785 181.053 844.699 180.924 844.641 180.782C844.583 180.64 844.553 180.487 844.555 180.333C844.556 180.18 844.588 180.028 844.649 179.887C844.707 179.745 844.792 179.615 844.901 179.506C845.01 179.398 845.139 179.312 845.281 179.254C845.424 179.197 845.576 179.169 845.73 179.171C845.884 179.174 846.035 179.207 846.176 179.269C923.628 211.284 993.98 258.296 1053.18 317.6C1111.42 375.703 1157.82 444.556 1189.8 520.336C1223.19 599.001 1240.34 683.594 1240.23 769.046C1240.24 806.058 1237.04 843.002 1230.67 879.462C1230.62 879.732 1230.48 879.975 1230.27 880.148C1230.06 880.322 1229.79 880.414 1229.52 880.408Z" fill="#B9E1FF"/>
<path d="M1035.86 336.04C1035.71 336.042 1035.56 336.014 1035.42 335.956C1035.29 335.899 1035.16 335.813 1035.05 335.705C978.221 278.795 910.69 233.681 836.346 202.959C761.923 172.029 682.106 156.147 601.506 156.23C519.451 156.136 438.221 172.597 362.682 204.629C331.375 217.855 301.219 233.65 272.521 251.853C272.265 252.016 271.955 252.07 271.658 252.005C271.362 251.939 271.104 251.758 270.941 251.503C270.778 251.245 270.723 250.934 270.789 250.637C270.855 250.339 271.036 250.08 271.292 249.916C300.099 231.647 330.368 215.791 361.789 202.509C437.612 170.362 519.145 153.84 601.506 153.934C682.407 153.848 762.523 169.789 837.224 200.837C911.847 231.687 979.63 276.983 1036.67 334.118C1036.78 334.224 1036.86 334.35 1036.92 334.489C1036.98 334.627 1037.01 334.776 1037.01 334.927C1037.01 335.077 1036.98 335.227 1036.92 335.365C1036.86 335.504 1036.78 335.63 1036.67 335.736C1036.56 335.838 1036.44 335.917 1036.3 335.969C1036.16 336.021 1036.01 336.046 1035.86 336.04Z" fill="#B9E1FF"/>
<path d="M86.8813 1105.5C86.6896 1105.5 86.5008 1105.45 86.3327 1105.36C86.1646 1105.27 86.0223 1105.13 85.9194 1104.97C66.033 1074.44 48.8876 1042.21 34.6835 1008.66C2.51981 932.878 -14.0086 851.384 -13.9117 769.062C-13.9931 688.198 1.95519 608.119 33.012 533.452C63.88 458.855 109.2 391.095 166.364 334.072C166.58 333.859 166.871 333.74 167.173 333.74C167.476 333.74 167.767 333.859 167.982 334.072C168.195 334.287 168.314 334.578 168.314 334.881C168.314 335.184 168.195 335.474 167.982 335.689C111.03 392.501 65.8789 460.009 35.1262 534.329C4.18467 608.718 -11.704 688.499 -11.622 769.062C-11.7155 851.076 4.75027 932.266 36.7898 1007.77C50.9332 1041.21 68.0101 1073.33 87.82 1103.76C87.9843 1104.01 88.041 1104.32 87.978 1104.62C87.9151 1104.91 87.7377 1105.17 87.4842 1105.34C87.3026 1105.45 87.0934 1105.5 86.8813 1105.5Z" fill="#B9E1FF"/>
<path d="M1178.46 642.098C1178.2 642.098 1177.95 642.009 1177.74 641.845C1177.54 641.681 1177.4 641.453 1177.35 641.197C1169.57 606.349 1158.65 572.276 1144.72 539.395C1115.19 469.417 1072.35 405.837 1018.57 352.183C963.902 297.42 898.938 254.007 827.417 224.442C755.822 194.686 679.037 179.408 601.499 179.491C560.629 179.473 519.867 183.696 479.87 192.094C479.723 192.125 479.571 192.128 479.422 192.1C479.274 192.073 479.133 192.015 479.007 191.933C478.881 191.851 478.772 191.745 478.687 191.621C478.602 191.497 478.542 191.356 478.511 191.209C478.48 191.062 478.478 190.91 478.506 190.762C478.533 190.614 478.59 190.472 478.672 190.346C478.755 190.22 478.861 190.112 478.985 190.027C479.109 189.942 479.249 189.882 479.397 189.852C519.556 181.426 560.481 177.187 601.514 177.202C679.351 177.12 756.431 192.458 828.302 222.328C900.099 252.008 965.314 295.587 1020.2 350.559C1074.18 404.424 1117.19 468.253 1146.84 538.502C1160.82 571.519 1171.78 605.736 1179.58 640.733C1179.65 641.028 1179.59 641.337 1179.43 641.593C1179.27 641.849 1179.01 642.03 1178.72 642.098C1178.63 642.109 1178.55 642.109 1178.46 642.098Z" fill="#B9E1FF"/>
<path d="M10.5631 770.176C10.2595 770.176 9.9684 770.056 9.7537 769.841C9.53899 769.627 9.41829 769.336 9.41829 769.032C9.33706 691.232 24.681 614.186 54.5636 542.347C84.2627 470.577 127.866 405.385 182.864 350.521C236.747 296.563 300.597 253.573 370.871 223.939C371.011 223.876 371.163 223.842 371.316 223.839C371.469 223.836 371.622 223.864 371.764 223.921C371.906 223.978 372.036 224.063 372.145 224.171C372.254 224.279 372.34 224.407 372.398 224.549C372.462 224.689 372.496 224.84 372.5 224.994C372.504 225.147 372.476 225.3 372.419 225.442C372.362 225.585 372.277 225.714 372.168 225.823C372.059 225.932 371.93 226.018 371.788 226.075C301.788 255.598 238.187 298.421 184.512 352.169C129.727 406.821 86.2922 471.762 56.7083 543.256C26.9429 614.821 11.6587 691.573 11.7386 769.078C11.7266 769.378 11.5967 769.662 11.3767 769.868C11.1567 770.074 10.8642 770.185 10.5631 770.176Z" fill="#B9E1FF"/>
<path d="M129.568 454.789C129.341 454.79 129.118 454.723 128.927 454.598C128.677 454.428 128.504 454.166 128.446 453.869C128.387 453.572 128.448 453.264 128.614 453.011C149.324 422.091 173.013 393.273 199.344 366.97C251.106 315.138 312.442 273.844 379.948 245.377C450.028 215.665 525.385 200.394 601.508 200.48C676.279 200.399 750.325 215.133 819.366 243.829C819.508 243.886 819.638 243.971 819.747 244.08C819.855 244.188 819.941 244.318 819.999 244.461C820.056 244.603 820.085 244.755 820.083 244.909C820.08 245.063 820.047 245.214 819.984 245.355C819.926 245.496 819.839 245.625 819.731 245.733C819.622 245.841 819.493 245.927 819.351 245.984C819.208 246.042 819.056 246.07 818.903 246.068C818.75 246.066 818.598 246.033 818.458 245.972C749.694 217.395 675.947 202.722 601.477 202.799C525.661 202.714 450.608 217.922 380.811 247.513C313.589 275.856 252.51 316.972 200.962 368.58C174.738 394.778 151.146 423.481 130.523 454.278C130.418 454.434 130.276 454.563 130.109 454.652C129.943 454.742 129.757 454.788 129.568 454.789Z" fill="#B9E1FF"/>
<path d="M601.507 1337.57C561.405 1337.58 521.413 1333.36 482.197 1324.98C482.05 1324.95 481.911 1324.89 481.787 1324.8C481.663 1324.72 481.557 1324.61 481.475 1324.48C481.394 1324.36 481.338 1324.22 481.311 1324.07C481.284 1323.92 481.287 1323.77 481.32 1323.62C481.351 1323.47 481.41 1323.34 481.495 1323.21C481.581 1323.09 481.69 1322.98 481.816 1322.9C481.942 1322.82 482.084 1322.76 482.232 1322.74C482.38 1322.71 482.532 1322.71 482.679 1322.74C521.736 1331.09 561.566 1335.29 601.507 1335.28C677.328 1335.36 752.386 1320.15 822.188 1290.56C889.421 1262.19 950.51 1221.06 1002.07 1169.44C1054.68 1116.95 1096.38 1054.58 1124.8 985.919C1153.39 917.186 1168.07 843.47 1168 769.031C1168.09 693.251 1152.87 618.232 1123.25 548.473C1094.89 481.26 1053.74 420.191 1002.09 368.654C1001.98 368.548 1001.9 368.423 1001.84 368.284C1001.78 368.145 1001.75 367.996 1001.75 367.846C1001.75 367.695 1001.78 367.547 1001.84 367.408C1001.9 367.269 1001.98 367.143 1002.09 367.037C1002.2 366.93 1002.32 366.845 1002.46 366.787C1002.6 366.729 1002.75 366.699 1002.9 366.699C1003.05 366.699 1003.2 366.729 1003.34 366.787C1003.48 366.845 1003.6 366.93 1003.71 367.037C1055.56 418.781 1096.87 480.096 1125.35 547.58C1155.07 617.623 1170.35 692.945 1170.26 769.031C1170.34 843.77 1155.6 917.784 1126.89 986.796C1098.36 1055.73 1056.48 1118.35 1003.66 1171.05C951.913 1222.88 890.593 1264.18 823.104 1292.66C753.014 1322.38 677.643 1337.66 601.507 1337.57Z" fill="#B9E1FF"/>
<path d="M70.669 649.574C70.5854 649.586 70.5007 649.586 70.4171 649.574C70.2701 649.541 70.1312 649.479 70.0083 649.392C69.8853 649.305 69.7809 649.194 69.7008 649.066C69.6207 648.939 69.5663 648.797 69.5413 648.648C69.5162 648.5 69.5208 648.347 69.5547 648.201C76.4155 618.138 85.8064 588.71 97.6267 560.229C124.987 494.107 165.158 434.046 215.829 383.501C265.466 333.789 324.289 294.186 389.03 266.89C422.553 252.703 457.41 241.9 493.082 234.642C493.379 234.583 493.688 234.644 493.941 234.811C494.193 234.978 494.37 235.238 494.433 235.534C494.463 235.682 494.464 235.833 494.435 235.981C494.407 236.128 494.349 236.269 494.266 236.394C494.183 236.52 494.076 236.628 493.952 236.712C493.827 236.796 493.687 236.854 493.54 236.884C458.017 244.112 423.306 254.869 389.923 268.995C325.447 296.176 266.866 335.614 217.432 385.118C166.973 435.449 126.972 495.26 99.7331 561.107C87.9588 589.469 78.6038 618.775 71.768 648.712C71.7057 648.957 71.5643 649.174 71.3655 649.33C71.1667 649.486 70.9217 649.572 70.669 649.574Z" fill="#B9E1FF"/>
<path d="M1104.32 978.581C1104.17 978.581 1104.03 978.55 1103.89 978.49C1103.75 978.433 1103.62 978.348 1103.51 978.24C1103.4 978.131 1103.31 978.002 1103.25 977.859C1103.19 977.717 1103.16 977.565 1103.17 977.411C1103.17 977.257 1103.2 977.105 1103.26 976.964C1130.68 911.06 1144.76 840.377 1144.68 769.002C1144.77 696.339 1130.18 624.407 1101.79 557.515C1074.59 493.069 1035.13 434.513 985.603 385.097C935.253 334.665 875.423 294.684 809.555 267.456C743.622 240.053 672.909 225.983 601.504 226.061C601.201 226.061 600.909 225.94 600.694 225.725C600.48 225.511 600.359 225.22 600.359 224.916C600.359 224.613 600.48 224.321 600.694 224.106C600.909 223.892 601.201 223.772 601.504 223.772C673.211 223.695 744.221 237.823 810.432 265.342C876.571 292.698 936.646 332.858 987.198 383.51C1036.94 433.143 1076.56 491.958 1103.87 556.691C1132.39 623.865 1147.04 696.101 1146.95 769.07C1147.02 840.746 1132.89 911.726 1105.36 977.91C1105.27 978.11 1105.13 978.278 1104.94 978.397C1104.76 978.516 1104.54 978.581 1104.32 978.581Z" fill="#B9E1FF"/>
<path d="M1081.37 567.316C1081.15 567.317 1080.93 567.251 1080.74 567.127C1080.56 567.004 1080.41 566.828 1080.32 566.622C1054.29 504.941 1016.53 448.898 969.125 401.604C920.935 353.337 863.673 315.07 800.633 289.006C737.527 262.78 669.848 249.311 601.505 249.38C531.927 249.303 463.049 263.26 398.995 290.417C368.227 303.424 338.778 319.353 311.055 337.985C310.803 338.153 310.496 338.215 310.199 338.157C309.902 338.1 309.639 337.929 309.468 337.68C309.298 337.427 309.236 337.117 309.295 336.818C309.354 336.519 309.528 336.256 309.781 336.086C337.626 317.371 367.205 301.373 398.11 288.312C462.445 261.041 531.624 247.028 601.505 247.115C670.137 247.046 738.102 260.574 801.472 286.916C864.793 313.093 922.309 351.528 970.712 400.01C1018.32 447.511 1056.25 503.8 1082.4 565.753C1082.46 565.892 1082.5 566.043 1082.5 566.196C1082.5 566.349 1082.48 566.501 1082.42 566.644C1082.36 566.786 1082.28 566.916 1082.17 567.025C1082.06 567.134 1081.94 567.22 1081.79 567.278C1081.66 567.32 1081.51 567.332 1081.37 567.316Z" fill="#B9E1FF"/>
<path d="M169.332 1061.14C169.145 1061.14 168.961 1061.1 168.796 1061.01C168.63 1060.92 168.49 1060.79 168.386 1060.64C149.652 1032.8 133.642 1003.23 120.576 972.332C93.2942 908.027 79.2761 838.88 79.3617 769.032C79.2948 700.43 92.8255 632.494 119.172 569.149C134.288 532.672 153.492 498.026 176.415 465.873C176.502 465.75 176.611 465.645 176.739 465.565C176.866 465.485 177.008 465.432 177.156 465.407C177.305 465.382 177.457 465.387 177.603 465.421C177.75 465.455 177.888 465.518 178.01 465.606C178.133 465.692 178.237 465.802 178.317 465.93C178.397 466.057 178.452 466.199 178.476 466.348C178.501 466.496 178.497 466.648 178.462 466.794C178.428 466.94 178.365 467.078 178.277 467.2C155.451 499.198 136.329 533.681 121.279 569.988C95.0371 633.063 81.5634 700.711 81.6361 769.023C81.5558 838.566 95.5166 907.41 122.683 971.432C135.697 1002.2 151.638 1031.64 170.286 1059.36C170.455 1059.61 170.517 1059.92 170.458 1060.22C170.399 1060.51 170.225 1060.78 169.973 1060.94C169.783 1061.07 169.56 1061.14 169.332 1061.14Z" fill="#B9E1FF"/>
<path d="M953.434 1121.97C953.283 1121.97 953.135 1121.94 952.996 1121.88C952.857 1121.82 952.731 1121.74 952.625 1121.63C952.518 1121.53 952.432 1121.4 952.374 1121.26C952.316 1121.12 952.287 1120.97 952.287 1120.82C952.287 1120.67 952.316 1120.52 952.374 1120.39C952.432 1120.25 952.518 1120.12 952.625 1120.02C998.736 1074 1035.3 1019.33 1060.2 959.148C1085.27 898.898 1098.14 834.282 1098.07 769.031C1098.14 702.604 1084.81 636.845 1058.85 575.694C1033.99 516.779 997.915 463.25 952.64 418.076C906.613 371.965 851.919 335.407 791.704 310.505C760.468 297.542 727.989 287.803 694.773 281.439C694.474 281.381 694.21 281.207 694.038 280.956C693.867 280.704 693.802 280.395 693.857 280.095C693.917 279.798 694.091 279.536 694.342 279.366C694.594 279.196 694.902 279.132 695.201 279.188C728.569 285.591 761.197 295.384 792.574 308.415C853.065 333.423 908.011 370.142 954.25 416.458C999.737 461.841 1035.98 515.62 1060.96 574.809C1087.03 636.24 1100.43 702.3 1100.35 769.031C1100.42 834.582 1087.49 899.496 1062.32 960.026C1037.29 1020.49 1000.56 1075.41 954.235 1121.63C954.021 1121.84 953.734 1121.96 953.434 1121.97Z" fill="#B9E1FF"/>
<path d="M141.749 579.631C141.6 579.631 141.452 579.599 141.315 579.539C141.172 579.482 141.042 579.396 140.933 579.288C140.824 579.18 140.738 579.05 140.68 578.908C140.622 578.766 140.592 578.614 140.594 578.46C140.595 578.307 140.628 578.154 140.689 578.013C165.712 517.544 202.448 462.617 248.786 416.391C294.184 370.93 347.98 334.711 407.188 309.743C468.651 283.682 534.743 270.287 601.508 270.362C601.811 270.362 602.102 270.482 602.317 270.697C602.532 270.912 602.653 271.203 602.653 271.506C602.653 271.81 602.532 272.1 602.317 272.315C602.102 272.53 601.811 272.65 601.508 272.65C535.05 272.576 469.261 285.908 408.081 311.849C349.144 336.703 295.595 372.756 250.404 418.008C204.274 464.021 167.7 518.697 142.788 578.891C142.708 579.103 142.566 579.287 142.381 579.419C142.196 579.551 141.976 579.624 141.749 579.631Z" fill="#B9E1FF"/>
<path d="M266.065 1105.49C265.761 1105.49 265.471 1105.37 265.256 1105.15C221.883 1061.89 187.327 1010.62 163.509 954.182C138.659 895.618 125.89 832.644 125.965 769.031C125.899 706.546 138.221 644.667 162.219 586.969C186.063 529.312 221.081 476.937 265.256 432.861C308.548 389.531 359.845 355.017 416.3 331.234C416.439 331.171 416.59 331.137 416.743 331.133C416.896 331.13 417.048 331.157 417.191 331.213C417.333 331.269 417.462 331.353 417.572 331.46C417.681 331.567 417.767 331.695 417.826 331.836C417.888 331.977 417.921 332.128 417.923 332.28C417.926 332.433 417.898 332.585 417.841 332.727C417.784 332.87 417.7 332.998 417.592 333.107C417.485 333.216 417.357 333.303 417.216 333.362C361.044 357.046 310.008 391.408 266.942 434.54C222.977 478.395 188.125 530.51 164.394 587.885C140.509 645.304 128.244 706.885 128.308 769.069C128.242 832.379 140.962 895.049 165.707 953.327C189.406 1009.49 223.794 1060.52 266.958 1103.58C267.065 1103.68 267.15 1103.81 267.208 1103.95C267.266 1104.08 267.296 1104.23 267.296 1104.38C267.296 1104.53 267.266 1104.68 267.208 1104.82C267.15 1104.96 267.065 1105.09 266.958 1105.19C266.838 1105.3 266.697 1105.39 266.543 1105.44C266.389 1105.49 266.226 1105.51 266.065 1105.49Z" fill="#B9E1FF"/>
<path d="M783.209 332.135C783.059 332.137 782.912 332.108 782.774 332.051C725.328 308.177 663.719 295.917 601.505 295.98C569.915 295.97 538.402 299.114 507.437 305.364C507.289 305.394 507.137 305.395 506.99 305.366C506.842 305.338 506.702 305.281 506.576 305.198C506.451 305.115 506.343 305.008 506.259 304.884C506.174 304.759 506.116 304.619 506.086 304.472C506.056 304.324 506.055 304.173 506.083 304.025C506.112 303.878 506.169 303.737 506.252 303.612C506.335 303.486 506.442 303.378 506.566 303.294C506.691 303.21 506.831 303.152 506.979 303.122C538.095 296.841 569.761 293.682 601.505 293.692C664.02 293.629 725.927 305.948 783.651 329.937C783.794 329.995 783.924 330.081 784.032 330.189C784.141 330.298 784.227 330.427 784.285 330.569C784.342 330.712 784.371 330.864 784.368 331.018C784.366 331.171 784.332 331.323 784.27 331.463C784.178 331.666 784.028 331.839 783.84 331.958C783.651 332.077 783.432 332.139 783.209 332.135Z" fill="#B9E1FF"/>
<path d="M601.506 1221.07C542.043 1221.14 483.157 1209.42 428.251 1186.6C373.425 1163.93 323.623 1130.65 281.71 1088.68C240.464 1047.53 207.604 998.771 184.955 945.104C161.322 889.413 149.178 829.526 149.25 769.032C149.2 709.619 160.926 650.785 183.749 595.927C183.806 595.784 183.892 595.655 184 595.546C184.109 595.437 184.238 595.352 184.381 595.294C184.523 595.237 184.676 595.208 184.829 595.211C184.983 595.213 185.135 595.247 185.275 595.309C185.418 595.366 185.549 595.45 185.658 595.559C185.768 595.667 185.854 595.796 185.913 595.939C185.971 596.081 186 596.234 185.998 596.388C185.996 596.542 185.963 596.694 185.901 596.835C163.191 651.424 151.53 709.972 151.594 769.093C151.522 829.28 163.604 888.862 187.115 944.272C209.651 997.669 242.348 1046.18 283.389 1087.12C325.082 1128.88 374.625 1162 429.167 1184.55C483.787 1207.25 542.367 1218.91 601.521 1218.84C661.742 1218.91 721.357 1206.83 776.798 1183.33C830.199 1160.8 878.721 1128.13 919.676 1087.13C961.461 1045.43 994.589 995.894 1017.16 941.358C1039.88 886.769 1051.55 828.219 1051.5 769.093C1051.57 708.905 1039.49 649.321 1015.97 593.913C993.441 540.528 960.755 492.022 919.729 451.088C878.023 409.31 828.461 376.189 773.898 353.634C719.285 330.919 660.71 319.251 601.559 319.303C541.319 319.22 481.682 331.294 426.221 354.801C372.826 377.317 324.31 409.978 283.366 450.973C283.26 451.081 283.134 451.166 282.995 451.224C282.857 451.282 282.708 451.311 282.557 451.311C282.407 451.311 282.258 451.282 282.119 451.224C281.98 451.166 281.854 451.081 281.748 450.973C281.641 450.868 281.556 450.742 281.498 450.603C281.44 450.464 281.41 450.316 281.41 450.165C281.41 450.015 281.44 449.865 281.498 449.726C281.556 449.587 281.641 449.462 281.748 449.356C322.905 408.143 371.675 375.308 425.351 352.673C481.068 329.047 540.983 316.905 601.506 316.976C660.956 316.913 719.828 328.628 774.722 351.444C829.552 374.117 879.355 407.405 921.263 449.394C962.5 490.533 995.352 539.286 1018 592.944C1041.63 648.634 1053.78 708.521 1053.71 769.016C1053.77 828.453 1042.06 887.314 1019.23 942.197C996.544 996.999 963.245 1046.78 921.248 1088.68C880.086 1129.89 831.317 1162.72 777.645 1185.37C721.932 1208.99 662.024 1221.13 601.506 1221.07Z" fill="#B9E1FF"/>
<path d="M996.672 933.958C996.523 933.956 996.375 933.928 996.237 933.873C996.095 933.815 995.966 933.729 995.858 933.621C995.749 933.512 995.664 933.384 995.605 933.242C995.547 933.1 995.518 932.947 995.519 932.794C995.52 932.641 995.551 932.489 995.611 932.348C1017.14 880.584 1028.2 825.068 1028.14 769.009C1028.21 711.937 1016.75 655.438 994.451 602.899C973.086 552.282 942.095 506.29 903.198 467.475C863.648 427.864 816.652 396.46 764.915 375.071C764.773 375.013 764.645 374.927 764.537 374.818C764.429 374.71 764.343 374.581 764.285 374.439C764.228 374.296 764.199 374.144 764.201 373.991C764.203 373.837 764.236 373.686 764.297 373.545C764.355 373.403 764.44 373.273 764.549 373.165C764.658 373.056 764.787 372.97 764.929 372.913C765.072 372.855 765.225 372.827 765.378 372.829C765.532 372.832 765.683 372.865 765.824 372.928C817.839 394.43 865.086 426.002 904.847 465.827C943.95 504.866 975.096 551.123 996.557 602.03C1018.98 654.851 1030.5 711.653 1030.43 769.032C1030.49 825.392 1019.38 881.206 997.733 933.248C997.646 933.459 997.499 933.638 997.31 933.765C997.122 933.891 996.899 933.958 996.672 933.958Z" fill="#B9E1FF"/>
<path d="M206.34 606.402C206.189 606.4 206.039 606.371 205.897 606.318C205.756 606.259 205.628 606.172 205.52 606.063C205.413 605.954 205.328 605.826 205.271 605.684C205.213 605.542 205.184 605.39 205.186 605.237C205.187 605.084 205.219 604.933 205.279 604.792C226.799 552.808 258.387 505.59 298.226 465.85C337.258 426.758 383.515 395.614 434.425 374.148C487.272 351.74 544.1 340.224 601.505 340.29C601.809 340.29 602.1 340.411 602.315 340.626C602.53 340.84 602.65 341.131 602.65 341.435C602.65 341.738 602.53 342.029 602.315 342.244C602.1 342.458 601.809 342.579 601.505 342.579C544.407 342.514 487.883 353.967 435.318 376.254C384.68 397.608 338.671 428.586 299.844 467.468C260.217 507.003 228.801 553.978 207.401 605.692C207.314 605.902 207.167 606.082 206.979 606.208C206.79 606.335 206.567 606.402 206.34 606.402Z" fill="#B9E1FF"/>
<path d="M228.969 927.648C228.744 927.649 228.523 927.584 228.335 927.461C228.146 927.337 227.998 927.161 227.908 926.955C206.714 877.003 195.825 823.29 195.891 769.032C195.835 715.735 206.343 662.955 226.809 613.741C247.156 564.57 277.03 519.907 314.711 482.322C351.622 445.355 395.364 415.906 443.507 395.609C493.477 374.41 547.213 363.512 601.497 363.567C654.823 363.519 707.628 374.039 756.861 394.518C806.049 414.853 850.728 444.709 888.329 482.368C925.315 519.269 954.782 562.996 975.093 611.124C975.155 611.264 975.188 611.415 975.19 611.568C975.193 611.721 975.165 611.873 975.108 612.015C975.051 612.157 974.967 612.286 974.859 612.395C974.752 612.504 974.624 612.591 974.483 612.65C974.342 612.711 974.192 612.744 974.039 612.747C973.886 612.749 973.734 612.722 973.592 612.665C973.449 612.608 973.32 612.523 973.211 612.416C973.102 612.309 973.015 612.181 972.956 612.04C952.766 564.189 923.476 520.709 886.711 484.015C849.325 446.566 804.899 416.877 755.991 396.654C707.032 376.309 654.526 365.862 601.505 365.916C547.527 365.855 494.092 376.683 444.4 397.753C396.53 417.932 353.035 447.211 316.329 483.962C278.859 521.33 249.156 565.74 228.931 614.633C208.574 663.568 198.123 716.05 198.181 769.047C198.113 822.999 208.943 876.409 230.023 926.077C230.085 926.217 230.119 926.368 230.122 926.521C230.125 926.674 230.097 926.827 230.041 926.969C229.984 927.111 229.898 927.241 229.79 927.35C229.682 927.458 229.554 927.545 229.412 927.603C229.269 927.647 229.119 927.662 228.969 927.648Z" fill="#B9E1FF"/>
<path d="M871.045 500.784C870.895 500.784 870.746 500.755 870.607 500.697C870.468 500.639 870.342 500.555 870.236 500.448C835.007 465.174 793.147 437.211 747.065 418.168C700.939 398.987 651.467 389.134 601.509 389.178C550.649 389.12 500.301 399.323 453.479 419.176C453.339 419.238 453.188 419.272 453.035 419.275C452.881 419.278 452.729 419.25 452.586 419.194C452.444 419.137 452.315 419.051 452.206 418.943C452.097 418.835 452.011 418.707 451.953 418.565C451.891 418.425 451.858 418.274 451.856 418.121C451.853 417.969 451.881 417.816 451.938 417.674C451.994 417.532 452.079 417.403 452.187 417.294C452.294 417.185 452.422 417.098 452.563 417.039C499.676 397.074 550.337 386.82 601.509 386.889C651.766 386.836 701.536 396.739 747.943 416.025C794.304 435.192 836.416 463.334 871.854 498.831C872.067 499.047 872.186 499.337 872.186 499.64C872.186 499.942 872.067 500.233 871.854 500.448C871.639 500.661 871.348 500.781 871.045 500.784Z" fill="#B9E1FF"/>
<path d="M243.657 770.176C243.353 770.176 243.062 770.055 242.847 769.84C242.633 769.626 242.512 769.335 242.512 769.031C242.461 721.862 251.76 675.149 269.874 631.592C287.882 588.074 314.321 548.545 347.671 515.279C380.339 482.557 419.055 456.488 461.668 438.522C505.898 419.767 553.462 410.13 601.508 410.188C601.811 410.188 602.102 410.308 602.317 410.523C602.532 410.738 602.653 411.029 602.653 411.332C602.653 411.636 602.532 411.927 602.317 412.141C602.102 412.356 601.811 412.476 601.508 412.476C553.769 412.424 506.511 421.999 462.56 440.628C420.221 458.493 381.752 484.403 349.289 516.919C316.153 549.973 289.885 589.251 271.996 632.492C253.992 675.769 244.749 722.184 244.802 769.054C244.796 769.353 244.672 769.639 244.458 769.849C244.244 770.058 243.956 770.176 243.657 770.176Z" fill="#B9E1FF"/>
<path d="M932.078 907.195C931.928 907.194 931.78 907.163 931.643 907.103C931.5 907.045 931.371 906.96 931.262 906.852C931.153 906.743 931.067 906.614 931.008 906.472C930.95 906.33 930.921 906.177 930.922 906.023C930.924 905.87 930.956 905.718 931.017 905.577C949.021 862.3 958.264 815.885 958.211 769.016C958.267 721.31 948.688 674.083 930.048 630.166C912.179 587.84 886.258 549.384 853.724 516.935C820.66 483.813 781.367 457.556 738.109 439.675C737.967 439.617 737.837 439.532 737.729 439.423C737.62 439.314 737.534 439.185 737.476 439.043C737.419 438.901 737.39 438.748 737.393 438.595C737.395 438.441 737.429 438.289 737.491 438.149C737.549 438.007 737.634 437.877 737.743 437.768C737.851 437.66 737.981 437.573 738.123 437.516C738.266 437.458 738.418 437.43 738.572 437.432C738.726 437.435 738.877 437.468 739.018 437.531C782.552 455.527 822.096 481.953 855.373 515.287C888.105 547.947 914.184 586.648 932.162 629.243C950.921 673.458 960.555 721.005 960.486 769.031C960.538 816.204 951.238 862.918 933.124 906.477C933.039 906.686 932.895 906.867 932.709 906.994C932.523 907.122 932.303 907.191 932.078 907.195Z" fill="#B9E1FF"/>
<path d="M936.064 770.175C935.76 770.175 935.469 770.054 935.254 769.84C935.04 769.625 934.919 769.334 934.919 769.031C934.972 724.433 926.016 680.283 908.587 639.228C891.893 599.66 867.672 563.708 837.271 533.367C821.844 517.935 804.941 504.053 786.805 491.918C786.553 491.749 786.379 491.487 786.32 491.189C786.262 490.892 786.323 490.583 786.492 490.331C786.575 490.206 786.683 490.098 786.808 490.014C786.932 489.93 787.072 489.872 787.22 489.842C787.367 489.812 787.519 489.812 787.667 489.841C787.814 489.87 787.955 489.927 788.08 490.01C806.339 502.231 823.357 516.211 838.889 531.749C869.496 562.289 893.881 598.477 910.694 638.305C928.235 679.644 937.249 724.097 937.193 769C937.197 769.152 937.171 769.302 937.117 769.443C937.062 769.585 936.979 769.714 936.874 769.823C936.769 769.933 936.643 770.02 936.504 770.08C936.365 770.141 936.215 770.173 936.064 770.175Z" fill="#B9E1FF"/>
<path d="M323.353 584.315C323.128 584.315 322.908 584.248 322.72 584.125C322.468 583.956 322.293 583.694 322.234 583.396C322.176 583.098 322.238 582.79 322.407 582.538C334.628 564.287 348.608 547.276 364.148 531.75C394.699 501.156 430.903 476.783 470.749 459.983C512.107 442.445 556.581 433.433 601.507 433.488C645.635 433.439 689.335 442.134 730.081 459.068C730.225 459.125 730.355 459.209 730.464 459.318C730.574 459.426 730.66 459.556 730.718 459.698C730.775 459.841 730.803 459.994 730.8 460.148C730.797 460.302 730.763 460.454 730.7 460.594C730.641 460.736 730.555 460.864 730.446 460.972C730.338 461.081 730.208 461.166 730.066 461.224C729.924 461.281 729.772 461.31 729.619 461.308C729.465 461.306 729.314 461.273 729.173 461.212C688.705 444.393 645.303 435.758 601.476 435.807C556.858 435.753 512.687 444.703 471.612 462.12C432.053 478.801 396.109 502.998 365.774 533.368C350.338 548.787 336.449 565.68 324.307 583.804C324.204 583.962 324.062 584.092 323.895 584.181C323.729 584.271 323.542 584.317 323.353 584.315Z" fill="#B9E1FF"/>
<path d="M601.507 1081.28C560.439 1081.33 519.769 1073.25 481.847 1057.49C481.704 1057.43 481.575 1057.34 481.466 1057.24C481.357 1057.13 481.272 1057 481.214 1056.86C481.156 1056.71 481.127 1056.56 481.13 1056.41C481.133 1056.25 481.166 1056.1 481.228 1055.96C481.286 1055.82 481.372 1055.69 481.48 1055.58C481.589 1055.47 481.718 1055.39 481.86 1055.33C482.003 1055.27 482.155 1055.24 482.309 1055.25C482.463 1055.25 482.614 1055.28 482.755 1055.34C520.396 1071 560.769 1079.04 601.537 1079C643.038 1079.04 684.12 1070.72 722.327 1054.52C759.128 1038.99 792.565 1016.48 820.784 988.216C849.58 959.48 872.406 925.336 887.949 887.748C903.605 850.127 911.647 809.778 911.609 769.031C911.661 727.552 903.336 686.488 887.133 648.301C871.6 611.514 849.073 578.091 820.8 549.885C792.053 521.104 757.897 498.288 720.297 482.749C682.657 467.1 642.288 459.062 601.522 459.099C560.022 459.048 518.938 467.373 480.732 483.573C462.378 491.325 444.814 500.826 428.283 511.945C428.03 512.114 427.72 512.177 427.421 512.118C427.122 512.059 426.858 511.884 426.688 511.632C426.519 511.38 426.457 511.071 426.516 510.774C426.574 510.476 426.749 510.214 427.001 510.045C443.658 498.844 461.355 489.271 479.847 481.459C518.333 465.144 559.718 456.76 601.522 456.81C642.585 456.766 683.25 464.855 721.167 480.612C759.052 496.269 793.463 519.265 822.418 548.275C850.904 576.7 873.597 610.382 889.239 647.454C905.563 685.923 913.95 727.29 913.899 769.077C913.947 810.123 905.854 850.771 890.086 888.671C874.42 926.537 851.417 960.932 822.403 989.879C793.963 1018.35 760.267 1041.03 723.182 1056.67C684.692 1072.97 643.308 1081.34 601.507 1081.28Z" fill="#B9E1FF"/>
<path d="M866.698 658.081C866.473 658.079 866.253 658.013 866.066 657.888C865.879 657.763 865.733 657.586 865.645 657.379C851.284 623.351 830.451 592.433 804.303 566.341C777.717 539.714 746.126 518.604 711.349 504.224C676.538 489.758 639.204 482.332 601.504 482.375C601.201 482.375 600.909 482.254 600.694 482.04C600.48 481.825 600.359 481.534 600.359 481.231C600.359 480.927 600.48 480.636 600.694 480.421C600.909 480.207 601.201 480.086 601.504 480.086C639.504 480.036 677.136 487.514 712.227 502.088C747.281 516.584 779.123 537.862 805.922 564.701C832.274 591.003 853.269 622.166 867.744 656.463C867.807 656.603 867.84 656.754 867.844 656.907C867.848 657.06 867.82 657.211 867.764 657.354C867.708 657.496 867.624 657.626 867.517 657.735C867.41 657.844 867.282 657.93 867.141 657.989C867.001 658.048 866.85 658.08 866.698 658.081Z" fill="#B9E1FF"/>
<path d="M601.508 1057.98C563.504 1058.03 525.869 1050.54 490.778 1035.95C455.731 1021.46 423.896 1000.19 397.106 973.354C370.752 947.048 349.756 915.879 335.284 881.576C320.178 845.979 312.416 807.7 312.463 769.032C312.426 731.05 319.914 693.437 334.497 658.363C349.001 623.324 370.292 591.496 397.144 564.709C423.452 538.365 454.627 517.378 488.938 502.913C506.702 495.397 525.173 489.675 544.075 485.831C544.372 485.773 544.68 485.833 544.933 486.001C545.186 486.168 545.363 486.427 545.426 486.724C545.484 487.021 545.423 487.329 545.256 487.582C545.089 487.835 544.829 488.011 544.532 488.074C525.779 491.886 507.455 497.562 489.831 505.018C455.786 519.369 424.853 540.19 398.747 566.326C372.101 592.901 350.976 624.481 336.589 659.249C322.114 694.042 314.682 731.358 314.722 769.039C314.675 807.4 322.374 845.376 337.36 880.691C351.735 914.725 372.583 945.645 398.747 971.737C425.327 998.357 456.909 1019.46 491.678 1033.84C526.491 1048.31 563.828 1055.74 601.531 1055.7C639.897 1055.74 677.878 1048.05 713.2 1033.08C713.34 1033.01 713.491 1032.98 713.645 1032.98C713.798 1032.97 713.95 1033 714.092 1033.06C714.235 1033.11 714.364 1033.2 714.473 1033.31C714.582 1033.42 714.668 1033.54 714.726 1033.69C714.788 1033.83 714.821 1033.98 714.823 1034.13C714.826 1034.28 714.798 1034.43 714.741 1034.58C714.684 1034.72 714.6 1034.85 714.492 1034.96C714.385 1035.07 714.257 1035.15 714.116 1035.21C678.495 1050.3 640.194 1058.04 601.508 1057.98Z" fill="#B9E1FF"/>
</g>
</svg>
