<svg width="283" height="335" viewBox="0 0 283 335" fill="none" xmlns="http://www.w3.org/2000/svg"><g filter="url(#a)"><rect width="283" height="335" rx="8" fill="#fff"/><g clip-path="url(#b)"><g clip-path="url(#c)"><path fill-rule="evenodd" clip-rule="evenodd" d="M29.102 296.517v1.379H36v-1.379h-6.898Zm0 2.759v1.38H36v-1.38h-6.898Z" fill="#777DB5"/></g><path d="M46.069 302.688v-3.079h2.384c.728 0 1.313-.199 1.754-.596.43-.398.651-.96.651-1.678 0-.673-.21-1.214-.629-1.611-.42-.397-1.004-.596-1.732-.596h-3.852v7.56h1.424Zm0-6.313h2.152c.353 0 .629.089.828.254.198.177.297.43.297.773 0 .32-.099.573-.286.75-.2.188-.475.276-.84.276h-2.15v-2.053Zm7.377 6.313v-3.19c.176-.75.684-1.125 1.523-1.125.176 0 .353.022.53.055l-.078-1.313a2.15 2.15 0 0 0-.43-.045c-.718 0-1.214.32-1.501.95h-.088v-.872h-1.336v5.54h1.38Zm2.63-2.77c0 .882.254 1.589.773 2.118.519.541 1.203.806 2.041.806.839 0 1.512-.265 2.03-.806.52-.529.784-1.236.784-2.118 0-.872-.264-1.578-.783-2.119-.519-.53-1.192-.806-2.03-.806-.84 0-1.523.276-2.042.806-.519.541-.773 1.247-.773 2.119Zm1.402 0c0-.508.121-.916.364-1.214.243-.298.585-.453 1.048-.453.43 0 .773.144 1.027.431.253.287.386.695.386 1.236 0 .518-.121.927-.364 1.225-.243.309-.585.452-1.049.452-.441 0-.783-.143-1.037-.43-.254-.287-.375-.696-.375-1.247Zm11.762-2.77h-4.315v-1.203c.155-.122.508-.188 1.049-.188.408 0 .717.055.927.144v-1.159c-.21-.088-.574-.143-1.082-.143-.651 0-1.192.143-1.622.43-.442.287-.651.739-.651 1.335v.784h-1.324v1.158h1.324v4.382h1.38v-4.382h2.935v4.382h1.38v-5.54Zm-1.38-.784h1.38v-1.644h-1.38v1.644Zm3.717 1.942v2.848c0 .54.154.949.485 1.236.331.286.817.419 1.468.419.507 0 .894-.055 1.17-.188v-1.125c-.298.11-.651.154-1.06.154-.32 0-.552-.033-.684-.099v-3.245h1.887v-1.158h-1.887v-2.428h-1.38v2.428h-1.434v1.158h1.435Zm7.963 4.382 3.123-7.968H81.26l-3.112 7.968h1.39Zm12.992 0v-1.236h-4.347v-6.324H86.76v7.56h5.772Zm.746-2.77c0 .882.254 1.589.772 2.118.519.541 1.203.806 2.042.806.838 0 1.512-.265 2.03-.806.519-.529.784-1.236.784-2.118 0-.872-.265-1.578-.784-2.119-.518-.53-1.192-.806-2.03-.806-.839 0-1.523.276-2.042.806-.518.541-.772 1.247-.772 2.119Zm1.401 0c0-.508.122-.916.364-1.214.243-.298.585-.453 1.049-.453.43 0 .772.144 1.026.431.254.287.386.695.386 1.236 0 .518-.121.927-.364 1.225-.243.309-.585.452-1.048.452-.442 0-.784-.143-1.038-.43-.253-.287-.375-.696-.375-1.247Zm5.096 1.037c-.012.596.198 1.059.64 1.39.43.331 1.004.497 1.732.497.773 0 1.38-.154 1.821-.475.441-.32.662-.772.662-1.357 0-.894-.53-1.434-1.589-1.622l-1.004-.166c-.497-.088-.74-.298-.74-.607 0-.176.078-.32.232-.43.155-.11.364-.165.651-.165.662 0 1.005.275 1.027.827h1.269c.022-.585-.177-1.037-.585-1.368-.409-.331-.982-.497-1.733-.497-.662 0-1.203.166-1.644.475-.441.32-.651.75-.651 1.291 0 .883.574 1.423 1.721 1.611l.883.143c.486.078.74.287.74.63 0 .22-.089.386-.254.507-.166.122-.397.177-.684.177-.365 0-.64-.067-.839-.221-.199-.155-.298-.364-.309-.64h-1.346Zm5.657 0c-.011.596.199 1.059.64 1.39.431.331 1.005.497 1.733.497.772 0 1.379-.154 1.821-.475.441-.32.662-.772.662-1.357 0-.894-.53-1.434-1.589-1.622l-1.004-.166c-.497-.088-.74-.298-.74-.607 0-.176.078-.32.232-.43.155-.11.364-.165.651-.165.662 0 1.004.275 1.026.827h1.269c.023-.585-.176-1.037-.584-1.368-.409-.331-.983-.497-1.733-.497-.662 0-1.203.166-1.644.475-.442.32-.651.75-.651 1.291 0 .883.574 1.423 1.721 1.611l.883.143c.486.078.739.287.739.63 0 .22-.088.386-.253.507-.166.122-.398.177-.685.177-.364 0-.64-.067-.838-.221-.199-.155-.298-.364-.309-.64h-1.347Z" fill="#071278"/><g clip-path="url(#d)"><path d="m251.188 294.447-.972.973 3.159 3.166-3.159 3.165.972.973 4.139-4.138-4.139-4.139Z" fill="#777DB5"/></g><rect x="198.08" y="295.136" width="46.211" height="6.897" rx="3.449" fill="#F2F2F2"/></g><path opacity=".5" d="M31.862 273.41h226.226" stroke="#777DB5" stroke-width=".69" stroke-linecap="round" stroke-linejoin="round" stroke-dasharray="1.38 2.76"/><g clip-path="url(#e)"><g clip-path="url(#f)"><path fill-rule="evenodd" clip-rule="evenodd" d="M31.861 244.79v2.759h-2.759v1.379h2.76v2.759h1.379v-2.759H36v-1.379h-2.76v-2.759h-1.379Z" fill="#777DB5"/></g><path d="M46.058 252.341v-5.948h.077l2.472 5.948h1.06l2.438-5.948h.089v5.948h1.401v-7.559h-2.251l-2.174 5.33h-.088l-2.163-5.33h-2.274v7.559h1.413Zm9.016-2.77c0 .883.254 1.589.773 2.119.518.54 1.202.805 2.041.805s1.512-.265 2.03-.805c.52-.53.784-1.236.784-2.119 0-.872-.265-1.578-.783-2.119-.519-.53-1.192-.805-2.03-.805-.84 0-1.524.275-2.043.805-.518.541-.772 1.247-.772 2.119Zm1.402 0c0-.508.121-.916.364-1.214.242-.298.585-.452 1.048-.452.43 0 .773.143 1.026.43.254.287.387.695.387 1.236 0 .519-.122.927-.364 1.225-.243.309-.585.452-1.049.452-.441 0-.783-.143-1.037-.43-.254-.287-.375-.695-.375-1.247Zm6.949 2.77v-3.388c.11-.309.287-.563.54-.761a1.27 1.27 0 0 1 .828-.298c.298 0 .53.099.706.298.166.198.254.485.254.882v3.267h1.369v-3.62c0-.64-.177-1.147-.519-1.512-.342-.364-.794-.551-1.368-.562-.398 0-.75.088-1.06.264-.32.177-.54.42-.65.707h-.1v-.817h-1.368v5.54h1.368Zm4.98-2.77c0 .883.254 1.6.772 2.13.52.529 1.214.794 2.086.794.684 0 1.258-.176 1.744-.529.474-.354.74-.806.794-1.38h-1.368a.907.907 0 0 1-.42.552c-.22.132-.496.199-.805.199-.42 0-.761-.122-1.004-.376-.254-.253-.398-.607-.43-1.048h3.961c.044-.199.066-.43.066-.695 0-.762-.243-1.38-.728-1.854-.486-.464-1.137-.706-1.931-.706-.839 0-1.501.275-1.998.816-.496.552-.74 1.247-.74 2.097Zm1.39-.552c.034-.353.166-.64.409-.861.243-.22.552-.331.927-.331.364 0 .662.111.894.331.22.221.353.508.386.861h-2.616Zm6.485 3.311-.43 1.092c-.2.055-.42.078-.663.078a3.8 3.8 0 0 1-.916-.089v1.104c.221.099.53.143.927.143 1.06 0 1.755-.441 2.097-1.324l2.538-6.533h-1.445l-1.347 3.829h-.121l-1.347-3.829h-1.456l2.163 5.529Zm7.17-2.759c0 .883.253 1.589.772 2.119.519.54 1.203.805 2.041.805.839 0 1.512-.265 2.03-.805.52-.53.784-1.236.784-2.119 0-.872-.264-1.578-.783-2.119-.519-.53-1.192-.805-2.03-.805-.84 0-1.523.275-2.042.805-.519.541-.773 1.247-.773 2.119Zm1.4 0c0-.508.122-.916.365-1.214.243-.298.585-.452 1.048-.452.43 0 .773.143 1.027.43.253.287.386.695.386 1.236 0 .519-.121.927-.364 1.225-.243.309-.585.452-1.049.452-.441 0-.783-.143-1.037-.43-.254-.287-.375-.695-.375-1.247Zm9.201-2.77v3.377c-.11.32-.287.574-.54.772-.254.199-.53.298-.828.298-.298 0-.53-.088-.695-.287-.177-.198-.254-.496-.254-.893v-3.267h-1.38v3.62c0 .651.166 1.158.52 1.523.341.364.805.551 1.379.551.386.011.739-.077 1.048-.253.309-.177.519-.42.651-.718h.1v.817h1.379v-5.54h-1.38Zm3.735 1.159v2.847c0 .541.154.949.485 1.236.331.287.817.419 1.468.419.508 0 .894-.055 1.17-.187v-1.126c-.298.11-.651.154-1.06.154-.32 0-.551-.033-.684-.099v-3.244h1.887v-1.159h-1.887v-2.428h-1.38v2.428h-1.434v1.159h1.435Z" fill="#071278"/><g clip-path="url(#g)"><path d="m251.188 244.099-.972.972 3.159 3.166-3.159 3.166.972.972 4.139-4.138-4.139-4.138Z" fill="#777DB5"/></g><rect x="198.08" y="244.79" width="46.211" height="6.897" rx="3.449" fill="#F2F2F2"/></g><g clip-path="url(#h)"><g clip-path="url(#i)"><path fill-rule="evenodd" clip-rule="evenodd" d="M29.102 208.925v1.379H36v-1.379h-6.898Z" fill="#777DB5"/></g><path d="M46.058 213.717v-5.948h.077l2.472 5.948h1.06l2.438-5.948h.089v5.948h1.401v-7.559h-2.251l-2.174 5.33h-.088l-2.163-5.33h-2.274v7.559h1.413Zm9.016-2.77c0 .883.254 1.589.773 2.119.518.54 1.202.805 2.041.805s1.512-.265 2.03-.805c.52-.53.784-1.236.784-2.119 0-.872-.265-1.578-.783-2.119-.519-.53-1.192-.805-2.03-.805-.84 0-1.524.275-2.043.805-.518.541-.772 1.247-.772 2.119Zm1.402 0c0-.508.121-.916.364-1.214.242-.298.585-.452 1.048-.452.43 0 .773.143 1.026.43.254.287.387.695.387 1.236 0 .519-.122.927-.364 1.225-.243.309-.585.452-1.049.452-.441 0-.783-.143-1.037-.43-.254-.287-.375-.695-.375-1.247Zm6.949 2.77v-3.388c.11-.309.287-.563.54-.762.243-.198.52-.297.828-.297.298 0 .53.099.706.297.166.199.254.486.254.883v3.267h1.369v-3.62c0-.64-.177-1.148-.519-1.512-.342-.364-.794-.551-1.368-.562-.398 0-.75.088-1.06.264-.32.177-.54.42-.65.707h-.1v-.817h-1.368v5.54h1.368Zm4.98-2.77c0 .883.254 1.6.772 2.13.52.529 1.214.794 2.086.794.684 0 1.258-.176 1.744-.529.474-.354.74-.806.794-1.38h-1.368a.907.907 0 0 1-.42.552c-.22.132-.496.199-.805.199-.42 0-.761-.122-1.004-.376-.254-.253-.398-.607-.43-1.048h3.961c.044-.199.066-.43.066-.695 0-.762-.243-1.38-.728-1.854-.486-.464-1.137-.706-1.931-.706-.839 0-1.501.275-1.998.816-.496.552-.74 1.247-.74 2.097Zm1.39-.552c.034-.353.166-.64.409-.861.243-.22.552-.331.927-.331.364 0 .662.111.894.331.22.221.353.508.386.861h-2.616Zm6.485 3.311-.43 1.092c-.2.055-.42.078-.663.078a3.8 3.8 0 0 1-.916-.089v1.104c.221.099.53.143.927.143 1.06 0 1.755-.441 2.097-1.324l2.538-6.533h-1.445l-1.347 3.829h-.121l-1.347-3.829h-1.456l2.163 5.529Zm7.522-6.312h1.38v-1.645h-1.38v1.645Zm0 6.323h1.38v-5.54h-1.38v5.54Zm4.453 0v-3.388c.11-.309.287-.563.54-.762.243-.198.519-.297.828-.297.298 0 .53.099.706.297.166.199.254.486.254.883v3.267h1.368v-3.62c0-.64-.176-1.148-.518-1.512-.342-.364-.795-.551-1.369-.562-.397 0-.75.088-1.059.264-.32.177-.54.42-.651.707h-.1v-.817h-1.368v5.54h1.369Z" fill="#071278"/><rect x="198.08" y="206.164" width="46.211" height="6.897" rx="3.449" fill="#F2F2F2"/><g clip-path="url(#j)"><path d="m251.188 205.477-.972.972 3.159 3.166-3.159 3.166.972.972 4.139-4.138-4.139-4.138Z" fill="#777DB5"/></g></g><path d="m30.889 188.645.513-1.3h2.748l.521 1.3h1.159l-2.334-5.67h-1.465l-2.293 5.67h1.15Zm1.854-4.718h.058l1.01 2.508h-2.078l1.01-2.508Zm8.292 4.718v-.927h-3.261v-4.743h-1.068v5.67h4.329Zm5.407 0v-.927h-3.26v-4.743h-1.069v5.67h4.33Zm2.598-5.67v.935h2.078v4.735h1.059v-4.735h2.086v-.935H49.04Zm7.187 5.67v-5.67h-1.068v5.67h1.068Zm2.65 0v-4.462h.058l1.854 4.462h.795l1.829-4.462h.066v4.462h1.051v-5.67h-1.688l-1.63 3.998h-.067l-1.622-3.998h-1.705v5.67h1.06Zm8.318-2.566h2.59v-.853h-2.59v-1.316h3.5v-.935h-4.568v5.67h4.71v-.927h-3.642v-1.639Zm154.08-3.104v.935h2.078v4.735h1.059v-4.735h2.086v-.935h-5.223Zm11.382 2.831c0-.878-.282-1.589-.828-2.136-.555-.538-1.275-.811-2.152-.811-.877 0-1.597.273-2.144.82-.554.546-.827 1.249-.827 2.127 0 .877.273 1.589.819 2.127.546.546 1.258.811 2.152.811.877 0 1.589-.265 2.144-.803.554-.538.836-1.25.836-2.135Zm-1.143-.009c0 .588-.173 1.06-.513 1.416-.347.356-.786.529-1.324.529-.546 0-.985-.173-1.324-.529-.34-.356-.505-.828-.505-1.407 0-.58.165-1.051.513-1.407.339-.356.786-.538 1.333-.538.529 0 .968.182 1.307.538.34.356.513.819.513 1.398Zm1.352-2.822v.935h2.077v4.735h1.059v-4.735h2.086v-.935h-5.222Zm5.862 5.67.513-1.3h2.747l.522 1.3h1.159l-2.334-5.67h-1.465l-2.293 5.67h1.151Zm1.853-4.718h.058l1.01 2.508h-2.077l1.009-2.508Zm8.293 4.718v-.927h-3.261v-4.743h-1.068v5.67h4.329Zm.624-1.763c.016.571.248 1.026.687 1.365.43.348 1.034.513 1.804.513.72 0 1.299-.157 1.746-.471.439-.315.663-.737.663-1.258 0-.48-.133-.845-.389-1.109-.265-.257-.654-.431-1.167-.514l-1.267-.198a1.783 1.783 0 0 1-.289-.058 1.688 1.688 0 0 1-.265-.116.477.477 0 0 1-.216-.207.717.717 0 0 1-.074-.339c0-.224.099-.406.306-.547.207-.14.48-.215.82-.215.364 0 .653.083.885.249a.977.977 0 0 1 .406.695h1.125c-.016-.546-.231-.977-.653-1.308-.431-.331-1.002-.497-1.722-.497-.687 0-1.241.158-1.655.472a1.501 1.501 0 0 0-.621 1.25c0 .894.554 1.432 1.672 1.597l1.208.174c.497.083.745.34.745.762 0 .231-.116.422-.339.562-.232.149-.53.216-.911.216-.811 0-1.266-.34-1.357-1.018h-1.142Z" fill="#777DB5"/><path d="M89.59 39.04h5.495v.398c-.22.95-.75 1.722-1.59 2.295-.838.574-1.81.861-2.935.861-1.5 0-2.714-.441-3.62-1.368-.904-.927-1.346-2.185-1.346-3.796 0-1.545.442-2.781 1.369-3.73.905-.95 2.097-1.435 3.575-1.435 2.185 0 3.554.795 4.127 2.34h3.09c-.309-1.634-1.103-2.87-2.383-3.73-1.28-.861-2.847-1.302-4.746-1.302-2.427 0-4.392.75-5.87 2.229-1.48 1.478-2.207 3.398-2.207 5.738 0 2.318.706 4.171 2.118 5.584 1.413 1.412 3.245 2.097 5.54 2.097 1.082 0 2.075-.221 2.958-.684.882-.442 1.523-1.06 1.898-1.832h.33V45h2.385v-8.299h-8.189v2.34ZM109.705 45c1.39 0 2.516-.353 3.377-1.103.838-.729 1.28-1.722 1.28-2.958 0-.817-.243-1.545-.707-2.163-.485-.618-1.125-1.037-1.92-1.258v-.265a3.393 3.393 0 0 0 1.611-1.258c.398-.574.596-1.258.596-2.075 0-1.214-.441-2.185-1.28-2.935-.838-.728-1.964-1.104-3.332-1.104h-7.769V45h8.144Zm-5.297-12.69h4.414c.662 0 1.192.176 1.589.529.397.353.596.86.596 1.5 0 .619-.199 1.126-.596 1.502-.397.375-.927.551-1.589.551h-4.414V32.31Zm0 6.245h4.745c.662 0 1.214.177 1.611.53.397.353.618.817.64 1.435 0 .662-.198 1.17-.596 1.522-.397.354-.949.53-1.655.53h-4.745v-4.017ZM120.423 45v-6.158h4.767c1.457 0 2.627-.397 3.51-1.192.86-.794 1.302-1.92 1.302-3.354 0-1.347-.42-2.428-1.258-3.223-.839-.794-2.009-1.192-3.465-1.192h-7.703V45h2.847Zm0-12.624h4.304c.706 0 1.258.176 1.655.507.397.353.596.86.596 1.545 0 .64-.199 1.148-.574 1.5-.397.376-.949.553-1.677.553h-4.304v-4.105ZM149.716 45v-2.494h-4.458V29.837h-2.274l-4.922 3.642v2.98l4.37-3.09v9.137h-4.988V45h12.272Zm4.445 0h1.412v1.037c0 .795-.507 1.192-1.479 1.192-.264 0-.441-.022-.573-.066v1.7c.242.088.596.132 1.037.132.795 0 1.435-.22 1.92-.662.486-.442.728-1.06.728-1.81v-4.701h-3.045V45Zm12.89.265c1.721 0 3.134-.464 4.215-1.435 1.06-.97 1.612-2.229 1.612-3.774 0-1.456-.486-2.626-1.413-3.553-.949-.927-2.163-1.39-3.664-1.39-.64 0-1.236.11-1.787.286-.552.177-.972.42-1.258.728h-.221l.463-3.663h7.703v-2.627h-10.108l-1.016 8.807h2.693c.265-.353.64-.64 1.148-.883a4.09 4.09 0 0 1 1.633-.353c.883 0 1.589.264 2.119.75.529.508.816 1.148.816 1.898 0 .773-.287 1.39-.816 1.876-.53.486-1.236.728-2.097.728-.883 0-1.589-.22-2.119-.662-.53-.441-.794-1.059-.794-1.831h-2.87c0 1.544.53 2.78 1.59 3.707 1.059.927 2.449 1.39 4.171 1.39Zm8.329-7.416c0 2.472.53 4.326 1.634 5.584 1.103 1.258 2.67 1.876 4.723 1.876 1.721 0 3.134-.486 4.193-1.5 1.06-.994 1.611-2.252 1.611-3.753 0-1.456-.507-2.626-1.478-3.531-.972-.905-2.208-1.369-3.708-1.369-.927 0-1.766.199-2.516.574a3.401 3.401 0 0 0-1.678 1.744c-.066-1.633.199-2.958.795-3.95.574-.972 1.523-1.48 2.847-1.48.794 0 1.457.177 1.986.53.53.353.861.795.949 1.369h2.671c-.11-1.391-.662-2.472-1.678-3.245-1.015-.75-2.317-1.148-3.906-1.148-2.075 0-3.664.707-4.767 2.12-1.126 1.412-1.678 3.486-1.678 6.179Zm9.292 2.23c0 .838-.287 1.5-.861 2.008-.574.507-1.28.75-2.141.75-.927 0-1.699-.243-2.273-.75-.574-.486-.861-1.148-.861-1.965 0-.816.265-1.5.839-2.03.574-.53 1.302-.795 2.207-.795.905 0 1.655.265 2.229.773.574.53.861 1.192.861 2.008Zm5.438.529c-.022 1.412.508 2.538 1.567 3.377 1.06.86 2.45 1.28 4.216 1.28 1.677 0 3.023-.397 4.061-1.214 1.037-.817 1.567-1.898 1.567-3.245 0-.772-.221-1.456-.618-2.052-.42-.574-1.015-.971-1.766-1.17v-.353a3.21 3.21 0 0 0 1.744-1.17c.419-.574.64-1.28.64-2.118 0-1.325-.53-2.384-1.567-3.2-1.06-.817-2.406-1.237-4.061-1.237-1.766 0-3.156.442-4.216 1.28-1.059.861-1.589 1.987-1.567 3.355h2.847c0-.64.243-1.148.773-1.545.507-.397 1.214-.596 2.096-.596.839 0 1.523.199 2.053.574.53.397.795.927.795 1.59 0 .661-.243 1.169-.685 1.522-.463.353-1.125.53-1.964.53h-2.008v2.34h2.008c.817 0 1.457.176 1.942.529.464.353.707.839.707 1.479 0 .706-.265 1.236-.773 1.633-.53.397-1.214.574-2.075.574-.882 0-1.589-.199-2.096-.596-.53-.397-.773-.905-.773-1.567h-2.847Z" fill="#071278"/><path stroke="#777DB5" stroke-width=".69" stroke-dasharray="1.38 1.38" d="M255.333 83.049H29.107m226.226 24.829H29.107m226.226 24.83H29.107m226.226 24.829H29.107"/><mask id="k" style="mask-type:alpha" maskUnits="userSpaceOnUse" x="29" y="77" width="230" height="82"><path fill="#fff" d="M29.795 77.876H258.09v80.697H29.795z"/></mask><g mask="url(#k)"><path d="m29.379 150.671-7.169-6.544v25.354l239.331 1.506v-65.178l-8.663 6.75-5.06 12.319-12.831 4.382-15.519-9.002-8.966 4.62-22.987-4.62-11.807-13.858-35.845-22.329-29.518 13.09-7.169 13.858-37.11 12.319-7.59 10.779-16.446-1.54-12.651 18.094Z" fill="url(#l)" stroke="#2639F2" stroke-width="1.724" stroke-linejoin="round"/></g></g><defs><clipPath id="b"><path fill="#fff" transform="translate(24.277 290.309)" d="M0 0h231.054v16.553H0z"/></clipPath><clipPath id="c"><path fill="#fff" transform="translate(24.276 290.31)" d="M0 0h16.553v16.553H0z"/></clipPath><clipPath id="d"><path fill="#fff" transform="translate(244.292 293.068)" d="M0 0h11.035v11.035H0z"/></clipPath><clipPath id="e"><path fill="#fff" transform="translate(24.277 239.961)" d="M0 0h231.054v16.553H0z"/></clipPath><clipPath id="f"><path fill="#fff" transform="translate(24.276 239.961)" d="M0 0h16.553v16.553H0z"/></clipPath><clipPath id="g"><path fill="#fff" transform="translate(244.292 242.72)" d="M0 0h11.035v11.035H0z"/></clipPath><clipPath id="h"><path fill="#fff" transform="translate(24.277 201.336)" d="M0 0h231.054v16.553H0z"/></clipPath><clipPath id="i"><path fill="#fff" transform="translate(24.276 201.336)" d="M0 0h16.553v16.553H0z"/></clipPath><clipPath id="j"><path fill="#fff" transform="translate(244.292 204.097)" d="M0 0h11.035v11.035H0z"/></clipPath><linearGradient id="l" x1="140.496" y1="84.071" x2="140.496" y2="171.58" gradientUnits="userSpaceOnUse"><stop stop-color="#C7E5FF" stop-opacity=".5"/><stop offset=".572" stop-color="#C7E5FF" stop-opacity=".1"/><stop offset="1" stop-color="#C7E5FF" stop-opacity=".1"/></linearGradient><filter id="a" x="-20" y="-8" width="323" height="375" filterUnits="userSpaceOnUse" color-interpolation-filters="sRGB"><feFlood flood-opacity="0" result="BackgroundImageFix"/><feColorMatrix in="SourceAlpha" values="0 0 0 0 0 0 0 0 0 0 0 0 0 0 0 0 0 0 127 0" result="hardAlpha"/><feOffset dy="12"/><feGaussianBlur stdDeviation="10"/><feComposite in2="hardAlpha" operator="out"/><feColorMatrix values="0 0 0 0 0 0 0 0 0 0 0 0 0 0 0 0 0 0 0.15 0"/><feBlend in2="BackgroundImageFix" result="effect1_dropShadow_3183_217314"/><feBlend in="SourceGraphic" in2="effect1_dropShadow_3183_217314" result="shape"/></filter></defs></svg>